<?xml version="1.0" encoding="UTF-8"?>
<svg version="1.1" xmlns="http://www.w3.org/2000/svg" width="512" height="512">
<path d="M0 0 C1.42330911 -0.00935994 1.42330911 -0.00935994 2.87537193 -0.01890898 C6.02736277 -0.03475321 9.17857103 -0.02226824 12.33056641 -0.00964355 C14.60150602 -0.01506847 16.87244212 -0.0221932 19.14337158 -0.03088379 C25.29210333 -0.04907592 31.44056577 -0.04206642 37.58930206 -0.02936745 C44.03350026 -0.01921856 50.47767587 -0.02863838 56.921875 -0.03491211 C68.4348724 -0.0426483 79.94773249 -0.03024182 91.46070838 -0.00987476 C101.88418508 0.00799452 112.30748355 0.00488987 122.73095703 -0.0135498 C134.85644434 -0.03499061 146.98179189 -0.04290551 159.10730171 -0.03110075 C165.5182536 -0.02487458 171.92908291 -0.0240062 178.34002686 -0.0372467 C184.36809214 -0.04882751 190.39582186 -0.04073827 196.42385101 -0.01766968 C198.63208205 -0.01239457 200.84034147 -0.01387576 203.0485611 -0.02272034 C206.07083729 -0.03370658 209.09204882 -0.01987461 212.11425781 0 C212.98100821 -0.00892289 213.8477586 -0.01784577 214.74077415 -0.02703905 C222.97168046 0.07742306 231.12501727 2.57582294 237.05712891 8.50793457 C242.50688879 15.67047613 243.35186557 21.81978425 243.29763794 30.53060913 C243.30020121 32.03900445 243.30020121 32.03900445 243.30281627 33.5778724 C243.30610869 36.94509468 243.2951114 40.31211738 243.28417969 43.67932129 C243.28361552 46.09396866 243.28393224 48.50861638 243.2850647 50.92326355 C243.28552003 56.12063397 243.27984973 61.31795932 243.26858902 66.51531601 C243.25231865 74.0297699 243.24712444 81.54419951 243.24461304 89.05866911 C243.24023835 101.25108127 243.22693537 113.44346664 243.20800781 125.63586426 C243.18964317 137.47798529 243.17548952 149.32009904 243.16699219 161.16223145 C243.16646674 161.89246902 243.16594129 162.6227066 243.16539992 163.37507258 C243.1627898 167.03854619 243.1602624 170.70201985 243.15777612 174.36549354 C243.13705065 204.7463264 243.10168235 235.12712676 243.05712891 265.50793457 C243.66576782 265.49905212 244.27440674 265.49016968 244.90148926 265.48101807 C251.26089038 265.39222777 257.62011416 265.33206915 263.97998047 265.28820801 C266.35049599 265.26814631 268.72096236 265.24089031 271.09130859 265.20617676 C274.50712242 265.15742039 277.92227946 265.13491058 281.33837891 265.11730957 C282.39077759 265.09666443 283.44317627 265.07601929 284.52746582 265.05474854 C292.28375948 265.05240619 297.6690933 266.5017252 303.51806641 271.69152832 C304.46552734 272.80721191 304.46552734 272.80721191 305.43212891 273.94543457 C306.07923828 274.68664551 306.72634766 275.42785645 307.39306641 276.19152832 C310.84754871 281.00023256 311.30924891 285.04189207 311.32836914 290.90930176 C311.33620926 292.00061905 311.33620926 292.00061905 311.34420776 293.11398315 C311.35441878 294.68809615 311.3602231 296.26224263 311.36208916 297.83638763 C311.36576649 300.33458533 311.38253189 302.83239087 311.40284729 305.33050537 C311.45811706 312.43124061 311.48886721 319.53203376 311.51342773 326.63293457 C311.52937751 330.98306351 311.55967605 335.332915 311.59819221 339.68289948 C311.60977969 341.33333624 311.61577201 342.98382279 311.61587334 344.63430023 C311.61657996 353.08396444 311.68940809 360.59938835 315.05712891 368.50793457 C315.38712891 369.49793457 315.71712891 370.48793457 316.05712891 371.50793457 C321.47813618 374.76053894 326.8778911 375.18305615 333.05712891 374.50793457 C336.88972009 373.19959175 339.47968235 371.27786331 341.93212891 368.00793457 C344.05688921 363.286245 344.20841313 358.98258672 344.21534729 353.85174561 C344.22275426 352.68893196 344.22275426 352.68893196 344.23031086 351.50262713 C344.24567783 348.90316145 344.25404432 346.30372045 344.26245117 343.70422363 C344.27203032 341.84158613 344.28204043 339.9789508 344.29244995 338.11631775 C344.31950105 333.05681251 344.34050953 327.99729794 344.36045194 322.93776035 C344.3823102 317.65129964 344.40969968 312.36486769 344.43650818 307.07843018 C344.48643721 297.06648517 344.53137528 287.05452419 344.57453054 277.04254794 C344.6239011 265.64482958 344.67881991 254.24714008 344.73421013 242.84944963 C344.84803342 219.40230487 344.95487173 195.95513243 345.05712891 172.50793457 C344.4407959 172.39038818 343.82446289 172.2728418 343.18945312 172.1517334 C341.97539795 171.90459595 341.97539795 171.90459595 340.73681641 171.65246582 C339.9348584 171.49366943 339.13290039 171.33487305 338.30664062 171.17126465 C334.05511928 169.91758726 332.04788552 166.79165902 329.4495697 163.42501831 C327.4820571 159.30319207 327.62993781 155.66024094 327.65307617 151.14709473 C327.6427813 149.74372108 327.6427813 149.74372108 327.63227844 148.31199646 C327.61399822 145.22350832 327.61785018 142.13552764 327.62353516 139.04699707 C327.61897354 136.896147 327.61366803 134.74529839 327.60765076 132.5944519 C327.59871693 128.08703693 327.60114548 123.57979911 327.61108398 119.0723877 C327.6225665 113.30318804 327.60237418 107.53460111 327.57316685 101.76548195 C327.55479701 97.32329437 327.55509904 92.88125336 327.56080437 88.43903732 C327.56095752 86.31242387 327.55491781 84.18580045 327.54251289 82.05922318 C327.52759246 79.08161561 327.53828862 76.10513637 327.55541992 73.12756348 C327.54575195 72.253564 327.53608398 71.37956451 327.52612305 70.4790802 C327.59592893 64.66860709 328.68375222 61.27542384 332.05712891 56.50793457 C336.63225351 52.88596093 340.29919982 51.40481451 346.05615234 51.34680176 C346.83085876 51.33719421 347.60556519 51.32758667 348.40374756 51.31768799 C349.23295715 51.31343811 350.06216675 51.30918823 350.91650391 51.30480957 C351.77971252 51.2991095 352.64292114 51.29340942 353.5322876 51.28753662 C355.35793844 51.27810163 357.1836062 51.27155861 359.00927734 51.2677002 C361.78334802 51.25801758 364.55667018 51.22698974 367.33056641 51.19543457 C369.10920787 51.18890149 370.8878546 51.18365222 372.66650391 51.17980957 C373.48761658 51.16746277 374.30872925 51.15511597 375.15472412 51.14239502 C381.01578498 51.16473629 386.98860151 51.80731203 391.58636475 55.8538208 C394.97744312 59.7069065 397.05712891 63.36196252 397.05712891 68.50793457 C397.84885498 68.49222412 398.64058105 68.47651367 399.45629883 68.46032715 C403.05233586 68.39786758 406.64825861 68.35890822 410.24462891 68.32043457 C411.49050781 68.29529785 412.73638672 68.27016113 414.02001953 68.2442627 C415.22207031 68.23459473 416.42412109 68.22492676 417.66259766 68.21496582 C418.76756592 68.19925537 419.87253418 68.18354492 421.01098633 68.1673584 C424.47294826 68.55442555 426.28590828 69.42929108 429.05712891 71.50793457 C432.08950331 76.05649618 431.3860607 80.53274239 431.36962891 85.88293457 C431.38574219 86.92449707 431.40185547 87.96605957 431.41845703 89.03918457 C431.42460656 98.65704772 431.42460656 98.65704772 428.05712891 102.50793457 C425.18694449 103.94302678 422.72169168 103.61951963 419.51806641 103.60559082 C417.56513672 103.60075684 417.56513672 103.60075684 415.57275391 103.5958252 C414.19254492 103.58746923 412.81233658 103.57900428 411.43212891 103.57043457 C410.04410965 103.56541958 408.65608868 103.56085667 407.26806641 103.5567627 C403.86437759 103.54494433 400.46077452 103.52846891 397.05712891 103.50793457 C397.06601135 104.17921387 397.0748938 104.85049316 397.08404541 105.54211426 C397.17277385 112.55032813 397.23296921 119.55838152 397.27685547 126.5670166 C397.29692824 129.1800383 397.32419249 131.79301532 397.35888672 134.40588379 C397.40759325 138.16917979 397.43014202 141.93188006 397.44775391 145.69543457 C397.46839905 146.85720215 397.48904419 148.01896973 397.51031494 149.21594238 C397.51252366 157.26157661 396.52724855 162.8450305 390.80712891 168.88293457 C387.28392431 170.9648282 384.03927432 171.57334942 380.05712891 172.50793457 C380.06081608 173.48270248 380.06450325 174.4574704 380.06830215 175.46177673 C380.15729658 199.23448585 380.22292477 223.00717324 380.26437759 246.78001404 C380.28495925 258.27662088 380.31299542 269.77311735 380.35888672 281.26965332 C380.39888948 291.29583343 380.42459364 301.32193356 380.43348289 311.34819126 C380.43867494 316.65177379 380.45078564 321.95512761 380.48004913 327.25863647 C380.50743103 332.26222003 380.5155284 337.26548315 380.50955963 342.26913452 C380.51064977 344.09429675 380.51846679 345.91947099 380.53395081 347.74456787 C380.65664001 362.96736387 379.53823976 377.88855392 370.05712891 390.50793457 C369.49380859 391.27492676 368.93048828 392.04191895 368.35009766 392.83215332 C359.31819984 404.03170662 346.7911461 409.80643871 332.74462891 411.32043457 C317.07362583 412.20538533 303.88358151 407.77641139 292.05712891 397.50793457 C278.53997195 383.43905692 275.94558855 367.93398864 275.88134766 349.14465332 C275.8581745 346.54112939 275.83405824 343.93761371 275.80908203 341.33410645 C275.77259674 337.24775981 275.74282947 333.16157184 275.73120117 329.07507324 C275.71921249 325.11881617 275.67567421 321.16318409 275.63134766 317.20715332 C275.63421028 315.36500496 275.63421028 315.36500496 275.63713074 313.48564148 C275.6206398 312.35048599 275.60414886 311.21533051 275.5871582 310.04577637 C275.57835884 308.54641792 275.57835884 308.54641792 275.56938171 307.01676941 C275.23183169 303.94750652 275.23183169 303.94750652 271.05712891 301.50793457 C261.81712891 301.17793457 252.57712891 300.84793457 243.05712891 300.50793457 C243.05712891 348.02793457 243.05712891 395.54793457 243.05712891 444.50793457 C250.31712891 444.50793457 257.57712891 444.50793457 265.05712891 444.50793457 C274.93948185 450.15499339 274.93948185 450.15499339 277.05712891 456.50793457 C277.34659036 461.0866158 277.33495056 465.67114549 277.36962891 470.25793457 C277.39863281 471.52121582 277.42763672 472.78449707 277.45751953 474.08605957 C277.50533672 481.08943923 277.46350725 485.9127851 273.05712891 491.50793457 C268.27903604 495.21339435 264.75350957 496.63155644 258.76965618 496.63936234 C257.66663023 496.64320348 256.56360427 496.64704463 255.42715329 496.65100217 C254.21044487 496.65013569 252.99373645 496.6492692 251.74015808 496.64837646 C250.45142566 496.65134759 249.16269323 496.65431871 247.83490831 496.65737987 C244.25036873 496.6654584 240.66584917 496.66723991 237.08130157 496.66797733 C233.21821229 496.6698264 229.35513344 496.67737297 225.49205017 496.68411255 C217.04168267 496.69770228 208.5913199 496.70372154 200.14094329 496.70812321 C194.86616588 496.71088445 189.59139032 496.71512158 184.31661415 496.71962738 C169.71699609 496.7318207 155.1173795 496.74212001 140.51775646 496.74550247 C139.11578083 496.74583182 139.11578083 496.74583182 137.68548246 496.74616782 C136.74857595 496.7463861 135.81166944 496.74660438 134.84637183 496.74682927 C132.94779281 496.74727274 131.04921379 496.7477193 129.15063477 496.74816895 C128.20887086 496.74839038 127.26710696 496.7486118 126.29680476 496.74883994 C111.03355787 496.75278877 95.77035869 496.77024509 80.50713023 496.79352847 C64.84277248 496.81723121 49.17843868 496.82970383 33.5140627 496.83087039 C24.7165904 496.83178774 15.91918028 496.83755509 7.12172508 496.85569 C-0.36889163 496.87107644 -7.85942694 496.87622007 -15.35005645 496.8679519 C-19.17255992 496.86404026 -22.99489942 496.86499992 -26.81738281 496.87900925 C-30.96002396 496.89405325 -35.10229424 496.88589698 -39.24494934 496.87542725 C-41.05997372 496.88751185 -41.05997372 496.88751185 -42.91166526 496.89984059 C-49.65895485 496.85981393 -54.62939977 496.5643861 -59.80615234 491.78918457 C-60.28439453 491.20137207 -60.76263672 490.61355957 -61.25537109 490.00793457 C-61.74650391 489.42012207 -62.23763672 488.83230957 -62.74365234 488.22668457 C-66.22327954 483.23959674 -65.20773026 476.62944043 -65.25537109 470.82043457 C-65.29887695 469.08116699 -65.29887695 469.08116699 -65.34326172 467.3067627 C-65.39349356 460.51000762 -65.24817475 454.98038357 -60.94287109 449.50793457 C-54.94366648 444.13316791 -49.20877768 443.86421152 -41.44287109 444.19543457 C-40.42966797 444.21799316 -39.41646484 444.24055176 -38.37255859 444.26379395 C-35.89441742 444.32224067 -33.41945543 444.4041046 -30.94287109 444.50793457 C-30.94438998 443.6191723 -30.94590886 442.73041003 -30.94747376 441.81471556 C-31.03698614 389.13940634 -31.10561738 336.46410519 -31.14713241 283.78873513 C-31.15213524 277.46393365 -31.15731253 271.13913231 -31.16259766 264.81433105 C-31.1636469 263.55517704 -31.16469614 262.29602302 -31.16577718 260.99871282 C-31.18318238 240.61069563 -31.21472073 220.22272357 -31.25148228 199.83473315 C-31.28888844 178.91476328 -31.31110627 157.99481704 -31.31922507 137.07481509 C-31.3247135 124.16606769 -31.34204833 111.25744781 -31.37453696 98.34873966 C-31.39568079 89.49674488 -31.40207141 80.64481603 -31.3968766 71.79279783 C-31.39431465 66.68565061 -31.39824201 61.57872624 -31.41969299 56.47161865 C-31.43920281 51.79243888 -31.44011232 47.11363117 -31.42646667 42.43443403 C-31.42478094 40.74514374 -31.42981749 39.05582994 -31.44240382 37.36658569 C-31.51772564 26.6297717 -31.36701111 16.021361 -23.81787109 7.57043457 C-17.00014415 1.49825228 -8.86822846 -0.09129526 0 0 Z " fill="#B1CBDD" transform="translate(72.94287109375,7.4920654296875)"/>
<path d="M0 0 C1.42330911 -0.00935994 1.42330911 -0.00935994 2.87537193 -0.01890898 C6.02736277 -0.03475321 9.17857103 -0.02226824 12.33056641 -0.00964355 C14.60150602 -0.01506847 16.87244212 -0.0221932 19.14337158 -0.03088379 C25.29210333 -0.04907592 31.44056577 -0.04206642 37.58930206 -0.02936745 C44.03350026 -0.01921856 50.47767587 -0.02863838 56.921875 -0.03491211 C68.4348724 -0.0426483 79.94773249 -0.03024182 91.46070838 -0.00987476 C101.88418508 0.00799452 112.30748355 0.00488987 122.73095703 -0.0135498 C134.85644434 -0.03499061 146.98179189 -0.04290551 159.10730171 -0.03110075 C165.5182536 -0.02487458 171.92908291 -0.0240062 178.34002686 -0.0372467 C184.36809214 -0.04882751 190.39582186 -0.04073827 196.42385101 -0.01766968 C198.63208205 -0.01239457 200.84034147 -0.01387576 203.0485611 -0.02272034 C206.07083729 -0.03370658 209.09204882 -0.01987461 212.11425781 0 C212.98100821 -0.00892289 213.8477586 -0.01784577 214.74077415 -0.02703905 C222.97168046 0.07742306 231.12501727 2.57582294 237.05712891 8.50793457 C242.16582412 15.22221971 243.35702667 21.05044943 243.29763794 29.23983765 C243.30020599 30.53684853 243.30020599 30.53684853 243.30282593 31.86006165 C243.30612994 34.75953476 243.29509963 37.65877562 243.28417969 40.55822754 C243.2835669 42.67155513 243.2838342 44.78488312 243.2849102 46.89821053 C243.28536161 52.55616305 243.27377219 58.21403094 243.25968933 63.8719635 C243.24829717 69.18169419 243.24776296 74.49140433 243.24633789 79.80114746 C243.23584438 95.32842104 243.20792207 110.85567887 243.18212891 126.38293457 C243.14087891 161.07418457 243.09962891 195.76543457 243.05712891 231.50793457 C152.63712891 231.50793457 62.21712891 231.50793457 -30.94287109 231.50793457 C-31.02537109 197.24980957 -31.10787109 162.99168457 -31.19287109 127.69543457 C-31.22928711 116.88430908 -31.26570313 106.07318359 -31.30322266 94.93444824 C-31.32128906 81.7175293 -31.32128906 81.7175293 -31.324646 75.5271759 C-31.32836775 71.2100754 -31.3433383 66.89317229 -31.36517334 62.5761261 C-31.39268909 57.0625676 -31.4008211 51.54929453 -31.3951602 46.03567374 C-31.39634325 44.01650125 -31.40422822 41.9973184 -31.41973162 39.97820508 C-31.59280962 16.33091498 -31.59280962 16.33091498 -23.81787109 7.57043457 C-16.86728608 1.56827975 -8.95985504 -0.09223852 0 0 Z " fill="#CBE1EC" transform="translate(72.94287109375,7.4920654296875)"/>
<path d="M0 0 C0.77470642 -0.00960754 1.54941284 -0.01921509 2.34759521 -0.02911377 C3.17680481 -0.03336365 4.0060144 -0.03761353 4.86035156 -0.04199219 C5.72356018 -0.04769226 6.5867688 -0.05339233 7.47613525 -0.05926514 C9.3017861 -0.06870013 11.12745385 -0.07524315 12.953125 -0.07910156 C15.72719568 -0.08878418 18.50051784 -0.11981202 21.27441406 -0.15136719 C23.05305552 -0.15790027 24.83170225 -0.16314954 26.61035156 -0.16699219 C27.43146423 -0.17933899 28.2525769 -0.19168579 29.09857178 -0.20440674 C34.95963263 -0.18206546 40.93244916 0.46051027 45.5302124 4.50701904 C48.92129078 8.36010474 51.00097656 12.01516076 51.00097656 17.16113281 C52.18856567 17.13756714 52.18856567 17.13756714 53.40014648 17.11352539 C56.99618351 17.05106582 60.59210626 17.01210646 64.18847656 16.97363281 C65.43435547 16.94849609 66.68023437 16.92335938 67.96386719 16.89746094 C69.16591797 16.88779297 70.36796875 16.878125 71.60644531 16.86816406 C72.71141357 16.85245361 73.81638184 16.83674316 74.95483398 16.82055664 C78.41679592 17.2076238 80.22975594 18.08248932 83.00097656 20.16113281 C86.03335097 24.70969442 85.32990836 29.18594063 85.31347656 34.53613281 C85.32958984 35.57769531 85.34570312 36.61925781 85.36230469 37.69238281 C85.36845422 47.31024596 85.36845422 47.31024596 82.00097656 51.16113281 C79.13079215 52.59622502 76.66553934 52.27271787 73.46191406 52.25878906 C72.15996094 52.25556641 70.85800781 52.25234375 69.51660156 52.24902344 C68.13639257 52.24066747 66.75618424 52.23220252 65.37597656 52.22363281 C63.98795731 52.21861782 62.59993634 52.21405492 61.21191406 52.20996094 C57.80822524 52.19814257 54.40462217 52.18166715 51.00097656 52.16113281 C51.00985901 52.83241211 51.01874146 53.50369141 51.02789307 54.1953125 C51.11662151 61.20352637 51.17681687 68.21157976 51.22070312 75.22021484 C51.2407759 77.83323654 51.26804014 80.44621356 51.30273438 83.05908203 C51.35144091 86.82237803 51.37398967 90.5850783 51.39160156 94.34863281 C51.4122467 95.51040039 51.43289185 96.67216797 51.4541626 97.86914062 C51.45637132 105.91477486 50.47109621 111.49822874 44.75097656 117.53613281 C41.22777196 119.61802644 37.98312198 120.22654766 34.00097656 121.16113281 C34.00466373 122.13590073 34.00835091 123.11066864 34.01214981 124.11497498 C34.10114424 147.88768409 34.16677243 171.66037148 34.20822525 195.43321228 C34.2288069 206.92981912 34.25684308 218.42631559 34.30273438 229.92285156 C34.34273713 239.94903167 34.36844129 249.9751318 34.37733054 260.0013895 C34.3825226 265.30497203 34.3946333 270.60832585 34.42389679 275.91183472 C34.45127868 280.91541827 34.45937605 285.91868139 34.45340729 290.92233276 C34.45449743 292.747495 34.46231444 294.57266924 34.47779846 296.39776611 C34.60048767 311.62056212 33.48208742 326.54175216 24.00097656 339.16113281 C23.43765625 339.928125 22.87433594 340.69511719 22.29394531 341.48535156 C13.26204749 352.68490486 0.73499375 358.45963695 -13.31152344 359.97363281 C-28.98252652 360.85858357 -42.17257083 356.42960963 -53.99902344 346.16113281 C-67.51618039 332.09225517 -70.11056379 316.58718688 -70.17480469 297.79785156 C-70.19797784 295.19432763 -70.2220941 292.59081195 -70.24707031 289.98730469 C-70.2835556 285.90095805 -70.31332287 281.81477008 -70.32495117 277.72827148 C-70.33693986 273.77201442 -70.38047813 269.81638234 -70.42480469 265.86035156 C-70.42289627 264.63225266 -70.42098785 263.40415375 -70.41902161 262.13883972 C-70.43551254 261.00368423 -70.45200348 259.86852875 -70.46899414 258.69897461 C-70.47486038 257.69940231 -70.48072662 256.69983002 -70.48677063 255.66996765 C-70.78156788 253.03784049 -70.78156788 253.03784049 -72.84312439 251.34204102 C-75.79708261 249.72399053 -78.15738255 249.72571556 -81.51464844 249.64941406 C-83.20509277 249.59974487 -83.20509277 249.59974487 -84.9296875 249.54907227 C-86.35506836 249.52417725 -87.78044922 249.49928223 -89.24902344 249.47363281 C-96.05527344 249.31894531 -96.05527344 249.31894531 -102.99902344 249.16113281 C-102.99902344 237.61113281 -102.99902344 226.06113281 -102.99902344 214.16113281 C-96.02407299 214.06908801 -89.05124671 213.98951021 -82.07617188 213.94140625 C-79.70565635 213.92134456 -77.33518999 213.89408855 -74.96484375 213.859375 C-71.54902993 213.81061863 -68.13387289 213.78810882 -64.71777344 213.77050781 C-63.66537476 213.74986267 -62.61297607 213.72921753 -61.52868652 213.70794678 C-53.77239287 213.70560443 -48.38705905 215.15492344 -42.53808594 220.34472656 C-41.90644531 221.08851563 -41.27480469 221.83230469 -40.62402344 222.59863281 C-39.65335937 223.71044922 -39.65335937 223.71044922 -38.66308594 224.84472656 C-35.20860364 229.6534308 -34.74690343 233.69509031 -34.7277832 239.5625 C-34.71994308 240.65381729 -34.71994308 240.65381729 -34.71194458 241.7671814 C-34.70173357 243.34129439 -34.69592925 244.91544087 -34.69406319 246.48958588 C-34.69038586 248.98778358 -34.67362045 251.48558911 -34.65330505 253.98370361 C-34.59803528 261.08443885 -34.56728514 268.185232 -34.54272461 275.28613281 C-34.52677483 279.63626175 -34.49647629 283.98611324 -34.45796013 288.33609772 C-34.44637265 289.98653448 -34.44038033 291.63702104 -34.44027901 293.28749847 C-34.43957239 301.73716268 -34.36674425 309.25258659 -30.99902344 317.16113281 C-30.50402344 318.64613281 -30.50402344 318.64613281 -29.99902344 320.16113281 C-24.57801616 323.41373718 -19.17826125 323.83625439 -12.99902344 323.16113281 C-9.16643225 321.85279 -6.57646999 319.93106155 -4.12402344 316.66113281 C-1.99926313 311.93944324 -1.84773921 307.63578497 -1.84080505 302.50494385 C-1.83586708 301.72973475 -1.8309291 300.95452566 -1.82584149 300.15582538 C-1.81047451 297.55635969 -1.80210802 294.9569187 -1.79370117 292.35742188 C-1.78412202 290.49478437 -1.77411192 288.63214904 -1.76370239 286.76951599 C-1.7366513 281.71001075 -1.71564281 276.65049618 -1.69570041 271.5909586 C-1.67384215 266.30449788 -1.64645267 261.01806593 -1.61964417 255.73162842 C-1.56971514 245.71968341 -1.52477707 235.70772243 -1.4816218 225.69574618 C-1.43225124 214.29802782 -1.37733243 202.90033832 -1.32194221 191.50264788 C-1.20811893 168.05550311 -1.10128062 144.60833067 -0.99902344 121.16113281 C-1.61535645 121.04358643 -2.23168945 120.92604004 -2.86669922 120.80493164 C-3.67606934 120.64017334 -4.48543945 120.47541504 -5.31933594 120.30566406 C-6.12129395 120.14686768 -6.92325195 119.98807129 -7.74951172 119.82446289 C-12.00103306 118.5707855 -14.00826683 115.44485726 -16.60658264 112.07821655 C-18.57409524 107.95639031 -18.42621454 104.31343918 -18.40307617 99.80029297 C-18.40993942 98.86471054 -18.41680267 97.92912811 -18.4238739 96.9651947 C-18.44215413 93.87670656 -18.43830217 90.78872588 -18.43261719 87.70019531 C-18.4371788 85.54934524 -18.44248431 83.39849664 -18.44850159 81.24765015 C-18.45743542 76.74023518 -18.45500687 72.23299735 -18.44506836 67.72558594 C-18.43358585 61.95638629 -18.45377817 56.18779935 -18.4829855 50.41868019 C-18.50135534 45.97649262 -18.50105331 41.5344516 -18.49534798 37.09223557 C-18.49519482 34.96562211 -18.50123453 32.83899869 -18.51363945 30.71242142 C-18.52855989 27.73481385 -18.51786372 24.75833461 -18.50073242 21.78076172 C-18.51040039 20.90676224 -18.52006836 20.03276276 -18.5300293 19.13227844 C-18.46022341 13.32180533 -17.37240012 9.92862208 -13.99902344 5.16113281 C-9.42389883 1.53915917 -5.75695252 0.05801275 0 0 Z " fill="#7A92A0" transform="translate(418.9990234375,58.8388671875)"/>
<path d="M0 0 C1.95069913 -0.01064158 1.95069913 -0.01064158 3.94080633 -0.02149814 C7.53515129 -0.04037311 11.128813 -0.0282143 14.72314036 -0.01077521 C18.60527818 0.00262136 22.48731752 -0.01284641 26.3694458 -0.02459717 C33.96815831 -0.0429606 41.5666134 -0.03447041 49.16531784 -0.01650894 C55.34119184 -0.00247504 61.51699603 0.00140816 67.69288445 -0.00195122 C69.01207429 -0.00266738 69.01207429 -0.00266738 70.35791443 -0.00339801 C72.14458806 -0.00442436 73.93126166 -0.00547971 75.71793526 -0.00656378 C91.51061162 -0.01512808 107.3031638 0.00153596 123.09580994 0.03126526 C138.41715205 0.06010691 153.73831531 0.06718354 169.05967712 0.05177307 C185.74875279 0.0350099 202.43774358 0.03097751 219.12682146 0.04848343 C220.90656339 0.0503278 222.68630533 0.05216253 224.46604729 0.0539875 C225.34168947 0.05489959 226.21733164 0.05581168 227.11950843 0.05675141 C233.28790893 0.06235571 239.45626797 0.05905067 245.62466621 0.05244255 C253.14189715 0.04470905 260.65895206 0.05146265 268.17614753 0.07661759 C272.01098779 0.08911175 275.84555403 0.09526028 279.68040466 0.08407593 C283.83789044 0.07217957 287.99465639 0.09129465 292.15209961 0.11352539 C293.96931167 0.10116424 293.96931167 0.10116424 295.82323509 0.08855337 C302.44583646 0.15407042 306.65414535 0.61974805 312.01255798 4.62818909 C318.13101341 11.22968047 317.26023194 17.80386413 317.32505798 26.37818909 C317.35406189 27.64147034 317.3830658 28.90475159 317.41294861 30.20631409 C317.4607658 37.20969375 317.41893632 42.03303961 313.01255798 47.62818909 C308.23446512 51.33364886 304.70893864 52.75181095 298.72508526 52.75961685 C297.07054633 52.76537857 297.07054633 52.76537857 295.38258237 52.77125669 C294.16587395 52.7703902 292.94916553 52.76952372 291.69558716 52.76863098 C290.40685473 52.7716021 289.11812231 52.77457323 287.79033738 52.77763438 C284.20579781 52.78571292 280.62127825 52.78749443 277.03673065 52.78823185 C273.17364137 52.79008091 269.31056251 52.79762749 265.44747925 52.80436707 C256.99711174 52.8179568 248.54674898 52.82397605 240.09637237 52.82837772 C234.82159496 52.83113897 229.54681939 52.83537609 224.27204323 52.8398819 C209.67242517 52.85207521 195.07280858 52.86237453 180.47318554 52.86575699 C179.07120991 52.86608634 179.07120991 52.86608634 177.64091154 52.86642234 C176.70400503 52.86664062 175.76709852 52.8668589 174.80180091 52.86708379 C172.90322188 52.86752726 171.00464286 52.86797382 169.10606384 52.86842346 C168.16429994 52.86864489 167.22253604 52.86886632 166.25223384 52.86909446 C150.98898694 52.87304329 135.72578777 52.8904996 120.46255931 52.91378298 C104.79820155 52.93748573 89.13386776 52.94995834 73.46949178 52.95112491 C64.67201948 52.95204225 55.87460935 52.9578096 47.07715416 52.97594452 C39.58653745 52.99133096 32.09600213 52.99647459 24.60537263 52.98820642 C20.78286915 52.98429477 16.96052965 52.98525444 13.13804626 52.99926376 C8.99540511 53.01430776 4.85313484 53.00615149 0.71047974 52.99568176 C-1.10454464 53.00776637 -1.10454464 53.00776637 -2.95623618 53.02009511 C-9.70352577 52.98006845 -14.6739707 52.68464062 -19.85072327 47.90943909 C-20.32896545 47.32162659 -20.80720764 46.73381409 -21.29994202 46.12818909 C-21.79107483 45.54037659 -22.28220764 44.95256409 -22.78822327 44.34693909 C-26.26785046 39.35985126 -25.25230118 32.74969494 -25.29994202 26.94068909 C-25.32894592 25.78117737 -25.35794983 24.62166565 -25.38783264 23.42701721 C-25.43812251 16.6224118 -25.28584383 11.1108402 -20.98744202 5.62818909 C-14.72372338 -0.12938532 -8.14350832 -0.07970629 0 0 Z " fill="#CBE1EC" transform="translate(32.98744201660156,451.37181091308594)"/>
<path d="M0 0 C0.77470642 -0.00960754 1.54941284 -0.01921509 2.34759521 -0.02911377 C3.17680481 -0.03336365 4.0060144 -0.03761353 4.86035156 -0.04199219 C5.72356018 -0.04769226 6.5867688 -0.05339233 7.47613525 -0.05926514 C9.3017861 -0.06870013 11.12745385 -0.07524315 12.953125 -0.07910156 C15.72719568 -0.08878418 18.50051784 -0.11981202 21.27441406 -0.15136719 C23.05305552 -0.15790027 24.83170225 -0.16314954 26.61035156 -0.16699219 C27.43146423 -0.17933899 28.2525769 -0.19168579 29.09857178 -0.20440674 C34.95963263 -0.18206546 40.93244916 0.46051027 45.5302124 4.50701904 C48.92129078 8.36010474 51.00097656 12.01516076 51.00097656 17.16113281 C52.18856567 17.13756714 52.18856567 17.13756714 53.40014648 17.11352539 C56.99618351 17.05106582 60.59210626 17.01210646 64.18847656 16.97363281 C65.43435547 16.94849609 66.68023437 16.92335938 67.96386719 16.89746094 C69.16591797 16.88779297 70.36796875 16.878125 71.60644531 16.86816406 C72.71141357 16.85245361 73.81638184 16.83674316 74.95483398 16.82055664 C78.41679592 17.2076238 80.22975594 18.08248932 83.00097656 20.16113281 C86.03335097 24.70969442 85.32990836 29.18594063 85.31347656 34.53613281 C85.32958984 35.57769531 85.34570312 36.61925781 85.36230469 37.69238281 C85.36845422 47.31024596 85.36845422 47.31024596 82.00097656 51.16113281 C79.13079215 52.59622502 76.66553934 52.27271787 73.46191406 52.25878906 C71.50898438 52.25395508 71.50898438 52.25395508 69.51660156 52.24902344 C68.13639257 52.24066747 66.75618424 52.23220252 65.37597656 52.22363281 C63.98795731 52.21861782 62.59993634 52.21405492 61.21191406 52.20996094 C57.80822524 52.19814257 54.40462217 52.18166715 51.00097656 52.16113281 C51.00985901 52.83241211 51.01874146 53.50369141 51.02789307 54.1953125 C51.11662151 61.20352637 51.17681687 68.21157976 51.22070312 75.22021484 C51.2407759 77.83323654 51.26804014 80.44621356 51.30273438 83.05908203 C51.35144091 86.82237803 51.37398967 90.5850783 51.39160156 94.34863281 C51.4122467 95.51040039 51.43289185 96.67216797 51.4541626 97.86914062 C51.45637132 105.91477486 50.47109621 111.49822874 44.75097656 117.53613281 C38.642138 121.14590105 32.07240814 121.47012563 25.15332031 121.46191406 C24.3377919 121.46619919 23.52226349 121.47048431 22.68202209 121.47489929 C20.9702344 121.48060426 19.25842249 121.48117139 17.54663086 121.47680664 C14.94179799 121.47363685 12.33809219 121.49718694 9.73339844 121.52246094 C8.06087381 121.52473351 6.38834617 121.52543762 4.71582031 121.52441406 C3.94584213 121.53362381 3.17586395 121.54283356 2.3825531 121.55232239 C-4.1305579 121.49708453 -8.77579619 120.08792976 -13.81152344 115.72363281 C-16.78844902 112.23637713 -18.24446089 109.6535475 -18.26644897 105.04472351 C-18.27497894 104.23316803 -18.28350891 103.42161255 -18.29229736 102.58546448 C-18.29139099 101.70382126 -18.29048462 100.82217804 -18.28955078 99.91381836 C-18.29626801 98.97838196 -18.30298523 98.04294556 -18.30990601 97.0791626 C-18.32891052 93.98533827 -18.33281159 90.89173064 -18.33496094 87.79785156 C-18.34138765 85.64557303 -18.34811591 83.49329537 -18.35513306 81.34101868 C-18.36711232 76.82766698 -18.37081326 72.31439186 -18.36962891 67.80102539 C-18.3694258 62.02397805 -18.39671714 56.24742308 -18.43117332 50.47049236 C-18.45343696 46.0240301 -18.45746659 41.57768638 -18.45640945 37.13117409 C-18.45876663 35.00176104 -18.46759668 32.87234478 -18.48307419 30.74298668 C-18.50272083 27.76052 -18.49690076 24.77911549 -18.48486328 21.79663086 C-18.49610229 20.92106033 -18.50734131 20.04548981 -18.5189209 19.14338684 C-18.45939487 13.32477074 -17.37896867 9.93415486 -13.99902344 5.16113281 C-9.42389883 1.53915917 -5.75695252 0.05801275 0 0 Z " fill="#65CAA4" transform="translate(418.9990234375,58.8388671875)"/>
<path d="M0 0 C2.63245821 2.74214397 2.96875 4.86624476 2.96875 8.58984375 C1.96425393 11.91723699 1.65305766 12.89344253 -1.03125 14.90234375 C-3.81640625 15.5625 -3.81640625 15.5625 -7.09375 15.96484375 C-8.2590625 16.12339844 -9.424375 16.28195313 -10.625 16.4453125 C-11.7490625 16.59613281 -12.873125 16.74695313 -14.03125 16.90234375 C-31.10946192 19.63988066 -47.33405583 26.45600467 -58.25927734 40.47851562 C-67.39011405 53.11054082 -73.44794188 66.91181904 -73.34375 82.65234375 C-73.33883545 83.53341797 -73.3339209 84.41449219 -73.32885742 85.32226562 C-73.20558119 92.20550446 -72.34680418 98.38691803 -70.03125 104.90234375 C-69.70253906 105.87042969 -69.37382813 106.83851563 -69.03515625 107.8359375 C-62.01566363 126.51410297 -48.94277958 138.78351408 -31.07080078 147.02197266 C-15.05742358 153.93413907 4.44093394 152.32202116 20.40625 146.27734375 C27.37758672 143.47449814 33.21859841 139.77142373 38.96875 134.90234375 C39.68546875 134.29777344 40.4021875 133.69320312 41.140625 133.0703125 C53.10736167 122.05442119 60.5656253 105.75730921 61.2421875 89.59375 C61.54202085 76.50991881 60.89516855 65.75518084 54.96875 53.90234375 C54.28214402 46.9218496 54.28214402 46.9218496 57.03125 42.83984375 C59.96875 40.90234375 59.96875 40.90234375 63.53125 40.83984375 C67.31250212 42.0085944 68.44482502 42.94256024 70.96875 45.90234375 C72.34765625 48.53125 72.34765625 48.53125 73.53125 51.46484375 C73.92441406 52.41488281 74.31757813 53.36492187 74.72265625 54.34375 C78.08039725 63.93278464 79.42394214 72.27662511 79.28125 82.46484375 C79.28447266 83.61919922 79.28769531 84.77355469 79.29101562 85.96289062 C79.14449788 109.44568844 69.39562065 129.45210628 52.96875 145.90234375 C52.23785156 146.64484375 51.50695312 147.38734375 50.75390625 148.15234375 C33.96110318 164.16335897 11.92224497 169.3972843 -10.59375 169.11328125 C-34.02530831 168.44966019 -54.06874392 157.71211661 -70.03125 140.90234375 C-80.25358244 129.31066459 -86.18144442 115.76342122 -90.03125 100.90234375 C-90.22589844 100.16242188 -90.42054687 99.4225 -90.62109375 98.66015625 C-94.21211583 74.51480781 -88.39124702 51.37555102 -74.03125 31.90234375 C-60.39327671 14.61785354 -41.15060278 2.18186339 -19.12109375 -0.8046875 C-4.12103417 -2.22694347 -4.12103417 -2.22694347 0 0 Z " fill="#57B390" transform="translate(185.03125,44.09765625)"/>
<path d="M0 0 C2.875 1.4375 2.875 1.4375 5 4 C6.66604073 13.40822999 1.36801556 20.00295037 -3.5 27.5625 C-4.32085336 28.86928688 -5.13988207 30.17722179 -5.95703125 31.48632812 C-7.95052841 34.671199 -9.96819211 37.83944527 -12 41 C-10.36587158 41.00616333 -10.36587158 41.00616333 -8.69873047 41.01245117 C-4.63917362 41.03429807 -0.58057838 41.0886443 3.47851562 41.15258789 C5.23200228 41.17571968 6.98562692 41.19015229 8.73925781 41.19555664 C11.26714584 41.20488199 13.79287817 41.24594635 16.3203125 41.29296875 C17.09867462 41.2890361 17.87703674 41.28510345 18.6789856 41.28105164 C22.68714659 41.38740195 25.28293116 41.8166489 28.48828125 44.32739258 C31 47 31 47 31.8671875 50.46875 C31.32269781 57.19146662 26.67266297 62.96349427 23.125 68.5 C22.34002599 69.75156652 21.55658421 71.00409532 20.7746582 72.25756836 C19.2335287 74.72288244 17.68316067 77.18195815 16.12451172 79.63623047 C14.31428617 82.50238625 12.53727515 85.38329888 10.78515625 88.28515625 C10.33575684 89.02507812 9.88635742 89.765 9.42333984 90.52734375 C8.62692535 91.83886316 7.83400535 93.15251415 7.04541016 94.46875 C5.06650581 97.66983874 3.2707601 100.07876084 0 102 C-2.9375 102.5 -2.9375 102.5 -6 102 C-8.875 99.9375 -8.875 99.9375 -11 97 C-11.68208896 91.18422475 -10.10743077 87.54938405 -7.0625 82.75390625 C-6.46320679 81.76994118 -6.46320679 81.76994118 -5.85180664 80.76609802 C-4.58219515 78.68901821 -3.29165783 76.6259258 -2 74.5625 C-1.13139273 73.14996062 -0.26418975 71.73655667 0.6015625 70.32226562 C2.71825775 66.87129493 4.85381033 63.43269845 7 60 C5.87505127 60.02094727 4.75010254 60.04189453 3.59106445 60.06347656 C-0.59272474 60.13601523 -4.77645861 60.1818499 -8.96069336 60.21972656 C-10.7697078 60.23981053 -12.57865757 60.26708341 -14.38745117 60.30175781 C-16.99153621 60.35041892 -19.59476115 60.37300051 -22.19921875 60.390625 C-23.40731453 60.42159271 -23.40731453 60.42159271 -24.63981628 60.45318604 C-28.6296673 60.45477127 -30.53363368 60.29650486 -33.98754883 58.10058594 C-36.3314932 55.65398914 -36.92386302 54.67497065 -37.30249023 51.31835938 C-36.92493047 47.17647701 -35.30280344 44.36371925 -33.16015625 40.90625 C-32.75977646 40.23766968 -32.35939667 39.56908936 -31.94688416 38.88024902 C-30.6642808 36.74586099 -29.36360505 34.6231482 -28.0625 32.5 C-27.22214556 31.10486577 -26.38294239 29.7090374 -25.54492188 28.3125 C-23.06148354 24.18859929 -20.53929095 20.08970265 -18 16 C-17.58014832 15.32179199 -17.16029663 14.64358398 -16.72772217 13.94482422 C-15.51261633 11.98934883 -14.28772216 10.04043506 -13.05859375 8.09375 C-12.69339127 7.50646118 -12.32818878 6.91917236 -11.95191956 6.31408691 C-8.6744288 1.17679489 -6.19156162 -0.74298739 0 0 Z " fill="#58B491" transform="translate(182,77)"/>
<path d="M0 0 C1.24136719 -0.020625 2.48273438 -0.04125 3.76171875 -0.0625 C4.95925781 -0.06765625 6.15679687 -0.0728125 7.390625 -0.078125 C8.48922852 -0.0874707 9.58783203 -0.09681641 10.71972656 -0.10644531 C14.16293184 0.29857239 15.98912627 1.18388362 18.75 3.25 C21.78237441 7.79856161 21.07893179 12.27480782 21.0625 17.625 C21.07861328 18.6665625 21.09472656 19.708125 21.11132812 20.78125 C21.11747765 30.39911315 21.11747765 30.39911315 17.75 34.25 C14.8280231 35.71098845 12.25106525 35.36134901 8.9921875 35.34765625 C7.99761032 35.34553383 7.99761032 35.34553383 6.98294067 35.34336853 C4.86358137 35.33776754 2.74432741 35.325215 0.625 35.3125 C-0.81119639 35.30748512 -2.24739444 35.30292219 -3.68359375 35.29882812 C-7.20576345 35.28779782 -10.72787145 35.27053259 -14.25 35.25 C-14.2746519 30.42619198 -14.29283693 25.60242033 -14.30493164 20.77856445 C-14.30997174 19.13630536 -14.31680378 17.49405077 -14.32543945 15.85180664 C-14.33751926 13.49624521 -14.34323139 11.14074291 -14.34765625 8.78515625 C-14.35281754 8.04660904 -14.35797882 7.30806183 -14.36329651 6.5471344 C-14.3634925 4.78101912 -14.31194719 3.01502854 -14.25 1.25 C-11.55717281 -1.44282719 -3.62375698 0.0148667 0 0 Z " fill="#56B38F" transform="translate(483.25,75.75)"/>
<path d="M0 0 C5.44239426 2.27328327 9.61208552 5.52769598 12 11 C12.74349204 16.63040323 12.801592 21.33743881 10.3125 26.5 C6.56642762 30.54980797 3.39940232 33.64309201 -2.26953125 34.23828125 C-8.08127736 34.4079021 -11.45980104 33.99969908 -16 30 C-20.82911404 24.51830298 -21.36430815 21.19212917 -21.26953125 13.98046875 C-20.82499028 9.06474762 -18.95671152 6.65635851 -15.26953125 3.53515625 C-10.38951064 0.01881405 -5.94345189 -1.28619203 0 0 Z " fill="#CBE1EC" transform="translate(269,273)"/>
<path d="M0 0 C4.18593112 2.35356828 7.11473759 4.89488732 8.875 9.4375 C9.71462128 14.90618375 9.81474637 20.38948994 7.3125 25.4375 C3.73369034 29.84218881 0.74722562 32.03254959 -4.8125 32.81640625 C-10.75092849 33.06653028 -14.55944935 32.55763108 -19.125 28.4375 C-23.91169811 23.00395079 -24.54669201 19.64878317 -24.4609375 12.48828125 C-23.96549313 7.98895502 -22.52513366 5.38592508 -19.125 2.4375 C-12.96384699 -1.88046289 -7.06621186 -3.0567321 0 0 Z " fill="#CBE1EC" transform="translate(272.125,342.5625)"/>
</svg>
