<?xml version="1.0" encoding="UTF-8"?>
<svg version="1.1" xmlns="http://www.w3.org/2000/svg" width="512" height="512">
<path d="M0 0 C1.77494012 -0.00435239 3.54987836 -0.0095373 5.32481384 -0.01548767 C10.12660769 -0.02883318 14.92832262 -0.02946123 19.73013139 -0.02692437 C23.74823404 -0.02585149 27.76632093 -0.03074622 31.78442019 -0.03552979 C41.26970368 -0.04660993 50.75494756 -0.04707101 60.24023438 -0.04101562 C70.00309557 -0.03497854 79.76581255 -0.04728357 89.52864915 -0.06858569 C97.93065645 -0.08623981 106.33261801 -0.09219699 114.73464316 -0.08894795 C119.74391491 -0.08714078 124.7530838 -0.08971436 129.76233864 -0.10366249 C134.47628652 -0.11629809 139.19001075 -0.11424283 143.90395546 -0.1012516 C145.62597227 -0.09889859 147.3480051 -0.10157435 149.07000351 -0.10987473 C168.63266221 -0.19731129 185.00656154 4.33111996 199.45019531 17.99536133 C211.8388543 30.40316817 217.70249305 46.25253641 217.73381883 63.48505139 C217.73018627 64.98997368 217.72636194 66.49489552 217.72236633 67.99981689 C217.72538888 69.61096777 217.72927888 71.2221172 217.7339589 72.83326411 C217.74423457 77.25006213 217.74205816 81.66677893 217.73777831 86.08358359 C217.73531027 90.85127877 217.74432628 95.61895443 217.7518158 100.38664246 C217.76456319 109.72353177 217.76635639 119.06039233 217.76401553 128.39728889 C217.76223206 135.98805537 217.76398264 143.57881312 217.76823997 151.16957855 C217.76883516 152.2501962 217.76943035 153.33081385 217.77004358 154.44417749 C217.77125534 156.63952345 217.77246948 158.8348694 217.77368595 161.03021535 C217.7845619 181.61761355 217.78239889 202.20499537 217.77630111 222.79239449 C217.77113335 241.61755808 217.78238359 260.4426699 217.80139933 279.26782325 C217.82078216 298.60491156 217.82903285 317.94197539 217.82527608 337.27907348 C217.82336453 348.13233757 217.82584702 358.98555762 217.83999062 369.83881378 C217.85191113 379.07961111 217.85330184 388.3203373 217.84120045 397.56113562 C217.83531617 402.27349416 217.83419985 406.9857226 217.84620285 411.69807243 C217.85707651 416.01735144 217.85394069 420.33639196 217.83994117 424.65565988 C217.83729829 426.21282439 217.83964783 427.77000767 217.84767703 429.32715371 C217.93890154 448.34890514 212.93702883 464.31443356 199.7409668 478.26318359 C186.52221055 491.46154053 170.12497836 496.51226054 151.92523193 496.55682373 C150.25793427 496.55453044 148.59063689 496.55202081 146.92333984 496.54931641 C145.14839972 496.5536688 143.37346148 496.5588537 141.598526 496.56480408 C136.79673215 496.57814959 131.99501723 496.57877764 127.19320846 496.57624078 C123.1751058 496.57516789 119.15701891 496.58006262 115.13891965 496.5848462 C105.65363617 496.59592634 96.16839229 496.59638741 86.68310547 496.59033203 C76.92024427 496.58429495 67.15752729 496.59659998 57.39469069 496.6179021 C48.99268339 496.63555621 40.59072183 496.6415134 32.18869668 496.63826436 C27.17942494 496.63645719 22.17025604 496.63903077 17.16100121 496.6529789 C12.44705332 496.6656145 7.73332909 496.66355924 3.01938438 496.65056801 C1.29736758 496.64821499 -0.42466525 496.65089075 -2.14666367 496.65919113 C-21.70932236 496.7466277 -38.0832217 492.21819644 -52.52685547 478.55395508 C-64.92429314 466.13735599 -70.77606323 450.28493224 -70.81514108 433.04275399 C-70.81219932 431.53459054 -70.80906393 430.02642746 -70.80575562 428.51826477 C-70.80949474 426.90370143 -70.81409731 425.2891399 -70.81948626 423.67458123 C-70.83169933 419.24831622 -70.83145779 414.82212688 -70.82909751 410.39584887 C-70.82868891 405.61790661 -70.83973262 400.83998848 -70.84921265 396.0620575 C-70.86581459 386.70478299 -70.87132184 377.34753368 -70.8724374 367.99024568 C-70.87338831 360.38232493 -70.87750071 352.77441249 -70.88383865 345.16649437 C-70.90144925 323.58729783 -70.91067787 302.00812117 -70.90917771 280.42891739 C-70.90909779 279.26595375 -70.90901788 278.10299011 -70.90893555 276.90478516 C-70.90885379 275.74039821 -70.90877202 274.57601127 -70.90868779 273.37633988 C-70.90787505 254.50980578 -70.92701013 235.64335155 -70.95521228 216.77684055 C-70.98395466 197.39567613 -70.99775181 178.01455065 -70.99602473 158.63336438 C-70.99536127 147.75601814 -71.0008341 136.87875562 -71.02238083 126.0014286 C-71.04061046 116.73941937 -71.04492533 107.4775318 -71.03136198 98.21551237 C-71.02484123 93.49286466 -71.02468285 88.77045024 -71.04206848 84.04782486 C-71.05784385 79.71794854 -71.05489026 75.38848963 -71.03750022 71.05862322 C-71.03444011 69.49874715 -71.03802514 67.93883959 -71.04922037 66.3790007 C-71.17263732 47.95132924 -65.58390927 31.92730432 -52.86816406 18.38745117 C-38.0005265 3.38109943 -20.1774776 -0.03272844 0 0 Z M-42.78833008 33.5871582 C-50.7098225 42.84993919 -53.53833008 52.14883027 -53.53833008 64.2746582 C30.28166992 64.2746582 114.10166992 64.2746582 200.46166992 64.2746582 C200.46166992 49.80890125 195.90707758 40.04202565 186.14916992 29.5246582 C172.24399882 16.33496571 155.9127794 16.12240693 137.84521484 16.12939453 C136.28849711 16.12639699 134.73178012 16.1229931 133.17506409 16.11921692 C128.97243406 16.11043385 124.76982444 16.10804124 120.56718612 16.10740113 C117.93478102 16.10668746 115.30238101 16.10454717 112.66997719 16.10190392 C103.46731872 16.09266975 94.26467467 16.08856666 85.06201172 16.08935547 C76.51421108 16.08995593 67.96647361 16.07940533 59.41868895 16.06361181 C52.05358626 16.05049346 44.6885041 16.04517336 37.32338983 16.04581088 C32.93618913 16.04606458 28.54904465 16.0432845 24.1618557 16.03263283 C20.03232441 16.02287906 15.90290229 16.02292199 11.77336693 16.03014946 C10.26785114 16.03118628 8.76232829 16.02888688 7.25682449 16.022789 C-12.91118716 15.94646559 -28.55279563 18.49855802 -42.78833008 33.5871582 Z M-54.53833008 80.2746582 C-54.53833008 180.5946582 -54.53833008 280.9146582 -54.53833008 384.2746582 C29.94166992 384.2746582 114.42166992 384.2746582 201.46166992 384.2746582 C201.46166992 283.9546582 201.46166992 183.6346582 201.46166992 80.2746582 C116.98166992 80.2746582 32.50166992 80.2746582 -54.53833008 80.2746582 Z M-54.53833008 400.2746582 C-56.07549435 437.04743948 -56.07549435 437.04743948 -39.43676758 466.4387207 C-25.47730995 479.60895105 -9.29203569 480.42696457 8.96459961 480.41992188 C10.52116984 480.42291859 12.07773933 480.42632229 13.63430786 480.43009949 C17.84112919 480.43889191 22.04793015 480.4412756 26.25475979 480.44191527 C28.88933712 480.44262852 31.52390935 480.44476804 34.15848541 480.44741249 C43.36762315 480.45665043 52.57674646 480.46074936 61.78588867 480.45996094 C70.34105292 480.45936068 78.89615401 480.4699063 87.45130229 480.4857046 C94.82063107 480.49882333 102.18993932 480.50414302 109.55927968 480.50350553 C113.94984872 480.5032518 118.34036158 480.50603343 122.73091888 480.51668358 C126.86454076 480.52643773 130.99805358 480.52639416 135.13167953 480.51916695 C136.63880703 480.51813011 138.14594158 480.52042965 139.6530571 480.5265274 C158.45850387 480.59761611 173.75084863 478.64726083 187.62573242 465.1730957 C204.9185624 446.84399127 201.46166992 424.78428656 201.46166992 400.2746582 C116.98166992 400.2746582 32.50166992 400.2746582 -54.53833008 400.2746582 Z " fill="#000000" transform="translate(182.538330078125,7.725341796875)"/>
<path d="M0 0 C5.82485779 3.51996782 10.54466582 8.98962934 12.5625 15.5 C13.36764105 23.33608208 13.68710392 31.11922577 8.5625 37.5 C3.75801361 42.54521222 -0.59927055 46.10562995 -7.70703125 46.8359375 C-16.22326573 46.92983204 -22.11345494 46.6177288 -28.40234375 40.62890625 C-34.7841668 33.72505269 -35.91792252 28.29832071 -35.7421875 18.9453125 C-35.04689797 11.08319245 -31.38995981 6.95041296 -25.53515625 1.9453125 C-18.47077988 -2.92213491 -7.84396301 -3.47595223 0 0 Z M-16.8125 17.125 C-18.92456506 20.21186432 -19.04945145 21.8282913 -18.4375 25.5 C-16.9375 28 -16.9375 28 -14.4375 29.5 C-10.7657913 30.11195145 -9.14936432 29.98706506 -6.0625 27.875 C-3.95043494 24.78813568 -3.82554855 23.1717087 -4.4375 19.5 C-5.9375 17 -5.9375 17 -8.4375 15.5 C-12.1092087 14.88804855 -13.72563568 15.01293494 -16.8125 17.125 Z " fill="#000000" transform="translate(267.4375,425.5)"/>
<path d="M0 0 C1.10794922 -0.01260864 2.21589844 -0.02521729 3.35742188 -0.03820801 C4.54916016 -0.03011108 5.74089844 -0.02201416 6.96875 -0.01367188 C8.19658203 -0.01749878 9.42441406 -0.02132568 10.68945312 -0.02526855 C13.28516459 -0.02799029 15.88090336 -0.02061099 18.4765625 -0.00390625 C22.45374599 0.01749738 26.42912282 -0.0037015 30.40625 -0.02929688 C32.92708733 -0.02665365 35.44792353 -0.02152878 37.96875 -0.01367188 C39.16048828 -0.0217688 40.35222656 -0.02986572 41.58007812 -0.03820801 C43.24200195 -0.01929504 43.24200195 -0.01929504 44.9375 0 C45.91138672 0.00318237 46.88527344 0.00636475 47.88867188 0.00964355 C51.19021681 0.65961178 52.38452655 1.93295409 54.46875 4.51757812 C55 6.51757812 55 6.51757812 54.96875 8.51757812 C54.98421875 9.50757813 54.98421875 9.50757813 55 10.51757812 C54.2245785 13.43681202 52.78007479 14.6111988 50.46875 16.51757812 C47.88867188 17.0255127 47.88867188 17.0255127 44.9375 17.03515625 C43.82955078 17.04776489 42.72160156 17.06037354 41.58007812 17.07336426 C40.38833984 17.06526733 39.19660156 17.05717041 37.96875 17.04882812 C36.12700195 17.05456848 36.12700195 17.05456848 34.24804688 17.0604248 C31.65233541 17.06314654 29.05659664 17.05576724 26.4609375 17.0390625 C22.48375401 17.01765887 18.50837718 17.03885775 14.53125 17.06445312 C12.01041267 17.0618099 9.48957647 17.05668503 6.96875 17.04882812 C5.77701172 17.05692505 4.58527344 17.06502197 3.35742188 17.07336426 C1.69549805 17.05445129 1.69549805 17.05445129 0 17.03515625 C-0.97388672 17.03197388 -1.94777344 17.0287915 -2.95117188 17.0255127 C-6.25271681 16.37554447 -7.44702655 15.10220216 -9.53125 12.51757812 C-10.0625 10.51757812 -10.0625 10.51757812 -10.03125 8.51757812 C-10.04671875 7.52757812 -10.04671875 7.52757812 -10.0625 6.51757812 C-8.67664018 1.3002235 -4.95665502 0.01619688 0 0 Z " fill="#000000" transform="translate(233.53125,39.482421875)"/>
</svg>
