<?xml version="1.0" encoding="UTF-8"?>
<svg version="1.1" xmlns="http://www.w3.org/2000/svg" width="512" height="512">
<path d="M0 0 C0.76691162 0.01208496 1.53382324 0.02416992 2.32397461 0.03662109 C15.29874065 0.48557494 26.40511394 5.96690663 35.28515625 15.390625 C39.08442109 20.06398038 41.9944398 25.29841292 45 30.5 C45.515625 31.38623047 46.03125 32.27246094 46.5625 33.18554688 C51.07237007 40.93944849 55.54219515 48.71610057 60 56.5 C60.32909363 57.07461975 60.65818726 57.6492395 60.99725342 58.24127197 C66.34409502 67.57921833 71.67762863 76.92475304 77.01037598 86.27075195 C79.02721784 89.80528255 81.04457158 93.33952014 83.06253052 96.87341309 C84.05376232 98.60969472 85.04434015 100.34634965 86.03491211 102.08300781 C89.44702234 108.05853724 92.87816157 114.02184848 96.33984375 119.96875 C97.04488335 121.18210401 97.74988078 122.39548252 98.45483398 123.60888672 C99.79203165 125.91026157 101.13480326 128.20806997 102.48071289 130.50439453 C103.37197876 132.03749268 103.37197876 132.03749268 104.28125 133.6015625 C104.80783203 134.50213379 105.33441406 135.40270508 105.87695312 136.33056641 C107 138.5 107 138.5 107 140.5 C107.61746094 140.52578125 108.23492187 140.5515625 108.87109375 140.578125 C120.85940052 141.38099486 130.99621137 147.015602 139.25 155.6875 C147.53885246 165.47891336 150.30733168 176.74662621 150.3359375 189.25390625 C150.3425943 190.27298569 150.3492511 191.29206512 150.35610962 192.34202576 C150.36619687 194.48768315 150.37092786 196.63337166 150.37060547 198.77905273 C150.3749909 202.05569964 150.41138662 205.33101176 150.44921875 208.60742188 C150.45508532 210.69791208 150.45905578 212.78840866 150.4609375 214.87890625 C150.48249405 216.34161705 150.48249405 216.34161705 150.50448608 217.83387756 C150.46629721 223.53080155 149.9840007 227.08554506 146 231.5 C142.18817931 234.20233271 137.89656359 233.79251229 133.41455078 233.78710938 C132.54887985 233.79394241 131.68320892 233.80077545 130.79130554 233.80781555 C128.91161823 233.82139889 127.03189401 233.83045517 125.15216446 233.83552551 C122.16543106 233.84383312 119.17900072 233.86436152 116.19235229 233.88806152 C109.83661352 233.93629382 103.48084374 233.96915513 97.125 234 C89.79026889 234.0358118 82.4556831 234.07810077 75.12108994 234.13594055 C72.20001935 234.15579324 69.27906416 234.16428861 66.35794067 234.17224121 C39.78584286 234.32403503 16.40432471 239.72162317 -4 257.5 C-4.97839844 258.27730469 -5.95679688 259.05460937 -6.96484375 259.85546875 C-10.07075151 262.44331562 -12.57454219 265.40252987 -15 268.625 C-15.43078857 269.193396 -15.86157715 269.76179199 -16.30541992 270.34741211 C-30.74550331 289.78796757 -37.53595359 313.82674714 -34.71582031 337.92871094 C-30.9642223 362.72144313 -18.23674276 385.36737353 2 400.5 C21.20881944 413.87522448 40.69834047 417.94785021 63.78041077 417.91069031 C66.85019096 417.90614799 69.91941405 417.92038633 72.98913574 417.93908691 C80.59901237 417.98173599 88.2088724 417.99313432 95.81884766 418.00531006 C102.28429779 418.01685381 108.74948735 418.04042373 115.21482849 418.08000183 C118.22996139 418.09352005 121.24473669 418.08941393 124.2598877 418.08459473 C126.11141411 418.09393534 127.9629366 418.10410416 129.81445312 418.11523438 C130.64468994 418.10908615 131.47492676 418.10293793 132.33032227 418.09660339 C138.29704792 418.15944149 143.08479799 419.1678384 147.875 423 C149.97741059 425.80321411 150.13398541 428.48650454 150.17700195 431.85693359 C150.18983719 432.7357016 150.20267242 433.6144696 150.21589661 434.51986694 C150.22697701 435.94475937 150.22697701 435.94475937 150.23828125 437.3984375 C150.246353 438.38437897 150.25442474 439.37032043 150.26274109 440.38613892 C150.27658232 442.47925053 150.2873043 444.57238473 150.29516602 446.66552734 C150.30662568 448.7873403 150.32698064 450.90912581 150.35668945 453.03076172 C150.58187577 469.11585819 150.1960938 482.2673646 140 495.5 C139.38125 496.386875 138.7625 497.27375 138.125 498.1875 C130.75956007 506.20283168 120.41941014 511.96898625 109.48112506 512.751849 C108.22853233 512.75271577 106.9759396 512.75358255 105.68538952 512.75447559 C104.62675548 512.75928531 104.62675548 512.75928531 103.5467349 512.76419219 C101.18790788 512.77247659 98.82933581 512.76657344 96.47050476 512.76069641 C94.75979645 512.76371781 93.0490895 512.76760724 91.33838493 512.77228898 C86.64183009 512.78257928 81.9453515 512.78038451 77.24879038 512.77610838 C72.18186342 512.77364302 67.1149549 512.782653 62.04803467 512.79014587 C52.12279332 512.80290044 42.19757901 512.8046856 32.27233084 512.80234561 C24.20478806 512.80056304 16.13725349 512.80231078 8.06971169 512.80657005 C6.3478028 512.80746284 6.3478028 512.80746284 4.59110788 512.80837366 C2.25910093 512.8095854 -0.07290602 512.81079954 -2.40491297 512.81201603 C-24.27890317 512.82289461 -46.15287795 512.82072765 -68.02686902 512.81463119 C-88.03682043 512.80946245 -108.04672315 512.82071577 -128.05666492 512.83972941 C-148.6028249 512.85910288 -169.14896183 512.86736462 -189.695131 512.86360615 C-201.23021972 512.86169328 -212.76526701 512.86419008 -224.30034828 512.87832069 C-234.12093485 512.89022924 -243.94145448 512.89164531 -253.76204196 512.87953053 C-258.77185719 512.87363801 -263.78154994 512.87255276 -268.79135704 512.88453293 C-273.38011152 512.8953786 -277.96864109 512.89230396 -282.55738499 512.87827124 C-284.21481231 512.87562069 -285.87225719 512.87800212 -287.5296673 512.88600711 C-302.49903224 512.95327122 -314.14921621 510.67839867 -325.51953125 500.171875 C-335.9375036 489.18376486 -339.3056921 478.2046442 -339.27415466 463.39450073 C-339.27939134 462.17670996 -339.28462802 460.95891918 -339.29002339 459.70422566 C-339.30240638 456.33600163 -339.30586757 452.96798665 -339.30542648 449.59975433 C-339.30707883 445.96222032 -339.3201532 442.32472394 -339.33161926 438.68721008 C-339.3544368 430.73865863 -339.36238648 422.79013393 -339.36744571 414.84155416 C-339.37070672 409.87424543 -339.37723167 404.90694441 -339.3844471 399.93964005 C-339.40400935 386.17454974 -339.42041557 372.4094666 -339.42332363 358.6443615 C-339.4235112 357.76406189 -339.42369877 356.88376228 -339.42389202 355.97678692 C-339.42425827 354.19236096 -339.42462196 352.407935 -339.42498314 350.62350903 C-339.42516595 349.73777058 -339.42534876 348.85203213 -339.42553711 347.93945312 C-339.42571766 347.05262785 -339.42589821 346.16580258 -339.42608423 345.25210382 C-339.42962422 330.88940878 -339.45663736 316.52686381 -339.494035 302.1642208 C-339.53216255 287.4025764 -339.55148144 272.64100639 -339.55178314 257.87931168 C-339.55236674 249.59750432 -339.56079527 241.31587598 -339.58978081 233.03411484 C-339.61435437 225.98072487 -339.62153752 218.92757921 -339.60653328 211.87415795 C-339.59938845 208.27949697 -339.60011551 204.68531784 -339.62294388 201.09071159 C-339.64752318 197.18273085 -339.63282993 193.27542868 -339.61473083 189.36740112 C-339.6279308 188.24664936 -339.64113077 187.1258976 -339.65473074 185.97118366 C-339.51182572 172.39289245 -334.17038064 161.98272677 -324.9375 152.34765625 C-313.71045649 141.58172345 -300.89694863 139.26950243 -285.85546875 139.54296875 C-256.70632582 140.37473095 -256.70632582 140.37473095 -231.45654297 127.35693359 C-227.0018734 123.98958945 -222.10347326 121.3687252 -217.25 118.625 C-215.22907074 117.45031853 -213.20954757 116.27321482 -211.19140625 115.09375 C-205.94688028 112.04505206 -200.6909961 109.0164234 -195.43261719 105.99169922 C-185.41397197 100.22864164 -175.43376841 94.40828702 -165.5 88.5 C-151.33561634 80.07702466 -137.06119756 71.85174302 -122.77050781 63.64550781 C-110.63413471 56.67323665 -98.53042235 49.65383255 -86.5 42.5 C-75.5585574 35.993724 -64.56305884 29.58915505 -53.51953125 23.2578125 C-49.58780309 21.00107318 -45.67092886 18.72239013 -41.77168274 16.41020203 C-40.02244642 15.37354508 -38.27054709 14.34153696 -36.51782227 13.31079102 C-34.33200092 12.02339462 -32.15107506 10.72763153 -29.97631836 9.42163086 C-20.53398429 3.88552537 -11.10713115 -0.28954326 0 0 Z M-40.92578125 44.28125 C-47.59863699 48.2771247 -54.32009642 52.18501736 -61.0625 56.0625 C-62.13105225 56.67754395 -63.19960449 57.29258789 -64.30053711 57.92626953 C-68.6089684 60.40447011 -72.9192712 62.87940611 -77.22949219 65.35449219 C-89.36586529 72.32676335 -101.46957765 79.34616745 -113.5 86.5 C-125.52591697 93.65115345 -137.62528169 100.66744262 -149.75732422 107.63671875 C-158.42220182 112.61566362 -167.07825134 117.60993213 -175.73046875 122.61083984 C-177.97728132 123.90906533 -180.2246062 125.20636373 -182.47265625 126.50244141 C-185.85938575 128.45545326 -189.24233614 130.41495414 -192.625 132.375 C-193.66930176 132.97642822 -194.71360352 133.57785645 -195.78955078 134.19750977 C-197.21243408 135.02400024 -197.21243408 135.02400024 -198.6640625 135.8671875 C-199.50404785 136.35300293 -200.3440332 136.83881836 -201.20947266 137.33935547 C-201.80034668 137.72236816 -202.3912207 138.10538086 -203 138.5 C-203 138.83 -203 139.16 -203 139.5 C-176.49865384 141.3636419 -157.04022363 142.19057817 -135.1484375 125.7578125 C-130.25781623 122.25064241 -125.03656791 119.38553762 -119.77581787 116.48361206 C-116.82744662 114.85053157 -113.90222413 113.17723172 -110.9765625 111.50390625 C-110.39866974 111.17403214 -109.82077698 110.84415802 -109.22537231 110.50428772 C-102.90025414 106.88584038 -96.63626159 103.16512007 -90.375 99.4375 C-76.25457633 91.03114588 -62.02106217 82.82869581 -47.77050781 74.64550781 C-32.11767745 65.65305374 -16.5521773 56.52780973 -1.03613281 47.30224609 C3.36488244 44.68980684 7.77480697 42.09265328 12.1875 39.5 C12.89463135 39.08451904 13.6017627 38.66903809 14.33032227 38.2409668 C15.88665428 37.32692419 17.44328487 36.41338998 19 35.5 C14.86065754 28.67670032 10.36785264 25.86916512 2.6875 23.91015625 C-11.98070362 22.4978461 -29.0471979 37.16664995 -40.92578125 44.28125 Z M46.96875 100.21875 C45.94386475 100.81341064 44.91897949 101.40807129 43.86303711 102.02075195 C42.75323486 102.67390381 41.64343262 103.32705566 40.5 104 C39.33824312 104.67779239 38.17621043 105.35511222 37.01391602 106.03198242 C33.33635637 108.17740598 29.66721303 110.33694903 26 112.5 C25.40338562 112.85177307 24.80677124 113.20354614 24.19207764 113.565979 C17.86260079 117.29939065 11.54154503 121.04680031 5.2265625 124.8046875 C1.33538831 127.11890588 -2.56337258 129.41852118 -6.4765625 131.6953125 C-7.28343506 132.16541748 -8.09030762 132.63552246 -8.92163086 133.11987305 C-10.3893972 133.97339475 -11.85886015 134.82400824 -13.33032227 135.67114258 C-14.9031118 136.58676758 -16.45464981 137.53878782 -18 138.5 C-18 138.83 -18 139.16 -18 139.5 C13.68 139.5 45.36 139.5 78 139.5 C76.519584 135.058752 75.29877427 131.98824359 72.98828125 128.0859375 C72.09786133 126.57193359 72.09786133 126.57193359 71.18945312 125.02734375 C70.57005859 123.98707031 69.95066406 122.94679688 69.3125 121.875 C68.10026042 119.8203125 66.88802083 117.765625 65.67578125 115.7109375 C65.0720166 114.69870117 64.46825195 113.68646484 63.84619141 112.64355469 C62.5652655 110.46249122 61.31426613 108.26368328 60.08740234 106.05175781 C59.47461426 104.95444336 58.86182617 103.85712891 58.23046875 102.7265625 C57.68156982 101.72447754 57.1326709 100.72239258 56.56713867 99.68994141 C56.04998291 98.96726074 55.53282715 98.24458008 55 97.5 C51.40753377 97.5 50.05283963 98.41767693 46.96875 100.21875 Z " fill="#000000" transform="translate(339,-0.5)"/>
<path d="M0 0 C2.22333942 -0.00456852 4.44667743 -0.00987608 6.67001343 -0.0158844 C11.31131763 -0.02478159 15.95244943 -0.02242956 20.59375 -0.01245117 C26.5227491 -0.00094211 32.4511543 -0.02122049 38.38007545 -0.05036831 C42.96476985 -0.06876274 47.54932259 -0.06843175 52.13404465 -0.06273079 C54.31958222 -0.0625781 56.50512971 -0.06857873 58.69063187 -0.08102226 C61.75067159 -0.09599884 64.80962189 -0.0852074 67.86962891 -0.06811523 C69.20405785 -0.08261719 69.20405785 -0.08261719 70.56544495 -0.09741211 C80.84367836 0.02203183 89.85425371 4.14660071 97.0859375 11.43359375 C102.76482572 19.10678105 105.38401007 26.2542944 105.39233398 35.81884766 C105.4006575 36.63925537 105.40898102 37.45966309 105.41755676 38.30493164 C105.44157254 41.0067221 105.45042023 43.70827049 105.45703125 46.41015625 C105.4660067 48.30097522 105.4751287 50.1917935 105.48439026 52.08261108 C105.50086189 56.04516317 105.50857657 60.00763098 105.51147461 63.97021484 C105.51684461 69.0204429 105.55447529 74.06986587 105.60021877 79.11986732 C105.63013176 83.02695522 105.63720131 86.93385299 105.63820076 90.84104538 C105.64237784 92.70119269 105.65470984 94.56134191 105.67571831 96.42137527 C105.81168058 109.50448163 104.98032618 120.04750289 96.0859375 130.43359375 C93.82421875 132.34765625 93.82421875 132.34765625 91.3984375 134.05859375 C90.61082031 134.62835938 89.82320312 135.198125 89.01171875 135.78515625 C81.98620541 139.74345616 75.30138437 140.87946881 67.32202148 140.83764648 C66.39055801 140.84450974 65.45909454 140.85137299 64.49940491 140.85844421 C61.44345508 140.87662821 58.3880232 140.8728843 55.33203125 140.8671875 C53.18603857 140.87175554 51.04004735 140.87706295 48.89405823 140.8830719 C44.40123547 140.89198829 39.90859058 140.8895992 35.41577148 140.87963867 C29.69913661 140.86819142 23.98312337 140.88830316 18.26657009 140.91755581 C13.83346239 140.93604053 9.40049999 140.93560038 4.96736336 140.92991829 C2.86214391 140.92976635 0.75691379 140.93570327 -1.34826851 140.94820976 C-23.59683122 141.06171124 -43.31425977 137.45676444 -59.90795898 121.56542969 C-74.70414371 106.8022212 -81.67864575 89.25056442 -81.94140625 68.48779297 C-81.68598742 49.29945367 -73.05029809 32.03433555 -59.9140625 18.43359375 C-41.85473911 2.32596194 -23.07799649 -0.04164254 0 0 Z M-28.8515625 55.30859375 C-33.2159397 61.92128648 -35.02359435 67.56824577 -33.9140625 75.43359375 C-31.51338929 82.84212291 -26.55238101 88.02567057 -19.7265625 91.64453125 C-13.74999492 94.24639903 -7.8709909 93.64821774 -1.9140625 91.43359375 C4.41702249 88.06913925 8.81898943 83.27622503 11.0859375 76.43359375 C12.05199567 69.94476054 11.79828516 63.91141672 8.4140625 58.1796875 C4.02639258 52.41119205 -1.7524591 48.30190086 -9.00390625 47.08203125 C-16.53252469 46.57924127 -23.80121856 49.66676809 -28.8515625 55.30859375 Z " fill="#000000" transform="translate(406.9140625,255.56640625)"/>
</svg>
