<?xml version="1.0" encoding="UTF-8"?>
<svg version="1.1" xmlns="http://www.w3.org/2000/svg" width="512" height="512">
<path d="M0 0 C0.98905838 -0.00960754 1.97811676 -0.01921509 2.99714661 -0.02911377 C4.05858383 -0.03336365 5.12002106 -0.03761353 6.21362305 -0.04199219 C7.87738228 -0.0505423 7.87738228 -0.0505423 9.57475281 -0.05926514 C11.92580211 -0.06870607 14.27686459 -0.07524551 16.62792969 -0.07910156 C20.17431805 -0.08872868 23.72010691 -0.11972851 27.26635742 -0.15136719 C48.93486749 -0.25460691 68.33930178 0.97742533 84.73706055 16.91894531 C85.45506836 17.65886719 86.17307617 18.39878906 86.9128418 19.16113281 C87.55866211 19.79792969 88.20448242 20.43472656 88.86987305 21.09082031 C100.48071544 33.28346963 103.38701435 48.56225397 103.3112793 64.80566406 C103.31330598 66.18804578 103.31622233 67.57042646 103.31997681 68.95280457 C103.32436491 71.82793515 103.31807913 74.70278344 103.30395508 77.57788086 C103.28678365 81.25072585 103.29677608 84.9229168 103.31467247 88.59573841 C103.32553732 91.44145093 103.32205307 94.2870094 103.31428909 97.13272667 C103.31133728 99.14120795 103.32038913 101.1496954 103.3296814 103.15815735 C103.31549667 104.99618172 103.31549667 104.99618172 103.30102539 106.87133789 C103.29863861 107.9440242 103.29625183 109.01671051 103.29379272 110.12190247 C102.5986177 115.66801586 100.13013093 119.43526333 95.9128418 122.97363281 C95.2322168 123.55757813 94.5515918 124.14152344 93.8503418 124.74316406 C88.95329902 128.32708851 82.69621336 127.68689386 76.9128418 127.16113281 C71.25164548 125.43996324 67.19969327 120.91493477 63.9128418 116.16113281 C62.99227465 113.39943137 62.76484031 111.63934426 62.70751953 108.78149414 C62.6776017 107.4604644 62.6776017 107.4604644 62.64707947 106.11274719 C62.63036697 105.16578476 62.61365448 104.21882233 62.59643555 103.24316406 C62.57565445 102.27078293 62.55487335 101.29840179 62.53346252 100.29655457 C62.46805432 97.18898616 62.40912251 94.08133296 62.3503418 90.97363281 C62.30714829 88.86750424 62.26353372 86.76138425 62.21948242 84.65527344 C62.11238181 79.4906469 62.01108961 74.32593503 61.9128418 69.16113281 C55.93813997 75.51348728 50.66908252 81.9791052 45.9128418 89.28613281 C45.3132666 90.19991699 44.71369141 91.11370117 44.09594727 92.05517578 C27.4028263 117.7344834 15.90172712 145.82733698 10.9128418 176.16113281 C10.73624023 177.22428711 10.55963867 178.28744141 10.37768555 179.3828125 C8.81162634 189.7887166 8.5143166 200.02933003 8.5378418 210.53613281 C8.53805328 211.41175873 8.53826477 212.28738464 8.53848267 213.18954468 C8.57363207 227.8258567 9.6629869 241.85055565 12.9128418 256.16113281 C13.09476074 256.99757324 13.27667969 257.83401367 13.46411133 258.69580078 C17.61752192 277.40656287 24.72758796 295.36488026 33.9128418 312.16113281 C34.27571289 312.83031738 34.63858398 313.49950195 35.01245117 314.18896484 C45.45137614 333.22967179 58.52809983 349.87830355 73.9128418 365.16113281 C74.44619141 365.69174316 74.97954102 366.22235352 75.52905273 366.76904297 C111.2660628 401.86664654 161.43688997 423.08218015 211.30615234 425.49511719 C220.97643817 425.97028247 227.89893878 427.1472298 234.9128418 434.16113281 C239.10845541 439.75528429 238.51859019 446.48083716 237.9128418 453.16113281 C236.02042332 459.28366318 231.31154552 463.36110122 225.73706055 466.31347656 C221.82224368 467.48846309 218.16848137 467.50123105 214.1003418 467.47363281 C213.22869385 467.46871826 212.3570459 467.46380371 211.45898438 467.45874023 C172.99505948 466.79644749 134.6886837 455.20262345 100.9128418 437.16113281 C99.91559082 436.63350342 99.91559082 436.63350342 98.89819336 436.09521484 C89.0081219 430.82824285 79.8409363 424.92491748 70.9128418 418.16113281 C70.3329248 417.72542969 69.75300781 417.28972656 69.15551758 416.84082031 C60.24899225 410.11854354 51.9509928 402.89520127 43.9128418 395.16113281 C43.33501953 394.61054199 42.75719727 394.05995117 42.16186523 393.49267578 C34.13641999 385.81568651 26.87988725 377.86507848 20.24829102 368.95410156 C18.88001306 367.11705709 17.49298651 365.2952435 16.10424805 363.47363281 C9.73824402 355.04690605 4.10722799 346.35209699 -1.0871582 337.16113281 C-1.45019043 336.53078125 -1.81322266 335.90042969 -2.18725586 335.25097656 C-17.08886588 309.22081526 -26.7332932 279.80234556 -31.0871582 250.16113281 C-31.26448486 248.95650391 -31.44181152 247.751875 -31.62451172 246.51074219 C-33.22348321 234.85345928 -33.4455635 223.28927184 -33.3996582 211.53613281 C-33.39783539 210.5662442 -33.39601257 209.59635559 -33.39413452 208.59707642 C-33.3487413 194.24557226 -32.8433929 180.28170364 -30.0871582 166.16113281 C-29.84570068 164.81559326 -29.84570068 164.81559326 -29.59936523 163.44287109 C-22.01984087 121.55525952 -3.48203337 80.97418356 24.0378418 48.39550781 C25.74139817 46.36543646 27.33247933 44.28725605 28.9128418 42.16113281 C27.7983667 42.15178711 26.6838916 42.14244141 25.53564453 42.1328125 C21.37736918 42.09276172 17.21982199 42.02696194 13.06201172 41.95361328 C11.2668599 41.9254908 9.47158627 41.90423306 7.67626953 41.89013672 C5.08652779 41.86858547 2.49823723 41.82187558 -0.09106445 41.77050781 C-0.88613907 41.76927917 -1.68121368 41.76805054 -2.50038147 41.76678467 C-8.94855708 41.5995403 -13.23164828 39.80617687 -18.0480957 35.34472656 C-18.51473633 34.76851562 -18.98137695 34.19230469 -19.4621582 33.59863281 C-19.94426758 33.01984375 -20.42637695 32.44105469 -20.9230957 31.84472656 C-24.41202235 26.79866151 -23.68032251 19.98931696 -23.0871582 14.16113281 C-21.11466842 8.36348762 -17.29940158 5.13414047 -12.1496582 2.07128906 C-8.21124128 0.33331341 -4.26417807 0.0336828 0 0 Z " fill="#000000" transform="translate(33.087158203125,44.8388671875)"/>
<path d="M0 0 C0.90927246 0.00829834 1.81854492 0.01659668 2.75537109 0.02514648 C54.10777617 1.23795753 106.11515054 22.2938972 145.8125 54.4375 C146.69550781 55.1284375 147.57851563 55.819375 148.48828125 56.53125 C154.24992808 61.10642437 159.67896423 65.98893734 165.0625 71 C165.72419189 71.61319092 166.38588379 72.22638184 167.06762695 72.8581543 C171.62282035 77.14502573 175.75262703 81.68346787 179.8125 86.4375 C180.68132812 87.41332031 181.55015625 88.38914062 182.4453125 89.39453125 C212.45454942 123.77815537 231.82859012 166.67470918 239.8125 211.4375 C239.97331055 212.25863281 240.13412109 213.07976562 240.29980469 213.92578125 C242.68576187 226.26388561 243.15417707 238.62424059 243.28427124 251.15917969 C243.3029425 252.9141567 243.32888708 254.66907288 243.36245728 256.42382812 C243.65459545 273.79559386 243.65459545 273.79559386 237.8125 280.4375 C232.1954271 285.77371925 227.01292044 286.84960635 219.46484375 286.6875 C213.35497459 286.11160659 209.74920566 282.90619291 205.8125 278.4375 C202.136019 273.05408139 201.69491046 268.95425909 201.63671875 262.48828125 C201.61675711 261.08079306 201.59554653 259.67332216 201.57324219 258.26586914 C201.56208374 257.52917999 201.55092529 256.79249084 201.53942871 256.03347778 C200.61192526 202.31796244 182.22092845 149.65822269 144.578125 110.4765625 C142.8125 108.4375 142.8125 108.4375 142.8125 106.4375 C141.96751953 106.09138672 141.96751953 106.09138672 141.10546875 105.73828125 C138.217063 104.09971376 136.39113114 102.0547764 134.125 99.625 C112.13315769 76.96387363 81.80744512 60.59792808 51.8125 51.4375 C51.08224609 51.21368652 50.35199219 50.98987305 49.59960938 50.75927734 C34.47053998 46.19649051 19.48389381 43.28809881 3.70019531 42.2590332 C-4.31215807 41.66729518 -13.49760982 40.62943931 -19.1875 34.4375 C-23.70957773 28.27374388 -24.04850834 21.88207215 -23.1875 14.4375 C-21.21966899 8.74114709 -17.68622002 4.99543688 -12.59375 1.8203125 C-8.24787112 0.05604516 -4.64674292 -0.05610728 0 0 Z " fill="#000000" transform="translate(269.1875,-0.4375)"/>
<path d="M0 0 C4.13122691 2.95805903 6.99452472 6.09931836 8.6875 10.9375 C10.51537124 22.78869796 6.04367149 29.94780067 -0.71313477 39.21313477 C-1.24092529 39.92655029 -1.76871582 40.63996582 -2.3125 41.375 C-3.46754951 42.95565493 -4.62249445 44.53638628 -5.77734375 46.1171875 C-6.36370605 46.91608398 -6.95006836 47.71498047 -7.55419922 48.53808594 C-10.34491731 52.34635828 -13.11075571 56.17248865 -15.875 60 C-16.68227539 61.11652954 -16.68227539 61.11652954 -17.50585938 62.25561523 C-21.64436176 67.98838726 -25.72622709 73.75957687 -29.79321289 79.54321289 C-33.96505074 85.46729108 -38.20563377 91.33990075 -42.45703125 97.20703125 C-46.11245716 102.25832386 -49.72596155 107.33710525 -53.3125 112.4375 C-59.02601272 120.55947519 -64.83197702 128.61243886 -70.65820312 136.65380859 C-72.88852186 139.73267539 -75.11649465 142.81323034 -77.34277344 145.89501953 C-78.44085843 147.41402632 -79.54045012 148.93194513 -80.64160156 150.44873047 C-83.13749133 153.8925128 -85.60743915 157.34675245 -88 160.86328125 C-96.2121451 172.87904619 -104.52407742 180.66177411 -118.3125 185.9375 C-118.98667969 186.20433594 -119.66085937 186.47117187 -120.35546875 186.74609375 C-132.83843583 190.74174546 -148.29550558 188.09520693 -159.75 182.5 C-170.80793414 176.03900705 -179.67888053 165.69857916 -188.58081055 156.63330078 C-189.21027588 155.99505371 -189.83974121 155.35680664 -190.48828125 154.69921875 C-191.03395752 154.14194092 -191.57963379 153.58466309 -192.1418457 153.01049805 C-194.05543091 151.18300373 -196.01260878 149.45481874 -198.01489258 147.72631836 C-202.48275733 143.83836902 -206.69953516 139.72947169 -210.8984375 135.5546875 C-211.68143219 134.77739288 -212.46442688 134.00009827 -213.27114868 133.19924927 C-214.91115035 131.56862782 -216.54975432 129.93659953 -218.18701172 128.30322266 C-220.69443129 125.80559578 -223.21231864 123.31883306 -225.73046875 120.83203125 C-227.3287812 119.24024195 -228.92646011 117.6478162 -230.5234375 116.0546875 C-231.27547455 115.31499725 -232.0275116 114.57530701 -232.80233765 113.8132019 C-233.49711212 113.11542633 -234.1918866 112.41765076 -234.90771484 111.69873047 C-235.51868011 111.09141083 -236.12964539 110.48409119 -236.75912476 109.85836792 C-241.24941266 104.30578169 -241.02659229 97.73460064 -240.3125 90.9375 C-238.72475817 85.62500166 -236.11607743 81.81964646 -231.3125 78.9375 C-225.18360702 76.07018165 -219.88809509 75.19735259 -213.3125 76.9375 C-205.63982484 80.39275825 -200.06440773 86.87485765 -194.3125 92.8125 C-192.88184785 94.278651 -191.44889834 95.7424455 -190.01293945 97.20339966 C-188.70855448 98.53207694 -187.41068826 99.86714486 -186.11328125 101.20263672 C-183.94098186 103.32380981 -181.75133644 105.31590706 -179.45581055 107.29638672 C-175.34660703 110.85744691 -171.51638548 114.638522 -167.70703125 118.515625 C-166.29765769 119.93763049 -164.88814855 121.35950161 -163.47851562 122.78125 C-161.29111321 124.99354567 -159.10536651 127.20743159 -156.92211914 129.42382812 C-154.79232534 131.58383345 -152.65634485 133.73756707 -150.51953125 135.890625 C-149.87047318 136.5531427 -149.2214151 137.2156604 -148.5526886 137.89825439 C-142.6686651 143.90385757 -142.6686651 143.90385757 -134.8125 146.25 C-131.43415238 145.94836182 -129.21412627 145.67847576 -126.3125 143.9375 C-126.04824219 143.23496094 -125.78398437 142.53242188 -125.51171875 141.80859375 C-123.89765581 137.94430626 -121.49466424 134.97973266 -118.9375 131.6875 C-114.63619833 126.05427039 -110.43954906 120.36899866 -106.375 114.5625 C-102.23394505 108.65291191 -98.04829833 102.77958962 -93.8125 96.9375 C-89.60545925 91.13197116 -85.43640955 85.302374 -81.3125 79.4375 C-76.65113251 72.80827288 -71.92305569 66.23021463 -67.16796875 59.66796875 C-63.51254235 54.61667547 -59.89908208 49.53786462 -56.3125 44.4375 C-51.09582932 37.02302142 -45.81923731 29.65414154 -40.484375 22.32421875 C-38.39753045 19.4538543 -36.3486348 16.56192737 -34.328125 13.64453125 C-25.949657 1.66061007 -15.11365238 -8.51756121 0 0 Z " fill="#000000" transform="translate(503.3125,324.0625)"/>
<path d="M0 0 C5.37281418 5.14348675 7.35184593 9.84506024 7.54333496 17.32925415 C7.58515832 20.39825697 7.56378901 23.46463161 7.53710938 26.53369141 C7.54061383 28.22955378 7.54627607 29.92541285 7.55392456 31.6212616 C7.56813342 36.21010723 7.55115077 40.79835084 7.52763939 45.38713884 C7.50748743 50.19562044 7.51341209 55.0040781 7.51574707 59.81259155 C7.51569356 67.88427626 7.49596849 75.95572644 7.46386719 84.02734375 C7.42695193 93.35464375 7.41819569 102.6816369 7.4251647 112.00900042 C7.43147234 120.99090945 7.42071217 129.97271346 7.40119934 138.95460129 C7.39303218 142.77344638 7.39031452 146.59223775 7.39189148 150.41109085 C7.39277119 154.90754818 7.37853088 159.40371446 7.35266495 163.90009499 C7.34551096 165.54882585 7.34341583 167.1975877 7.34678268 168.84633064 C7.35050556 171.09933504 7.33572316 173.35149378 7.31628418 175.60440063 C7.31069111 177.49416091 7.31069111 177.49416091 7.30498505 179.42209816 C6.65886016 185.1862135 4.30842788 188.97195942 -0.078125 192.65234375 C-0.75875 193.23628906 -1.439375 193.82023438 -2.140625 194.421875 C-5.40411179 196.8102736 -8.18386393 196.9684758 -12.0993042 196.98701477 C-13.65534866 196.99774773 -13.65534866 196.99774773 -15.24282837 197.00869751 C-16.94939102 197.01273087 -16.94939102 197.01273087 -18.69042969 197.0168457 C-19.88906647 197.0234169 -21.08770325 197.0299881 -22.32266235 197.03675842 C-26.2984441 197.05650637 -30.2741855 197.06815934 -34.25 197.078125 C-35.62025218 197.08217352 -36.99050415 197.08629047 -38.36075592 197.09047508 C-44.79949025 197.10952262 -51.23821316 197.12375403 -57.67697024 197.13208705 C-65.10161128 197.14185542 -72.52595386 197.16816594 -79.95048976 197.20858794 C-85.69413907 197.23878196 -91.43770299 197.25355906 -97.1814301 197.25686806 C-100.60956017 197.25921502 -104.03737125 197.26812835 -107.46541595 197.29332924 C-111.29326705 197.31764458 -115.1203377 197.31676893 -118.94824219 197.30981445 C-120.64265945 197.32902954 -120.64265945 197.32902954 -122.37130737 197.34863281 C-129.89508928 197.29881242 -134.3996365 196.2472086 -140.0390625 191.0234375 C-140.50570312 190.44722656 -140.97234375 189.87101563 -141.453125 189.27734375 C-141.93523437 188.69855469 -142.41734375 188.11976563 -142.9140625 187.5234375 C-146.40298915 182.47737245 -145.6712893 175.66802789 -145.078125 169.83984375 C-143.10563522 164.04219855 -139.29036838 160.8128514 -134.140625 157.75 C-128.90371663 155.43901581 -123.49250069 155.70288871 -117.8815918 155.72631836 C-116.50524315 155.72609932 -116.50524315 155.72609932 -115.10108948 155.72587585 C-112.07648329 155.726571 -109.05193914 155.73434478 -106.02734375 155.7421875 C-103.92698704 155.74405309 -101.82662989 155.74547633 -99.72627258 155.74647522 C-94.2041605 155.75028926 -88.68207481 155.76011007 -83.15997314 155.7711792 C-77.52266802 155.78141723 -71.88535862 155.78597797 -66.24804688 155.79101562 C-55.19139467 155.80173332 -44.13476203 155.8187964 -33.078125 155.83984375 C-33.08273396 155.09477318 -33.08734293 154.34970261 -33.09209156 153.58205414 C-33.20260519 135.43684617 -33.28529826 117.29170554 -33.33718586 99.1462326 C-33.36294655 90.37112833 -33.39805604 81.59624896 -33.45532227 72.82128906 C-33.50522286 65.1713122 -33.53743154 57.52149826 -33.54856747 49.87136316 C-33.55507505 45.8221332 -33.57032447 41.77336926 -33.60677528 37.72428894 C-33.64084043 33.90912525 -33.65115708 30.09461729 -33.64366341 26.27931595 C-33.6450333 24.88294022 -33.65490377 23.48654143 -33.67415237 22.0902977 C-33.77884107 14.10119475 -33.57552666 7.98974053 -28.078125 1.83984375 C-19.65291592 -5.67582571 -9.41347706 -5.65210909 0 0 Z " fill="#000000" transform="translate(279.078125,89.16015625)"/>
</svg>
