<?xml version="1.0" encoding="UTF-8"?>
<svg version="1.1" xmlns="http://www.w3.org/2000/svg" width="512" height="512">
<path d="M0 0 C8.06194249 5.88859552 13.62230135 13.17148344 18 22.0625 C18.86364166 22.06836624 19.72728333 22.07423248 20.61709595 22.08027649 C28.76815219 22.13825286 36.91893585 22.21035794 45.06972694 22.29821491 C49.25984386 22.3428848 53.4498643 22.38214823 57.64013672 22.40893555 C61.6862907 22.43500249 65.73207279 22.47542848 69.77799606 22.52568626 C71.3192519 22.54233214 72.86057202 22.55386061 74.40190506 22.56011391 C76.56601925 22.5697802 78.72918693 22.59786736 80.89306641 22.63012695 C82.12328522 22.64123001 83.35350403 22.65233307 84.6210022 22.66377258 C89.66773605 23.25929566 92.91610392 24.86142597 96.3125 28.625 C98.50527701 31.79234458 99.12773655 33.44619997 99.20532227 37.23681641 C99.22526749 38.09755768 99.24521271 38.95829895 99.26576233 39.84512329 C99.29083107 41.2404982 99.29083107 41.2404982 99.31640625 42.6640625 C99.33718735 43.61566254 99.35796844 44.56726257 99.37937927 45.54769897 C99.44488133 48.59422432 99.5037628 51.64083743 99.5625 54.6875 C99.60568459 56.75000916 99.64929886 58.81250937 99.69335938 60.875 C99.8005634 65.93740954 99.90182902 70.99990755 100 76.0625 C125.65863795 63.15871929 149.7486764 49.64847286 171 30.0625 C172.4948602 28.72340674 173.99449524 27.38961461 175.5 26.0625 C176.1290625 25.505625 176.758125 24.94875 177.40625 24.375 C180.19139175 22.08135385 182.20549899 21.85203867 185.75 21.75 C187.01070313 21.69392578 187.01070313 21.69392578 188.296875 21.63671875 C194.12337749 22.55447709 197.85026061 26.76410575 201.6875 30.9375 C221.02943723 50.93133594 247.51984021 63.62571059 272 76.0625 C272.01401855 74.15573486 272.01401855 74.15573486 272.02832031 72.21044922 C272.0682865 67.48011638 272.13406414 62.75042938 272.20751953 58.02050781 C272.23569066 55.97599605 272.25692435 53.93137616 272.27099609 51.88671875 C272.29247887 48.94214678 272.3391569 45.99886959 272.390625 43.0546875 C272.39185364 42.1450827 272.39308228 41.23547791 272.39434814 40.29830933 C272.52188748 34.73302146 273.28984068 31.47881995 277 27.0625 C281.37159828 23.22079242 285.06597903 22.92881624 290.76635742 22.85717773 C291.44954544 22.84727814 292.13273346 22.83737854 292.83662415 22.82717896 C295.09287053 22.79561321 297.34913797 22.7708261 299.60546875 22.74609375 C301.17060389 22.72551996 302.73573352 22.70452338 304.30085754 22.68312073 C308.41897116 22.62794391 312.53713456 22.57851529 316.65533447 22.53027344 C320.85815864 22.48002635 325.06091058 22.42435703 329.26367188 22.36914062 C337.5090535 22.26161274 345.75449558 22.16015587 354 22.0625 C354.40928741 21.30247177 354.81857483 20.54244354 355.24026489 19.75938416 C356.04776688 18.26768456 356.04776688 18.26768456 356.87158203 16.74584961 C357.67113815 15.26549477 357.67113815 15.26549477 358.48684692 13.75523376 C364.1186625 3.73312814 374.14304849 -2.65818188 385 -5.9375 C396.76259194 -8.79137477 409.00548923 -7.26045767 419.63671875 -1.51171875 C430.05193727 5.15057805 438.1168198 14.94229964 441.53271484 26.93237305 C444.37045471 39.86825619 442.05584923 52.87825006 435.0625 63.9375 C427.9473193 73.92714273 418.5579993 80.72367472 406.60546875 83.6484375 C394.39808636 85.5884413 382.48115904 83.82947694 372 77.125 C363.88890829 71.20050496 358.45930911 63.98111821 354 55.0625 C329.25 54.5675 329.25 54.5675 304 54.0625 C304.33 65.9425 304.66 77.8225 305 90.0625 C316.78011541 94.71975493 328.46342027 99.31616755 340.53125 103.15234375 C341.73977631 103.53983292 341.73977631 103.53983292 342.97271729 103.93515015 C346.96937308 105.21469824 350.9713357 106.4689614 354.98730469 107.68652344 C368.59884236 111.94047165 368.59884236 111.94047165 373 119.0625 C376.73166905 126.52583811 375.23836092 137.6189396 375.25 145.75 C375.25300613 146.77756912 375.25300613 146.77756912 375.256073 147.82589722 C375.26869516 165.68059159 373.57737662 183.39878628 371 201.0625 C372.06329529 201.05250725 372.06329529 201.05250725 373.14807129 201.04231262 C379.85609795 200.98199033 386.56404797 200.93641892 393.27228546 200.90706348 C396.72037914 200.89146372 400.16824712 200.87033107 403.61621094 200.83618164 C407.58786235 200.79709545 411.55942505 200.78274371 415.53125 200.76953125 C417.37233337 200.74630547 417.37233337 200.74630547 419.25061035 200.72261047 C425.88808779 200.72131459 431.01471641 201.0941348 437 204.0625 C441.82217914 209.13197038 442.29475551 212.56580883 442.21484375 219.3671875 C441.83195347 224.17072011 439.95669858 226.22247198 436.4375 229.3125 C432.50825594 232.13349574 430.36804933 232.18495028 425.53076172 232.17602539 C424.53545944 232.17624443 424.53545944 232.17624443 423.52005005 232.1764679 C421.32322947 232.17577031 419.1264933 232.16798514 416.9296875 232.16015625 C415.40796963 232.15829152 413.88625116 232.15686788 412.36453247 232.15586853 C408.35648953 232.15204767 404.34848274 232.14222104 400.3404541 232.13116455 C396.25171396 232.12094118 392.16296799 232.11636892 388.07421875 232.11132812 C380.04946256 232.1005984 372.02473578 232.08352713 364 232.0625 C363.87689453 233.23248535 363.75378906 234.4024707 363.62695312 235.60791016 C363.1182743 239.65831536 362.15778016 243.42440573 360.96875 247.3359375 C360.77277222 247.98575592 360.57679443 248.63557434 360.37487793 249.30508423 C359.96436022 250.6621505 359.55079913 252.01829966 359.13427734 253.37353516 C358.49569558 255.45150678 357.86621218 257.53206894 357.23828125 259.61328125 C354.1726973 269.71710541 354.1726973 269.71710541 353 272.0625 C354.23564697 272.04678955 355.47129395 272.0310791 356.74438477 272.01489258 C361.34946112 271.96039849 365.95450921 271.92607918 370.55981445 271.89770508 C372.5491211 271.88266276 374.53839483 271.86222377 376.52758789 271.83618164 C379.39477689 271.79959754 382.26152559 271.78272782 385.12890625 271.76953125 C386.01147598 271.75404739 386.89404572 271.73856354 387.80335999 271.72261047 C394.76562412 271.72073314 399.48136003 272.87237829 404.875 277.5625 C408.35559982 281.65732331 408.34499552 285.39450838 408.27734375 290.55859375 C407.73818054 295.42625036 405.14849628 298.00275885 401.68115234 301.20214844 C396.65994755 304.43135736 390.4619709 303.54879214 384.7265625 303.453125 C383.44768158 303.44746521 382.16880066 303.44180542 380.85116577 303.43597412 C377.46744858 303.41741848 374.08482908 303.38154526 370.70141602 303.3371582 C367.24244625 303.29608167 363.78336264 303.27793687 360.32421875 303.2578125 C353.54917796 303.21376253 346.7746523 303.14686154 340 303.0625 C339.70971924 303.96613281 339.41943848 304.86976563 339.12036133 305.80078125 C329.9515063 332.4941574 311.184775 357.403815 295 380.0625 C324.7 380.5575 324.7 380.5575 355 381.0625 C355.33 379.4125 355.66 377.7625 356 376.0625 C362.14341921 364.98653841 371.14549357 357.43506385 383 353.0625 C396.14895284 349.86676949 408.20754218 350.72576277 420.14453125 357.23828125 C431.43844517 364.4534082 438.72729742 374.06031722 442 387.0625 C442.43455314 390.32548384 442.52530518 393.52314704 442.5 396.8125 C442.49427979 397.68430908 442.48855957 398.55611816 442.48266602 399.4543457 C442.13194303 412.23979283 437.07269192 421.58814903 428.41796875 430.734375 C417.88757959 440.67547231 405.93579642 442.63211837 392.140625 442.40234375 C379.76440951 441.85606757 370.00700531 435.63411964 361.75 426.75 C359.49640317 423.95019169 357.90309506 421.05860581 356.328125 417.83203125 C355.88887695 416.93718018 355.44962891 416.0423291 354.99707031 415.12036133 C354.66803711 414.44126709 354.33900391 413.76217285 354 413.0625 C343.05629867 412.52447301 332.11583847 412.11847783 321.1615057 411.87082005 C316.07135868 411.75180158 310.99038138 411.59118306 305.90551758 411.32739258 C280.14329931 409.17504109 280.14329931 409.17504109 257.67606831 419.51951122 C253.31912279 423.74604117 249.64336332 428.45567854 246.0799408 433.36247253 C243.15139094 437.1641024 239.73668409 440.08789113 236 443.0625 C234.94067206 443.97138388 233.88452696 444.88399427 232.83203125 445.80078125 C222.53337107 454.5806222 211.90202538 462.77974549 200.875 470.625 C200.13991211 471.1502124 199.40482422 471.6754248 198.64746094 472.21655273 C197.9568457 472.70325439 197.26623047 473.18995605 196.5546875 473.69140625 C195.94093262 474.12525635 195.32717773 474.55910645 194.69482422 475.00610352 C190.80350062 477.43159433 186.45040585 477.71720069 182 477.0625 C176.35490785 474.74866862 171.66595091 471.06484126 166.8125 467.4375 C165.96606934 466.8086792 165.11963867 466.1798584 164.24755859 465.53198242 C158.01344476 460.87640498 151.93973241 456.08980363 146 451.0625 C144.96926194 450.20511334 143.9379844 449.34837495 142.90625 448.4921875 C137.37306576 443.8814774 131.94234498 439.17060025 126.625 434.3125 C126.12098947 433.85802522 125.61697893 433.40355043 125.09769535 432.93530369 C122.1005073 430.18173544 119.37043038 427.37447114 116.79234314 424.22239685 C111.35730131 417.7844073 106.54898718 412.44508024 97.84575748 411.47038364 C93.38163272 411.27532522 88.96570435 411.40454096 84.50390625 411.59765625 C82.57486811 411.62570472 80.6457216 411.64702281 78.71653748 411.66197205 C73.68796091 411.71870037 68.66609658 411.86550134 63.64013672 412.03253174 C58.49213463 412.18720458 53.34302525 412.2547414 48.19335938 412.33007812 C38.12598907 412.48997402 28.0635568 412.74525776 18 413.0625 C17.66348923 413.75011414 17.32697845 414.43772827 16.98027039 415.1461792 C16.53520645 416.04765686 16.09014252 416.94913452 15.6315918 417.87792969 C15.19195602 418.77179382 14.75232025 419.66565796 14.29936218 420.58660889 C8.67225427 431.30887451 -1.30933671 437.83623538 -12.56445312 441.44946289 C-16.62694198 442.47200795 -20.57634822 442.59460814 -24.75 442.5625 C-25.62180908 442.55677979 -26.49361816 442.55105957 -27.3918457 442.54516602 C-40.17729283 442.19444303 -49.52564903 437.13519192 -58.671875 428.48046875 C-68.61297231 417.95007959 -70.56961837 405.99829642 -70.33984375 392.203125 C-69.79526852 379.86544551 -63.60027981 370.17100625 -54.8125 361.875 C-44.69278804 353.81961952 -33.42816961 350.71809198 -20.578125 351.1875 C-7.91993715 352.64107181 2.51607282 358.64594252 11 368.0625 C17 376.3425 17 376.3425 17 381.0625 C36.8 380.7325 56.6 380.4025 77 380.0625 C72.71 374.1225 68.42 368.1825 64 362.0625 C61.74813898 358.65968779 59.54967018 355.29380513 57.4375 351.8125 C56.64835205 350.52460571 56.64835205 350.52460571 55.84326172 349.21069336 C32 309.88105171 32 309.88105171 32 303.0625 C31.28669525 303.07138245 30.5733905 303.08026489 29.83847046 303.0894165 C23.10042266 303.16972473 16.36250935 303.23054637 9.62409019 303.26974869 C6.16015501 303.2905811 2.69661687 303.31881739 -0.76708984 303.36425781 C-4.75353159 303.41622585 -8.73981525 303.43548133 -12.7265625 303.453125 C-13.96427399 303.47377014 -15.20198547 303.49441528 -16.47720337 303.51568604 C-27.17083553 303.51846941 -27.17083553 303.51846941 -32 299.0625 C-35.92052912 294.72928361 -36.63392313 291.19137795 -36.38671875 285.53125 C-35.60962512 280.57040988 -33.57230518 277.24172888 -29.5 274.1875 C-25.83427117 272.53792203 -22.700191 271.93689702 -18.69042969 271.94897461 C-17.4295755 271.94908791 -17.4295755 271.94908791 -16.14324951 271.94920349 C-14.79616913 271.95694542 -14.79616913 271.95694542 -13.421875 271.96484375 C-12.4953009 271.9662587 -11.56872681 271.96767365 -10.61407471 271.96913147 C-7.65935008 271.97472176 -4.70470167 271.9872725 -1.75 272 C0.25520724 272.00501625 2.26041567 272.00957894 4.265625 272.01367188 C9.17711263 272.02468801 14.0885434 272.041946 19 272.0625 C18.7877327 271.43927856 18.57546539 270.81605713 18.35676575 270.1739502 C8 239.7389687 8 239.7389687 8 232.0625 C7.16141449 232.07138245 6.32282898 232.08026489 5.45883179 232.0894165 C-2.45652798 232.16967211 -10.37175047 232.23052001 -18.28742409 232.26974869 C-22.35666939 232.2905949 -26.42557759 232.31885753 -30.49462891 232.36425781 C-34.42390618 232.4078226 -38.35285987 232.43165942 -42.28236008 232.44200897 C-43.77905748 232.44938138 -45.27573782 232.4637782 -46.77229691 232.48542023 C-48.87413602 232.51459757 -50.97465006 232.51845032 -53.07666016 232.51660156 C-54.8686937 232.52992523 -54.8686937 232.52992523 -56.69692993 232.54351807 C-61.72618745 231.81111952 -65.77164328 228.97051077 -69 225.0625 C-70.94892318 219.21573045 -70.99344445 213.12297738 -68.3125 207.5625 C-64.23652916 203.15604504 -60.26938645 201.20904113 -54.31707764 200.94224548 C-53.29559631 200.94446609 -52.27411499 200.94668671 -51.22167969 200.94897461 C-50.0607782 200.94905014 -48.89987671 200.94912567 -47.70379639 200.94920349 C-45.8317453 200.95694542 -45.8317453 200.95694542 -43.921875 200.96484375 C-41.99930878 200.96696617 -41.99930878 200.96696617 -40.03790283 200.96913147 C-36.6381636 200.97294099 -33.2384674 200.98275786 -29.83874512 200.99383545 C-26.366461 201.00408326 -22.8941699 201.0086363 -19.421875 201.01367188 C-12.61456571 201.02438159 -5.80728492 201.04143916 1 201.0625 C0.91435791 200.40878418 0.82871582 199.75506836 0.74047852 199.08154297 C-1.466272 182.13381818 -3.18110951 165.50241063 -3.13037109 148.40161133 C-3.12496123 146.23446809 -3.1303828 144.06752806 -3.13671875 141.90039062 C-3.15012002 121.04087411 -3.15012002 121.04087411 3.33457947 113.51329041 C5.38238755 111.72939243 7.19647431 111.08166732 9.77172852 110.22485352 C10.7402626 109.89763809 11.70879669 109.57042267 12.7066803 109.23329163 C13.75351486 108.88946945 14.80034943 108.54564728 15.87890625 108.19140625 C16.96074692 107.82780502 18.04258759 107.4642038 19.1572113 107.08958435 C22.62289236 105.92631186 26.09243313 104.7751164 29.5625 103.625 C33.00684539 102.47640237 36.45030649 101.32524248 39.89280701 100.17112732 C42.0342079 99.45395906 44.17677577 98.74026245 46.32069397 98.03065491 C51.95564582 96.15138284 57.46854387 94.1250228 62.93467712 91.79673767 C65 91.0625 65 91.0625 68 91.0625 C68 78.8525 68 66.6425 68 54.0625 C51.5 54.3925 35 54.7225 18 55.0625 C16.02 58.6925 14.04 62.3225 12 66.0625 C5.60541513 75.19241109 -4.6716983 81.04186287 -15.3828125 83.640625 C-27.58448813 85.60746227 -39.52435018 83.82595286 -50 77.125 C-59.80592735 69.96256491 -67.36770997 60.06183674 -70 48.0625 C-71.3084855 33.10244991 -69.38073186 21.13743683 -60 9.0625 C-44.70088656 -8.24965468 -19.8750225 -12.71344414 0 0 Z " fill="#52CC7B" transform="translate(70,20.9375)"/>
<path d="M0 0 C9.80592735 7.16243509 17.36770997 17.06316326 20 29.0625 C21.3084855 44.02255009 19.38073186 55.98756317 10 68.0625 C1.78890938 77.35399728 -8.62634304 83.34053905 -21.09375 84.30078125 C-35.15423137 84.60714495 -46.15180131 80.99811744 -56.6875 71.6875 C-61.34460356 66.40105813 -64.82964134 61.40321731 -68 55.0625 C-92.75 54.5675 -92.75 54.5675 -118 54.0625 C-117.67 65.9425 -117.34 77.8225 -117 90.0625 C-105.21988459 94.71975493 -93.53657973 99.31616755 -81.46875 103.15234375 C-80.26022369 103.53983292 -80.26022369 103.53983292 -79.02728271 103.93515015 C-75.03062692 105.21469824 -71.0286643 106.4689614 -67.01269531 107.68652344 C-53.40115764 111.94047165 -53.40115764 111.94047165 -49 119.0625 C-45.26833095 126.52583811 -46.76163908 137.6189396 -46.75 145.75 C-46.74699387 146.77756912 -46.74699387 146.77756912 -46.743927 147.82589722 C-46.73130484 165.68059159 -48.42262338 183.39878628 -51 201.0625 C-49.93670471 201.05250725 -49.93670471 201.05250725 -48.85192871 201.04231262 C-42.14390205 200.98199033 -35.43595203 200.93641892 -28.72771454 200.90706348 C-25.27962086 200.89146372 -21.83175288 200.87033107 -18.38378906 200.83618164 C-14.41213765 200.79709545 -10.44057495 200.78274371 -6.46875 200.76953125 C-4.62766663 200.74630547 -4.62766663 200.74630547 -2.74938965 200.72261047 C3.88808779 200.72131459 9.01471641 201.0941348 15 204.0625 C19.82217914 209.13197038 20.29475551 212.56580883 20.21484375 219.3671875 C19.83195347 224.17072011 17.95669858 226.22247198 14.4375 229.3125 C10.50825594 232.13349574 8.36804933 232.18495028 3.53076172 232.17602539 C2.53545944 232.17624443 2.53545944 232.17624443 1.52005005 232.1764679 C-0.67677053 232.17577031 -2.8735067 232.16798514 -5.0703125 232.16015625 C-6.59203037 232.15829152 -8.11374884 232.15686788 -9.63546753 232.15586853 C-13.64351047 232.15204767 -17.65151726 232.14222104 -21.6595459 232.13116455 C-25.74828604 232.12094118 -29.83703201 232.11636892 -33.92578125 232.11132812 C-41.95053744 232.1005984 -49.97526422 232.08352713 -58 232.0625 C-58.12310547 233.23248535 -58.24621094 234.4024707 -58.37304688 235.60791016 C-58.8817257 239.65831536 -59.84221984 243.42440573 -61.03125 247.3359375 C-61.22722778 247.98575592 -61.42320557 248.63557434 -61.62512207 249.30508423 C-62.03563978 250.6621505 -62.44920087 252.01829966 -62.86572266 253.37353516 C-63.50430442 255.45150678 -64.13378782 257.53206894 -64.76171875 259.61328125 C-67.8273027 269.71710541 -67.8273027 269.71710541 -69 272.0625 C-67.76435303 272.04678955 -66.52870605 272.0310791 -65.25561523 272.01489258 C-60.65053888 271.96039849 -56.04549079 271.92607918 -51.44018555 271.89770508 C-49.4508789 271.88266276 -47.46160517 271.86222377 -45.47241211 271.83618164 C-42.60522311 271.79959754 -39.73847441 271.78272782 -36.87109375 271.76953125 C-35.98852402 271.75404739 -35.10595428 271.73856354 -34.19664001 271.72261047 C-27.23437588 271.72073314 -22.51863997 272.87237829 -17.125 277.5625 C-13.64440018 281.65732331 -13.65500448 285.39450838 -13.72265625 290.55859375 C-14.26181946 295.42625036 -16.85150372 298.00275885 -20.31884766 301.20214844 C-25.34005245 304.43135736 -31.5380291 303.54879214 -37.2734375 303.453125 C-38.55231842 303.44746521 -39.83119934 303.44180542 -41.14883423 303.43597412 C-44.53255142 303.41741848 -47.91517092 303.38154526 -51.29858398 303.3371582 C-54.75755375 303.29608167 -58.21663736 303.27793687 -61.67578125 303.2578125 C-68.45082204 303.21376253 -75.2253477 303.14686154 -82 303.0625 C-82.29028076 303.96613281 -82.58056152 304.86976563 -82.87963867 305.80078125 C-92.0484937 332.4941574 -110.815225 357.403815 -127 380.0625 C-97.3 380.5575 -97.3 380.5575 -67 381.0625 C-66.67 379.4125 -66.34 377.7625 -66 376.0625 C-59.85658079 364.98653841 -50.85450643 357.43506385 -39 353.0625 C-25.85104716 349.86676949 -13.79245782 350.72576277 -1.85546875 357.23828125 C9.43844517 364.4534082 16.72729742 374.06031722 20 387.0625 C20.43455314 390.32548384 20.52530518 393.52314704 20.5 396.8125 C20.49427979 397.68430908 20.48855957 398.55611816 20.48266602 399.4543457 C20.13194303 412.23979283 15.07269192 421.58814903 6.41796875 430.734375 C-4.11242041 440.67547231 -16.06420358 442.63211837 -29.859375 442.40234375 C-42.23559049 441.85606757 -51.99299469 435.63411964 -60.25 426.75 C-62.50359683 423.95019169 -64.09690494 421.05860581 -65.671875 417.83203125 C-66.11112305 416.93718018 -66.55037109 416.0423291 -67.00292969 415.12036133 C-67.33196289 414.44126709 -67.66099609 413.76217285 -68 413.0625 C-78.94370133 412.52447301 -89.88416153 412.11847783 -100.8384943 411.87082005 C-105.92864132 411.75180158 -111.00961862 411.59118306 -116.09448242 411.32739258 C-141.85670069 409.17504109 -141.85670069 409.17504109 -164.32393169 419.51951122 C-168.68087721 423.74604117 -172.35663668 428.45567854 -175.9200592 433.36247253 C-178.84860906 437.1641024 -182.26331591 440.08789113 -186 443.0625 C-187.05932794 443.97138388 -188.11547304 444.88399427 -189.16796875 445.80078125 C-196.59960449 452.13641897 -204.16095486 458.23623886 -212 464.0625 C-212.69770508 464.58618164 -213.39541016 465.10986328 -214.11425781 465.64941406 C-216.35648185 467.32398644 -218.61332293 468.97682124 -220.875 470.625 C-221.57657227 471.1502124 -222.27814453 471.6754248 -223.00097656 472.21655273 C-224.01756348 472.94660522 -224.01756348 472.94660522 -225.0546875 473.69140625 C-225.64749512 474.12525635 -226.24030273 474.55910645 -226.85107422 475.00610352 C-229 476.0625 -229 476.0625 -236 477.0625 C-236 430.5325 -236 384.0025 -236 336.0625 C-216.2 335.7325 -196.4 335.4025 -176 335.0625 C-165.12566502 330.71276601 -159.54373733 327.63438288 -155 317.0625 C-153.77273991 312.42592741 -153.84522113 307.86097837 -153.83886719 303.10058594 C-153.83390228 302.20723038 -153.82893738 301.31387482 -153.82382202 300.39344788 C-153.80924442 297.44458234 -153.80240547 294.49577062 -153.796875 291.546875 C-153.79111961 289.49049885 -153.78536193 287.43412272 -153.77960205 285.37774658 C-153.76910436 281.06709545 -153.76325374 276.75646289 -153.75976562 272.44580078 C-153.75428574 266.93699355 -153.73026317 261.42843407 -153.70179367 255.91970444 C-153.68311911 251.67133886 -153.67795911 247.42303236 -153.67642975 243.17462921 C-153.67341321 241.14456072 -153.66541862 239.11449302 -153.65224457 237.08446503 C-153.63508442 234.23678536 -153.63708866 231.38970336 -153.64355469 228.54199219 C-153.62973251 227.29788322 -153.62973251 227.29788322 -153.6156311 226.02864075 C-153.67344778 217.85144997 -155.54242174 211.27284768 -161 205.0625 C-161 204.4025 -161 203.7425 -161 203.0625 C-163.82208874 201.62895606 -166.6706742 200.28688695 -169.5625 199 C-170.32691406 198.65839844 -171.09132813 198.31679687 -171.87890625 197.96484375 C-175.64751403 196.36162386 -178.69240964 195.89068849 -182.76171875 195.74609375 C-183.87998047 195.70419922 -184.99824219 195.66230469 -186.15039062 195.61914062 C-187.31763672 195.57982422 -188.48488281 195.54050781 -189.6875 195.5 C-190.86634766 195.45681641 -192.04519531 195.41363281 -193.25976562 195.36914062 C-196.17305883 195.26298824 -199.08643757 195.16093758 -202 195.0625 C-202.00386719 193.53882813 -202.00386719 193.53882813 -202.0078125 191.984375 C-202.25647157 180.19391035 -204.98902609 171.11968319 -213 162.0625 C-218.78110475 157.63930586 -224.76397409 154.84902456 -232 154.0625 C-232.85335937 153.96839844 -233.70671875 153.87429687 -234.5859375 153.77734375 C-243.27365297 153.29192698 -251.34503525 156.11060018 -258.375 161.25 C-265.46457926 168.84597778 -269.18464332 177.10918479 -269.625 187.375 C-269.66367187 188.11556641 -269.70234375 188.85613281 -269.7421875 189.61914062 C-269.83581705 191.43321309 -269.91896851 193.24782116 -270 195.0625 C-270.76666992 195.08755615 -271.53333984 195.1126123 -272.32324219 195.13842773 C-275.79899283 195.25451423 -279.27448092 195.37718366 -282.75 195.5 C-283.9565625 195.53931641 -285.163125 195.57863281 -286.40625 195.61914062 C-288.14648438 195.68198242 -288.14648438 195.68198242 -289.921875 195.74609375 C-291.52434082 195.80108032 -291.52434082 195.80108032 -293.15917969 195.85717773 C-295.58311152 196.03236909 -297.67886712 196.37448487 -300 197.0625 C-300.75480673 176.59272199 -297.9513819 159.46342787 -283.6875 143.6875 C-273.68293079 133.09281686 -260.52580946 125.39193229 -246 123.0625 C-242.7 123.0625 -239.4 123.0625 -236 123.0625 C-236 89.7325 -236 56.4025 -236 22.0625 C-228.12039127 23.18815839 -228.12039127 23.18815839 -225 26.1875 C-224.401875 26.74695312 -223.80375 27.30640625 -223.1875 27.8828125 C-221.94432154 29.12155103 -220.70764536 30.36711697 -219.49243164 31.63330078 C-215.12069814 36.13319178 -210.49619405 39.98270653 -205.4375 43.6875 C-204.61668945 44.28868652 -203.79587891 44.88987305 -202.95019531 45.50927734 C-186.3557652 57.44140332 -168.18493233 66.82390941 -150 76.0625 C-149.98598145 74.15573486 -149.98598145 74.15573486 -149.97167969 72.21044922 C-149.9317135 67.48011638 -149.86593586 62.75042938 -149.79248047 58.02050781 C-149.76430934 55.97599605 -149.74307565 53.93137616 -149.72900391 51.88671875 C-149.70752113 48.94214678 -149.6608431 45.99886959 -149.609375 43.0546875 C-149.60814636 42.1450827 -149.60691772 41.23547791 -149.60565186 40.29830933 C-149.47811252 34.73302146 -148.71015932 31.47881995 -145 27.0625 C-140.62840172 23.22079242 -136.93402097 22.92881624 -131.23364258 22.85717773 C-130.55045456 22.84727814 -129.86726654 22.83737854 -129.16337585 22.82717896 C-126.90712947 22.79561321 -124.65086203 22.7708261 -122.39453125 22.74609375 C-120.82939611 22.72551996 -119.26426648 22.70452338 -117.69914246 22.68312073 C-113.58102884 22.62794391 -109.46286544 22.57851529 -105.34466553 22.53027344 C-101.14184136 22.48002635 -96.93908942 22.42435703 -92.73632812 22.36914062 C-84.4909465 22.26161274 -76.24550442 22.16015587 -68 22.0625 C-67.59071259 21.30247177 -67.18142517 20.54244354 -66.75973511 19.75938416 C-66.22140045 18.76491776 -65.6830658 17.77045135 -65.12841797 16.74584961 C-64.59538055 15.75894638 -64.06234314 14.77204315 -63.51315308 13.75523376 C-57.8813375 3.73312814 -47.85695151 -2.65818188 -37 -5.9375 C-24.30429853 -9.01776855 -11.0078341 -7.04137487 0 0 Z " fill="#3D9979" transform="translate(492,20.9375)"/>
<path d="M0 0 C2.64 1.98 5.28 3.96 8 6 C53.34484657 39.30886878 105.27794167 59.64762704 158 78 C158.02968652 82.33331826 158.04702361 86.66660954 158.0625 91 C158.07087891 92.20140625 158.07925781 93.4028125 158.08789062 94.640625 C158.12640945 109.12370262 157.10235324 123.13547686 154.8125 137.4375 C154.70229523 138.12653412 154.59209045 138.81556824 154.47854614 139.52548218 C149.02083548 173.3572764 138.67261623 206.01809606 124 237 C123.36892334 238.34843994 123.36892334 238.34843994 122.72509766 239.72412109 C112.62315552 261.15420879 100.32554805 281.14257106 86 300 C85.52997559 300.62165039 85.05995117 301.24330078 84.57568359 301.88378906 C69.21407881 322.10072902 52.02545093 341.17649084 33 358 C32.13689209 358.772229 32.13689209 358.772229 31.25634766 359.56005859 C3.90706613 384 3.90706613 384 0 384 C0 348.69 0 313.38 0 277 C29.375 276.75 29.375 276.75 38.59130859 276.70214844 C41.02703723 276.67275852 43.4627491 276.64192915 45.8984375 276.609375 C47.14278564 276.60824707 48.38713379 276.60711914 49.66918945 276.60595703 C58.78819498 276.45744493 65.67516191 274.85602515 73.3125 269.8125 C80.71155128 262.0693068 82.1473536 254.36151264 82.16113281 244.03808594 C82.16609772 243.14473038 82.17106262 242.25137482 82.17617798 241.33094788 C82.19075558 238.38208234 82.19759453 235.43327062 82.203125 232.484375 C82.20888039 230.42799885 82.21463807 228.37162272 82.22039795 226.31524658 C82.23089564 222.00459545 82.23674626 217.69396289 82.24023438 213.38330078 C82.24571426 207.87449355 82.26973683 202.36593407 82.29820633 196.85720444 C82.31688089 192.60883886 82.32204089 188.36053236 82.32357025 184.11212921 C82.32658679 182.08206072 82.33458138 180.05199302 82.34775543 178.02196503 C82.36491558 175.17428536 82.36291134 172.32720336 82.35644531 169.47949219 C82.37026749 168.23538322 82.37026749 168.23538322 82.3843689 166.96614075 C82.32655222 158.78894997 80.45757826 152.21034768 75 146 C75 145.34 75 144.68 75 144 C72.17791126 142.56645606 69.3293258 141.22438695 66.4375 139.9375 C65.67308594 139.59589844 64.90867187 139.25429687 64.12109375 138.90234375 C60.35248597 137.29912386 57.30759036 136.82818849 53.23828125 136.68359375 C52.12001953 136.64169922 51.00175781 136.59980469 49.84960938 136.55664062 C48.68236328 136.51732422 47.51511719 136.47800781 46.3125 136.4375 C45.13365234 136.39431641 43.95480469 136.35113281 42.74023438 136.30664062 C39.82694117 136.20048824 36.91356243 136.09843758 34 136 C33.99613281 134.47632813 33.99613281 134.47632813 33.9921875 132.921875 C33.74352843 121.13141035 31.01097391 112.05718319 23 103 C17.21889525 98.57680586 11.23602591 95.78652456 4 95 C2.71996094 94.85884766 2.71996094 94.85884766 1.4140625 94.71484375 C-7.27365297 94.22942698 -15.34503525 97.04810018 -22.375 102.1875 C-29.46457926 109.78347778 -33.18464332 118.04668479 -33.625 128.3125 C-33.66367188 129.05306641 -33.70234375 129.79363281 -33.7421875 130.55664062 C-33.83581705 132.37071309 -33.91896851 134.18532116 -34 136 C-34.76666992 136.02505615 -35.53333984 136.0501123 -36.32324219 136.07592773 C-39.79899283 136.19201423 -43.27448092 136.31468366 -46.75 136.4375 C-47.9565625 136.47681641 -49.163125 136.51613281 -50.40625 136.55664062 C-52.14648438 136.61948242 -52.14648438 136.61948242 -53.921875 136.68359375 C-55.52434082 136.73858032 -55.52434082 136.73858032 -57.15917969 136.79467773 C-59.58311152 136.96986909 -61.67886712 137.31198487 -64 138 C-64.75480673 117.53022199 -61.9513819 100.40092787 -47.6875 84.625 C-37.68293079 74.03031686 -24.52580946 66.32943229 -10 64 C-6.7 64 -3.4 64 0 64 C0 42.88 0 21.76 0 0 Z " fill="#51CB7A" transform="translate(256,80)"/>
<path d="M0 0 C4.36585436 3.16524441 7.38860482 6.72707599 10.1875 11.3125 C10.60128906 11.95574219 11.01507813 12.59898437 11.44140625 13.26171875 C15.3829608 20.47187952 14.5391326 28.35192869 14.1875 36.3125 C14.89245605 36.29155273 15.59741211 36.27060547 16.32373047 36.24902344 C19.56983731 36.16501281 22.81571439 36.11357303 26.0625 36.0625 C27.72539062 36.01222656 27.72539062 36.01222656 29.421875 35.9609375 C39.09059628 35.84718784 47.6442336 37.96929871 55.1875 44.3125 C61.62641736 52.2682777 63.49206582 59.47785342 63.4621582 69.50146484 C63.46726913 70.39511246 63.47238007 71.28876007 63.47764587 72.20948792 C63.49148342 75.14754029 63.49058943 78.08535652 63.48828125 81.0234375 C63.49217151 83.07695604 63.49650687 85.13047377 63.50126648 87.18399048 C63.50871625 91.48271292 63.50844651 95.78135322 63.50317383 100.08007812 C63.49738234 105.57315648 63.51430866 111.06589732 63.5375185 116.55891991 C63.55229174 120.79871569 63.55312263 125.03843087 63.55000877 129.27824783 C63.55052023 131.30272718 63.55572473 133.32721126 63.56582069 135.3516655 C63.57823683 138.18957841 63.57136237 141.0268426 63.55981445 143.86474609 C63.56745819 144.69100998 63.57510193 145.51727386 63.58297729 146.36857605 C63.4860693 157.21079325 59.44955539 165.05044461 51.875 172.625 C44.38156239 177.33018176 36.78393238 177.75564386 28.12524414 177.73242188 C26.95005722 177.74089142 25.7748703 177.74936096 24.56407166 177.75808716 C20.70015481 177.78138333 16.83663785 177.7824811 12.97265625 177.78125 C10.95689479 177.78570871 8.94114301 177.7918728 6.92538637 177.79811716 C0.59483329 177.81729391 -5.73558796 177.82025568 -12.06616211 177.81347656 C-18.57324469 177.80683616 -25.07976038 177.82971258 -31.58672804 177.86679029 C-37.19639414 177.89758225 -42.80587872 177.90883723 -48.41562754 177.90495348 C-51.75615032 177.90289609 -55.0958808 177.91047584 -58.4363842 177.93284607 C-62.16499245 177.95507093 -65.89224455 177.94531393 -69.62084961 177.92773438 C-70.71154755 177.94099762 -71.80224548 177.95426086 -72.92599487 177.96792603 C-81.11500559 177.87857341 -87.86539645 176.00725234 -93.95774746 170.30440521 C-101.39542552 162.29755657 -102.95599821 154.81058524 -102.98950195 144.25878906 C-102.99607315 143.35567993 -103.00264435 142.4525708 -103.00941467 141.52209473 C-103.02908482 138.54077055 -103.04079596 135.55949659 -103.05078125 132.578125 C-103.05485678 131.55688286 -103.0589323 130.53564072 -103.06313133 129.48345184 C-103.08396479 124.0784882 -103.09827857 118.67354975 -103.10766602 113.26855469 C-103.11872771 107.6991414 -103.15313296 102.13012791 -103.19283772 96.56085587 C-103.21903487 92.26616698 -103.22736059 87.97157297 -103.23094749 83.67681122 C-103.235805 81.62440031 -103.24739501 79.57199341 -103.26598549 77.51966095 C-103.29044391 74.64071802 -103.28939969 71.76280499 -103.2824707 68.88378906 C-103.29528076 68.04503235 -103.30809082 67.20627563 -103.32128906 66.34210205 C-103.24945301 58.10642935 -100.0392188 50.66932016 -94.8125 44.3125 C-88.2311516 39.06503865 -82.09085612 36.03251628 -73.5390625 36.1171875 C-71.80849609 36.12685547 -71.80849609 36.12685547 -70.04296875 36.13671875 C-68.85316406 36.15347656 -67.66335937 36.17023438 -66.4375 36.1875 C-65.22449219 36.19652344 -64.01148438 36.20554688 -62.76171875 36.21484375 C-59.77844227 36.23833412 -56.79557406 36.27118318 -53.8125 36.3125 C-53.91691406 34.78882813 -53.91691406 34.78882813 -54.0234375 33.234375 C-54.59371227 21.17776689 -51.92995198 12.61374705 -43.8125 3.3125 C-30.67971556 -7.40108731 -14.74435962 -9.06395307 0 0 Z " fill="#FEE270" transform="translate(275.8125,179.6875)"/>
<path d="M0 0 C0 21.12 0 42.24 0 64 C-7.425 64.99 -7.425 64.99 -15 66 C-33.23966616 72.02410992 -47.65723593 81.92495572 -56.69140625 99.2421875 C-60.87252314 107.96712058 -63.17132546 115.17926276 -62.97167969 124.81567383 C-62.82418976 136.66859678 -62.82418976 136.66859678 -66.33203125 140.640625 C-69.25 142.3125 -69.25 142.3125 -72.26171875 143.671875 C-77.31524182 146.12294183 -79.01381493 150.57288745 -81.03923035 155.55766296 C-82.23766306 159.85152184 -82.28768641 163.73271905 -82.2746582 168.16723633 C-82.2823246 169.52211906 -82.2823246 169.52211906 -82.29014587 170.90437317 C-82.30400705 173.88032725 -82.30308744 176.85604878 -82.30078125 179.83203125 C-82.30467061 181.90939927 -82.30900577 183.98676649 -82.31376648 186.06413269 C-82.32122162 190.41590961 -82.32094289 194.7676054 -82.31567383 199.11938477 C-82.3098858 204.68087158 -82.32679768 210.24202464 -82.3500185 215.80345631 C-82.3647921 220.09386621 -82.3656225 224.38419647 -82.36250877 228.6746273 C-82.36302035 230.72422635 -82.36822713 232.77383005 -82.37832069 234.82340431 C-82.39073557 237.69734625 -82.38386275 240.57064745 -82.37231445 243.44458008 C-82.37995819 244.28176575 -82.38760193 245.11895142 -82.39547729 245.98150635 C-82.31241635 255.39124426 -79.44530951 263.10101579 -73 270 C-67.45118756 274.30316067 -62.75139411 276.23318052 -55.7409668 276.31884766 C-54.48280151 276.33890869 -53.22463623 276.35896973 -51.92834473 276.37963867 C-50.61523315 276.39099854 -49.30212158 276.4023584 -47.94921875 276.4140625 C-46.12855896 276.44052856 -46.12855896 276.44052856 -44.27111816 276.4675293 C-39.74337944 276.53052638 -35.21542001 276.57676132 -30.6875 276.625 C-20.560625 276.74875 -10.43375 276.8725 0 277 C0 312.31 0 347.62 0 384 C-5.49078525 380.3394765 -10.48415298 376.97052046 -15.375 372.6875 C-16.5018101 371.71522479 -17.62942574 370.74388245 -18.7578125 369.7734375 C-19.30727539 369.3000293 -19.85673828 368.82662109 -20.42285156 368.33886719 C-22.65609454 366.44303058 -24.95517581 364.63301402 -27.25 362.8125 C-41.51212326 351.20233816 -55.07667726 337.99383986 -67 324 C-67.89095625 322.98352323 -68.78297339 321.96797582 -69.67578125 320.953125 C-86.88817954 301.28831558 -101.2971602 279.81006758 -114 257 C-114.41459473 256.26797363 -114.82918945 255.53594727 -115.25634766 254.78173828 C-145.6829321 200.83876872 -158.81139097 139.4784693 -158 78 C-151.47647341 75.2819413 -144.88168515 72.89961225 -138.18237305 70.65258789 C-114.15463742 62.58716399 -90.88484603 52.89371732 -68 42 C-66.68394775 41.37593262 -66.68394775 41.37593262 -65.34130859 40.73925781 C-42.97491464 30.06198248 -21.77542132 17.19173529 -2.6875 1.328125 C-1 0 -1 0 0 0 Z " fill="#93E571" transform="translate(256,80)"/>
<path d="M0 0 C7.92166044 -0.08409902 15.84168537 -0.16420977 23.76340485 -0.20700073 C27.45306175 -0.22804246 31.14234553 -0.25611651 34.83178711 -0.30175781 C38.39150198 -0.34551408 41.95085714 -0.36919905 45.51082039 -0.37950897 C47.51648459 -0.39039642 49.52200594 -0.42157424 51.52745056 -0.45318604 C60.34019157 -0.4553322 66.90071591 0.55287474 73.75 6.3125 C80.77762929 14.70661277 83.30743097 21.20509057 83.2746582 32.18896484 C83.27976913 33.08261246 83.28488007 33.97626007 83.29014587 34.89698792 C83.30398342 37.83504029 83.30308943 40.77285652 83.30078125 43.7109375 C83.30467151 45.76445604 83.30900687 47.81797377 83.31376648 49.87149048 C83.32121625 54.17021292 83.32094651 58.46885322 83.31567383 62.76757812 C83.30988234 68.26065648 83.32680866 73.75339732 83.3500185 79.24641991 C83.36479174 83.48621569 83.36562263 87.72593087 83.36250877 91.96574783 C83.36302023 93.99022718 83.36822473 96.01471126 83.37832069 98.0391655 C83.39073683 100.87707841 83.38386237 103.7143426 83.37231445 106.55224609 C83.37995819 107.37850998 83.38760193 108.20477386 83.39547729 109.05607605 C83.2985693 119.89829325 79.26205539 127.73794461 71.6875 135.3125 C63.56973911 140.4096987 55.35730375 140.40746359 45.99609375 140.29296875 C44.67706558 140.28872391 43.35803741 140.28447906 41.9990387 140.28010559 C38.52194615 140.26874678 35.04524004 140.23935931 31.56829834 140.20599365 C28.00847695 140.1750972 24.4485902 140.16139344 20.88867188 140.14648438 C13.92544192 140.11607726 6.96326789 140.05733706 0 140 C0 124.16 0 108.32 0 92 C-2.31 91.67 -4.62 91.34 -7 91 C-11.5327552 88.32155374 -13.57802872 84.97297758 -15 80 C-15.44227891 76.30365934 -15.46486594 72.6567803 -15.4375 68.9375 C-15.45748047 67.97005859 -15.47746094 67.00261719 -15.49804688 66.00585938 C-15.49393253 59.99480464 -14.95645648 56.59036387 -11 52 C-7.06988937 48.17331333 -5.79743295 47.96623883 0 47 C0 31.49 0 15.98 0 0 Z " fill="#FEB54C" transform="translate(256,217)"/>
<path d="M0 0 C9.80592735 7.16243509 17.36770997 17.06316326 20 29.0625 C21.3084855 44.02255009 19.38073186 55.98756317 10 68.0625 C1.78890938 77.35399728 -8.62634304 83.34053905 -21.09375 84.30078125 C-35.15423137 84.60714495 -46.15180131 80.99811744 -56.6875 71.6875 C-61.34460356 66.40105813 -64.82964134 61.40321731 -68 55.0625 C-92.75 54.5675 -92.75 54.5675 -118 54.0625 C-118 65.9425 -118 77.8225 -118 90.0625 C-122.78662503 89.26472916 -125.77016478 88.48000342 -130.0546875 86.55859375 C-131.16328125 86.06552734 -132.271875 85.57246094 -133.4140625 85.06445312 C-135.12722656 84.29004883 -135.12722656 84.29004883 -136.875 83.5 C-138.0403125 82.97986328 -139.205625 82.45972656 -140.40625 81.92382812 C-143.27366792 80.64289143 -146.13805848 79.35561475 -149 78.0625 C-149.10164192 71.7638125 -149.17156661 65.46533747 -149.21972656 59.16601562 C-149.23980888 57.02433366 -149.26708037 54.8827063 -149.30175781 52.74121094 C-149.35042398 49.65806585 -149.3730029 46.57564738 -149.390625 43.4921875 C-149.42159271 42.06215897 -149.42159271 42.06215897 -149.45318604 40.60324097 C-149.4551513 34.74577254 -148.84011152 31.55391582 -145 27.0625 C-140.62840172 23.22079242 -136.93402097 22.92881624 -131.23364258 22.85717773 C-130.55045456 22.84727814 -129.86726654 22.83737854 -129.16337585 22.82717896 C-126.90712947 22.79561321 -124.65086203 22.7708261 -122.39453125 22.74609375 C-120.82939611 22.72551996 -119.26426648 22.70452338 -117.69914246 22.68312073 C-113.58102884 22.62794391 -109.46286544 22.57851529 -105.34466553 22.53027344 C-101.14184136 22.48002635 -96.93908942 22.42435703 -92.73632812 22.36914062 C-84.4909465 22.26161274 -76.24550442 22.16015587 -68 22.0625 C-67.59071259 21.30247177 -67.18142517 20.54244354 -66.75973511 19.75938416 C-66.22140045 18.76491776 -65.6830658 17.77045135 -65.12841797 16.74584961 C-64.59538055 15.75894638 -64.06234314 14.77204315 -63.51315308 13.75523376 C-57.8813375 3.73312814 -47.85695151 -2.65818188 -37 -5.9375 C-24.30429853 -9.01776855 -11.0078341 -7.04137487 0 0 Z " fill="#FEB54C" transform="translate(492,20.9375)"/>
<path d="M0 0 C8.06194249 5.88859552 13.62230135 13.17148344 18 22.0625 C18.86364166 22.06836624 19.72728333 22.07423248 20.61709595 22.08027649 C28.76815219 22.13825286 36.91893585 22.21035794 45.06972694 22.29821491 C49.25984386 22.3428848 53.4498643 22.38214823 57.64013672 22.40893555 C61.6862907 22.43500249 65.73207279 22.47542848 69.77799606 22.52568626 C71.3192519 22.54233214 72.86057202 22.55386061 74.40190506 22.56011391 C76.56601925 22.5697802 78.72918693 22.59786736 80.89306641 22.63012695 C82.12328522 22.64123001 83.35350403 22.65233307 84.6210022 22.66377258 C89.66773605 23.25929566 92.91610392 24.86142597 96.3125 28.625 C98.57354335 31.8909515 99.12445762 33.50667155 99.11352539 37.42041016 C99.11344986 38.32119293 99.11337433 39.22197571 99.11329651 40.15005493 C99.10813522 41.12405243 99.10297394 42.09804993 99.09765625 43.1015625 C99.09553383 44.59555069 99.09553383 44.59555069 99.09336853 46.11972046 C99.08775936 49.30901053 99.0752053 52.49823106 99.0625 55.6875 C99.05748618 57.84635315 99.05292307 60.00520741 99.04882812 62.1640625 C99.03778695 67.4635655 99.02103988 72.76302778 99 78.0625 C94.96337239 79.8863747 90.91990228 81.69455966 86.875 83.5 C85.73289063 84.01626953 84.59078125 84.53253906 83.4140625 85.06445312 C82.30546875 85.55751953 81.196875 86.05058594 80.0546875 86.55859375 C79.03874512 87.01419678 78.02280273 87.4697998 76.97607422 87.93920898 C74 89.0625 74 89.0625 68 90.0625 C68 78.1825 68 66.3025 68 54.0625 C51.5 54.3925 35 54.7225 18 55.0625 C16.02 58.6925 14.04 62.3225 12 66.0625 C5.60541513 75.19241109 -4.6716983 81.04186287 -15.3828125 83.640625 C-27.58448813 85.60746227 -39.52435018 83.82595286 -50 77.125 C-59.80592735 69.96256491 -67.36770997 60.06183674 -70 48.0625 C-71.3084855 33.10244991 -69.38073186 21.13743683 -60 9.0625 C-44.70088656 -8.24965468 -19.8750225 -12.71344414 0 0 Z " fill="#FEE370" transform="translate(70,20.9375)"/>
<path d="M0 0 C7.94746778 7.60303499 13.39892974 17.4387599 14.09375 28.546875 C14.12785515 30.19759725 14.13770143 31.84897433 14.125 33.5 C14.11927979 34.37180908 14.11355957 35.24361816 14.10766602 36.1418457 C13.75694303 48.92729283 8.69769192 58.27564903 0.04296875 67.421875 C-10.48742041 77.36297231 -22.43920358 79.31961837 -36.234375 79.08984375 C-48.61059049 78.54356757 -58.36799469 72.32161964 -66.625 63.4375 C-69.375 59.75 -69.375 59.75 -74.375 49.75 C-103.085 49.42 -131.795 49.09 -161.375 48.75 C-157.76525369 43.93700492 -154.54070791 39.68067237 -150.5 35.375 C-146.4431962 30.98115057 -142.6484172 26.45878227 -138.96875 21.74609375 C-137.375 19.75 -137.375 19.75 -135.375 17.75 C-132.7807312 17.50949097 -132.7807312 17.50949097 -129.45654297 17.52294922 C-128.21540741 17.52310028 -126.97427185 17.52325134 -125.69552612 17.52340698 C-124.3360783 17.533621 -122.9766321 17.544053 -121.6171875 17.5546875 C-120.22999271 17.55841716 -118.84279529 17.56126435 -117.45559692 17.56326294 C-113.80259949 17.57090316 -110.14976083 17.59055484 -106.49682617 17.6126709 C-102.77004138 17.63312104 -99.04323096 17.64226287 -95.31640625 17.65234375 C-88.00253175 17.67380049 -80.68878811 17.70794097 -73.375 17.75 C-73.23779541 16.9751123 -73.10059082 16.20022461 -72.95922852 15.40185547 C-71.1972402 7.40406311 -63.89675545 0.31746229 -57.375 -4.25 C-38.54824684 -15.96262086 -16.94527629 -14.26837721 0 0 Z " fill="#FEB54C" transform="translate(498.375,384.25)"/>
<path d="M0 0 C4.51956972 4.30088086 8.0845045 9.02872151 10.625 14.75 C10.625 15.74 10.625 16.73 10.625 17.75 C11.76013283 17.71669083 11.76013283 17.71669083 12.91819763 17.68270874 C20.08192127 17.48157581 27.24425985 17.3297206 34.410079 17.23187828 C38.09354887 17.17988036 41.77466952 17.10948222 45.45678711 16.99560547 C49.01669574 16.88620884 52.57435966 16.82701322 56.13582039 16.80122757 C58.14211863 16.77400035 60.14752375 16.696044 62.15245056 16.61703491 C71.16308092 16.61154903 71.16308092 16.61154903 75.43080139 19.9349823 C77.70488718 22.44056279 79.69021239 24.97767717 81.625 27.75 C82.47191406 28.76191406 83.31882813 29.77382813 84.19140625 30.81640625 C84.85011719 31.64011719 85.50882813 32.46382813 86.1875 33.3125 C89.72577505 37.69173831 93.39610172 41.91249351 97.19140625 46.0703125 C98.625 47.75 98.625 47.75 98.625 48.75 C55.56 49.245 55.56 49.245 11.625 49.75 C9.975 53.05 8.325 56.35 6.625 59.75 C-0.40371706 69.60846029 -9.68377681 75.80727131 -21.375 78.75 C-24.63798384 79.18455314 -27.83564704 79.27530518 -31.125 79.25 C-31.99680908 79.24427979 -32.86861816 79.23855957 -33.7668457 79.23266602 C-46.55229283 78.88194303 -55.90064903 73.82269192 -65.046875 65.16796875 C-74.98797231 54.63757959 -76.94461837 42.68579642 -76.71484375 28.890625 C-76.17026852 16.55294551 -69.97527981 6.85850625 -61.1875 -1.4375 C-42.52366293 -16.36025615 -18.02214613 -15.1751305 0 0 Z " fill="#FEE370" transform="translate(76.375,384.25)"/>
<path d="M0 0 C13.30499657 10.65071695 24.19731133 24.71960727 27 42 C27.21592235 45.50728846 27.19083553 48.98799485 27.125 52.5 C27.08375 55.635 27.0425 58.77 27 62 C12.15 61.505 12.15 61.505 -3 61 C-3.04125 58.6075 -3.0825 56.215 -3.125 53.75 C-3.56788896 43.65646758 -7.28793574 35.58863982 -14 28 C-19.78110475 23.57680586 -25.76397409 20.78652456 -33 20 C-34.28003906 19.85884766 -34.28003906 19.85884766 -35.5859375 19.71484375 C-44.27365297 19.22942698 -52.34503525 22.04810018 -59.375 27.1875 C-66.46457926 34.78347778 -70.18464332 43.04668479 -70.625 53.3125 C-70.66367188 54.05306641 -70.70234375 54.79363281 -70.7421875 55.55664062 C-70.83581705 57.37071309 -70.91896851 59.18532116 -71 61 C-71.76666992 61.02505615 -72.53333984 61.0501123 -73.32324219 61.07592773 C-76.79899283 61.19201423 -80.27448092 61.31468366 -83.75 61.4375 C-84.9565625 61.47681641 -86.163125 61.51613281 -87.40625 61.55664062 C-88.56640625 61.59853516 -89.7265625 61.64042969 -90.921875 61.68359375 C-91.99018555 61.72025146 -93.05849609 61.75690918 -94.15917969 61.79467773 C-96.58311152 61.96986909 -98.67886712 62.31198487 -101 63 C-101.75480673 42.53022199 -98.9513819 25.40092787 -84.6875 9.625 C-77.00027229 1.48434546 -68.40717469 -3.96426322 -58 -8 C-56.7934375 -8.48146484 -56.7934375 -8.48146484 -55.5625 -8.97265625 C-37.29003366 -15.11106291 -15.60701054 -10.87900441 0 0 Z " fill="#404B7F" transform="translate(293,155)"/>
<path d="M0 0 C0.68318802 -0.00014603 1.36637604 -0.00029205 2.07026672 -0.0004425 C4.32658065 0.0002537 6.58281184 0.00803243 8.83911133 0.01586914 C10.40424047 0.01773436 11.96937019 0.01915777 13.53450012 0.02015686 C17.65267551 0.02397387 21.7708156 0.03379721 25.88897705 0.04486084 C30.09175133 0.05509248 34.29453131 0.05965824 38.49731445 0.06469727 C46.74277336 0.0754202 54.98820358 0.09248685 63.23364258 0.11352539 C63.07138184 1.19851318 62.90912109 2.28350098 62.74194336 3.40136719 C62.25398237 6.96498235 62.10042878 10.33248782 62.10864258 13.92602539 C62.10606445 15.0462207 62.10348633 16.16641602 62.10083008 17.32055664 C62.26226218 21.93086765 62.77461835 26.52328306 63.23364258 31.11352539 C46.73364258 31.11352539 30.23364258 31.11352539 13.23364258 31.11352539 C13.23364258 42.99352539 13.23364258 54.87352539 13.23364258 67.11352539 C8.44701755 66.31575455 5.4634778 65.53102881 1.17895508 63.60961914 C-0.48393555 62.87001953 -0.48393555 62.87001953 -2.18041992 62.11547852 C-3.3225293 61.59920898 -4.46463867 61.08293945 -5.64135742 60.55102539 C-6.80666992 60.03088867 -7.97198242 59.51075195 -9.17260742 58.97485352 C-12.04002534 57.69391682 -14.9044159 56.40664014 -17.76635742 55.11352539 C-17.86799934 48.81483789 -17.93792403 42.51636286 -17.98608398 36.21704102 C-18.0061663 34.07535905 -18.0334378 31.9337317 -18.06811523 29.79223633 C-18.11678141 26.70909124 -18.13936032 23.62667277 -18.15698242 20.54321289 C-18.18795013 19.11318436 -18.18795013 19.11318436 -18.21954346 17.65426636 C-18.22150872 11.79679793 -17.60646894 8.60494121 -13.76635742 4.11352539 C-9.37497271 0.25442973 -5.72591842 -0.01027993 0 0 Z " fill="#CEDAFC" transform="translate(360.766357421875,43.886474609375)"/>
<path d="M0 0 C9.0232032 -0.06960189 18.04631356 -0.12286286 27.06972694 -0.15543652 C31.2599602 -0.17107261 35.45000939 -0.19227306 39.64013672 -0.22631836 C43.68610817 -0.25898553 47.73190288 -0.27686848 51.77799606 -0.28463173 C53.31932735 -0.29016207 54.86064929 -0.30096154 56.40190506 -0.31719017 C58.56583585 -0.33906293 60.72904233 -0.34196292 62.89306641 -0.34057617 C64.12328522 -0.34723801 65.35350403 -0.35389984 66.6210022 -0.36076355 C71.68385129 0.1797788 74.91243483 1.79486021 78.3125 5.5625 C80.57354335 8.8284515 81.12445762 10.44417155 81.11352539 14.35791016 C81.11341209 15.70908432 81.11341209 15.70908432 81.11329651 17.08755493 C81.10813522 18.06155243 81.10297394 19.03554993 81.09765625 20.0390625 C81.0962413 21.03505463 81.09482635 22.03104675 81.09336853 23.05722046 C81.08775936 26.24651053 81.0752053 29.43573106 81.0625 32.625 C81.05748618 34.78385315 81.05292307 36.94270741 81.04882812 39.1015625 C81.03778695 44.4010655 81.02103988 49.70052778 81 55 C76.96337239 56.8238747 72.91990228 58.63205966 68.875 60.4375 C67.73289062 60.95376953 66.59078125 61.47003906 65.4140625 62.00195312 C64.30546875 62.49501953 63.196875 62.98808594 62.0546875 63.49609375 C60.53077393 64.17949829 60.53077393 64.17949829 58.97607422 64.87670898 C56 66 56 66 50 67 C50 55.12 50 43.24 50 31 C33.5 31 17 31 0 31 C0.33 27.7 0.66 24.4 1 21 C1.08385247 18.60527199 1.13051482 16.20868928 1.125 13.8125 C1.12757812 12.68457031 1.13015625 11.55664062 1.1328125 10.39453125 C0.99493419 6.87052395 0.52125863 3.4854965 0 0 Z " fill="#E7F0FC" transform="translate(88,44)"/>
<path d="M0 0 C11.66882935 0 11.66882935 0 17.9375 2.125 C18.96762207 2.4660376 18.96762207 2.4660376 20.01855469 2.81396484 C36.70393916 8.54883377 49.52145885 19.55398592 57.68359375 35.234375 C62.33052694 44.90712803 64.32456768 52.85403542 64.125 63.5 C64.08375 66.635 64.0425 69.77 64 73 C49.15 72.505 49.15 72.505 34 72 C33.95875 69.6075 33.9175 67.215 33.875 64.75 C33.43138145 54.63984013 29.69666158 46.61556439 23 39 C15.87423997 33.30464116 9.12754413 32.10635634 0 30 C0 20.1 0 10.2 0 0 Z " fill="#283466" transform="translate(256,144)"/>
<path d="M0 0 C4.36585436 3.16524441 7.38860482 6.72707599 10.1875 11.3125 C10.60128906 11.95574219 11.01507813 12.59898437 11.44140625 13.26171875 C15.43736896 20.57140664 14.45975333 28.21296339 14.1875 36.3125 C22.4375 36.3125 30.6875 36.3125 39.1875 36.3125 C39.1875 36.6425 39.1875 36.9725 39.1875 37.3125 C-0.0825 37.3125 -39.3525 37.3125 -79.8125 37.3125 C-79.8125 36.9825 -79.8125 36.6525 -79.8125 36.3125 C-71.2325 36.3125 -62.6525 36.3125 -53.8125 36.3125 C-53.93625 33.92 -54.06 31.5275 -54.1875 29.0625 C-54.40841309 18.77741776 -50.54850871 11.03084332 -43.8125 3.3125 C-30.67971556 -7.40108731 -14.74435962 -9.06395307 0 0 Z " fill="#95E070" transform="translate(275.8125,179.6875)"/>
<path d="M0 0 C1.61882584 0.00666183 1.61882584 0.00666183 3.27035522 0.01345825 C5.10202744 0.01368484 5.10202744 0.01368484 6.97070312 0.01391602 C8.30805625 0.02413001 9.64540772 0.03456201 10.98275757 0.04519653 C12.34753208 0.04892623 13.71230926 0.05177341 15.0770874 0.05377197 C18.6709023 0.0614119 22.2645558 0.08106331 25.85830688 0.10317993 C29.52476823 0.12363072 33.19125564 0.13277204 36.85775757 0.14285278 C44.05314369 0.164309 51.24839677 0.19844911 58.44369507 0.24050903 C58.3730484 0.85362442 58.30240173 1.46673981 58.22961426 2.09843445 C58.13800018 2.90530197 58.04638611 3.71216949 57.95199585 4.54348755 C57.81508835 5.74159813 57.81508835 5.74159813 57.67541504 6.96391296 C57.39584984 9.71057752 57.31095203 12.41761586 57.31869507 15.17800903 C57.31611694 16.09453247 57.31353882 17.01105591 57.31088257 17.95535278 C57.49041662 22.39618039 58.00145524 26.81811079 58.44369507 31.24050903 C29.73369507 31.24050903 1.02369507 31.24050903 -28.55630493 31.24050903 C-24.94655862 26.42751396 -21.72201285 22.1711814 -17.68130493 17.86550903 C-13.62450113 13.4716596 -9.82972213 8.9492913 -6.15005493 4.23660278 C-2.9921791 0.2815181 -2.9921791 0.2815181 0 0 Z " fill="#CEDAFC" transform="translate(365.5563049316406,401.7594909667969)"/>
<path d="M0 0 C7.79738177 -0.23265688 15.59393743 -0.40985268 23.39392757 -0.51812172 C27.01688439 -0.57011465 30.63745181 -0.64050187 34.2590332 -0.75439453 C37.76059095 -0.86381163 41.25986606 -0.92299052 44.7630024 -0.94877243 C46.73607471 -0.97599315 48.70823907 -1.05394659 50.67991638 -1.13296509 C59.54507728 -1.13845093 59.54507728 -1.13845093 63.79237366 2.1849823 C66.06687346 4.69127009 68.05885218 7.23100466 70 10 C70.84691406 11.01191406 71.69382812 12.02382813 72.56640625 13.06640625 C73.22511719 13.89011719 73.88382812 14.71382813 74.5625 15.5625 C78.10077505 19.94173831 81.77110172 24.16249351 85.56640625 28.3203125 C87 30 87 30 87 31 C58.29 31 29.58 31 0 31 C0.33 28.36 0.66 25.72 1 23 C1.08702334 20.68876239 1.13029867 18.37536928 1.125 16.0625 C1.12757812 14.93972656 1.13015625 13.81695312 1.1328125 12.66015625 C1.02970667 9.81868081 0.81616673 7.0897899 0.49169922 4.27124023 C0.40008514 3.46895493 0.30847107 2.66666962 0.21408081 1.84007263 C0.14343414 1.23284866 0.07278748 0.62562469 0 0 Z " fill="#E7F0FC" transform="translate(88,402)"/>
<path d="M0 0 C1.1553273 -0.00960754 2.3106546 -0.01921509 3.50099182 -0.02911377 C4.76128708 -0.03336365 6.02158234 -0.03761353 7.32006836 -0.04199219 C9.25383583 -0.0505423 9.25383583 -0.0505423 11.22666931 -0.05926514 C13.96475622 -0.06979015 16.70281367 -0.07562144 19.44091797 -0.07910156 C22.93219796 -0.08455763 26.42308226 -0.10851626 29.91423893 -0.13707352 C33.25784034 -0.16031633 36.60139042 -0.16215895 39.94506836 -0.16699219 C41.81425682 -0.18551239 41.81425682 -0.18551239 43.72120667 -0.20440674 C50.39225794 -0.18740265 55.58356863 0.17223524 61.59741211 3.16113281 C66.41959125 8.23060319 66.89216762 11.66444164 66.81225586 18.46582031 C66.42936558 23.26935292 64.55411069 25.32110479 61.03491211 28.41113281 C57.10566804 31.23212855 54.96546144 31.28358309 50.12817383 31.2746582 C49.13287155 31.27487724 49.13287155 31.27487724 48.11746216 31.27510071 C45.92064158 31.27440312 43.72390541 31.26661795 41.52709961 31.25878906 C40.00538174 31.25692433 38.48366327 31.25550069 36.96194458 31.25450134 C32.95390164 31.25068048 28.94589485 31.24085386 24.93786621 31.22979736 C20.84912607 31.21957399 16.76038009 31.21500174 12.67163086 31.20996094 C4.64687467 31.19923121 -3.37785211 31.18215995 -11.40258789 31.16113281 C-10.71397125 26.90612696 -10.02010387 22.6520216 -9.32128906 18.39868164 C-9.0841538 16.9506775 -8.84847239 15.50243451 -8.61425781 14.05395508 C-8.27796398 11.97575874 -7.9365047 9.89846865 -7.59399414 7.82128906 C-7.3897583 6.56968994 -7.18552246 5.31809082 -6.97509766 4.02856445 C-6.02402291 -0.73492077 -4.54019968 0.03033975 0 0 Z " fill="#CEDAFC" transform="translate(445.402587890625,221.8388671875)"/>
<path d="M0 0 C1.17769455 -0.00315216 2.3553891 -0.00630432 3.56877136 -0.009552 C4.83554214 -0.00752777 6.10231293 -0.00550354 7.4074707 -0.00341797 C9.35977348 -0.00485306 9.35977348 -0.00485306 11.35151672 -0.00631714 C14.10105582 -0.00778909 16.85056235 -0.00565467 19.60009766 -0.00097656 C23.13106959 0.00473731 26.66196579 0.00142812 30.19293499 -0.00454903 C33.55611973 -0.00901998 36.91928381 -0.00589563 40.2824707 -0.00341797 C41.55531418 -0.0054422 42.82815765 -0.00746643 44.13957214 -0.009552 C45.89192924 -0.00482376 45.89192924 -0.00482376 47.6796875 0 C48.71353073 0.00079559 49.74737396 0.00159119 50.81254578 0.00241089 C53.14575195 0.12939453 53.14575195 0.12939453 54.14575195 1.12939453 C54.50171388 2.74804912 54.80439017 4.37850336 55.08325195 6.01220703 C55.25598633 7.01509766 55.4287207 8.01798828 55.60668945 9.05126953 C55.78458008 10.10830078 55.9624707 11.16533203 56.14575195 12.25439453 C56.32364258 13.28822266 56.5015332 14.32205078 56.68481445 15.38720703 C57.58027587 20.62632455 58.39909924 25.86677992 59.14575195 31.12939453 C50.38334887 31.22220746 41.62111584 31.29321639 32.85832787 31.33664322 C28.78908256 31.35748943 24.72017436 31.38575206 20.65112305 31.43115234 C16.72184577 31.47471713 12.79289209 31.49855395 8.86339188 31.5089035 C7.36669447 31.51627591 5.87001413 31.53067273 4.37345505 31.55231476 C2.27161593 31.5814921 0.1711019 31.58534486 -1.9309082 31.58349609 C-3.12559723 31.59237854 -4.32028625 31.60126099 -5.55117798 31.6104126 C-10.5804355 30.87801405 -14.62589133 28.0374053 -17.85424805 24.12939453 C-19.80317123 18.28262498 -19.8476925 12.18987191 -17.16674805 6.62939453 C-12.06905044 1.11837009 -7.26703733 0.00557946 0 0 Z " fill="#E7F0FC" transform="translate(18.854248046875,221.87060546875)"/>
<path d="M0 0 C0.93641327 -0.00570007 1.87282654 -0.01140015 2.83761597 -0.01727295 C4.82662826 -0.02674237 6.81565638 -0.0332646 8.8046875 -0.03710938 C11.83361761 -0.04676795 14.86185571 -0.07775327 17.890625 -0.109375 C19.82291264 -0.11590957 21.75520513 -0.12115825 23.6875 -0.125 C24.58880646 -0.1373468 25.49011292 -0.1496936 26.41873169 -0.16241455 C33.43039393 -0.13786455 38.18381587 0.97845402 43.6171875 5.703125 C47.09778732 9.79794831 47.08718302 13.53513338 47.01953125 18.69921875 C46.48036804 23.56687536 43.89068378 26.14338385 40.42333984 29.34277344 C35.40213505 32.57198236 29.2041584 31.68941714 23.46875 31.59375 C21.55042862 31.58526031 21.55042862 31.58526031 19.59335327 31.57659912 C16.20963608 31.55804348 12.82701658 31.52217026 9.44360352 31.4777832 C5.98463375 31.43670667 2.52555014 31.41856187 -0.93359375 31.3984375 C-7.70863454 31.35438753 -14.4831602 31.28748654 -21.2578125 31.203125 C-19.03958449 24.47041981 -16.66142953 17.82569341 -14.1328125 11.203125 C-13.77316406 10.25050781 -13.41351563 9.29789062 -13.04296875 8.31640625 C-12.69878906 7.41277344 -12.35460937 6.50914062 -12 5.578125 C-11.6891748 4.76085937 -11.37834961 3.94359375 -11.05810547 3.1015625 C-9.12372101 -1.48714205 -4.33152887 0.02015264 0 0 Z " fill="#CEDAFC" transform="translate(431.2578125,292.796875)"/>
<path d="M0 0 C1.29088531 0.0001133 1.29088531 0.0001133 2.60784912 0.00022888 C3.52777649 0.00539017 4.44770386 0.01055145 5.39550781 0.01586914 C6.81866302 0.01799156 6.81866302 0.01799156 8.27056885 0.02015686 C11.29662243 0.02574797 14.32260164 0.03829887 17.34863281 0.05102539 C19.40201716 0.05604154 21.45540267 0.06060425 23.50878906 0.06469727 C28.53876557 0.0757145 33.56868659 0.09297306 38.59863281 0.11352539 C38.91533936 0.87391113 39.2320459 1.63429688 39.55834961 2.41772461 C39.98801025 3.44913574 40.4176709 4.48054688 40.86035156 5.54321289 C41.31716309 6.63988281 41.77397461 7.73655273 42.24462891 8.86645508 C43.36645059 11.55672345 44.49158685 14.24555964 45.61816406 16.93383789 C46.21600523 18.36865669 46.81366627 19.80355056 47.41113281 21.23852539 C47.8780957 22.3484082 47.8780957 22.3484082 48.35449219 23.48071289 C50.59863281 28.8863791 50.59863281 28.8863791 50.59863281 31.11352539 C43.14010839 31.20640286 35.68170964 31.2773797 28.22272301 31.32077408 C24.75878782 31.34160649 21.29524968 31.36984278 17.83154297 31.4152832 C13.84510123 31.46725124 9.85881757 31.48650672 5.87207031 31.50415039 C4.63435883 31.52479553 3.39664734 31.54544067 2.12142944 31.56671143 C-8.57220271 31.5694948 -8.57220271 31.5694948 -13.40136719 27.11352539 C-17.32189631 22.780309 -18.03529032 19.24240334 -17.78808594 13.58227539 C-17.01099231 8.62143527 -14.97367237 5.29275427 -10.90136719 2.23852539 C-7.2011492 0.5734273 -4.04736616 -0.01190402 0 0 Z " fill="#E7F0FC" transform="translate(51.4013671875,292.886474609375)"/>
<path d="M0 0 C10.25389948 1.13932216 19.01494203 2.95608239 26 11 C33.50697297 21.80102577 34 27.64791761 34 42 C22.78 42 11.56 42 0 42 C0 28.14 0 14.28 0 0 Z " fill="#51CB7A" transform="translate(256,174)"/>
<path d="M0 0 C4.17576285 2.54792309 7.10334171 5.47279806 9 10 C9.42040609 13.78103892 9.32432224 17.5729687 9.3125 21.375 C9.32861328 22.40367187 9.34472656 23.43234375 9.36132812 24.4921875 C9.36491698 30.06208921 9.22512849 34.2354307 6 39 C1.60628126 43.06418983 -1.83164815 44.39173138 -7.875 44.26953125 C-11.6128027 43.79543495 -14.16021818 42.43199454 -17 40 C-21.34987579 34.06457098 -21.61555165 28.0103142 -21.5 20.875 C-21.51546875 19.91207031 -21.5309375 18.94914062 -21.546875 17.95703125 C-21.51481045 12.12929984 -20.95352232 8.57738089 -17 4 C-11.52248401 -0.94312418 -7.05928997 -1.91993956 0 0 Z " fill="#424C7F" transform="translate(262,265)"/>
<path d="M0 0 C4.49322252 2.45855572 6.6968496 4.96554879 8.3125 9.8125 C8.8872617 15.67506937 7.91567286 20.15966334 4.3125 24.8125 C0.69664491 27.61263073 -2.75202345 28.68120504 -7.25 29.3125 C-11.40567414 28.70803831 -14.5494453 27.58548398 -17.6875 24.8125 C-21.12339266 20.15383377 -22.53044428 15.60774192 -21.6875 9.8125 C-19.92811439 4.87789184 -17.23876804 1.79161873 -12.54296875 -0.53125 C-8.01277654 -2.13350746 -4.46821167 -1.43891562 0 0 Z " fill="#FFE26F" transform="translate(473.6875,404.1875)"/>
<path d="M0 0 C3.29224676 3.69130697 4.8614494 6.76153821 5.5 11.6875 C4.87987183 16.82570487 3.44646854 21.15787527 -0.48046875 24.70703125 C-4.05785836 27.02373894 -7.55107751 28.0106375 -11.8828125 27.7578125 C-15.86080199 26.89566269 -18.94702041 25.04174229 -21.9375 22.3125 C-24.72287223 17.61218437 -25.61540686 13.73575487 -24.9375 8.3125 C-23.2336723 4.08351228 -20.9758116 0.58405027 -16.9375 -1.6875 C-11.28838093 -3.49764783 -5.11742819 -2.93979917 0 0 Z " fill="#FFEEB0" transform="translate(54.9375,405.6875)"/>
<path d="M0 0 C4.85857844 2.29678253 7.63468979 5.17840611 10 10 C10.82454452 14.68644179 10.47650352 18.02866591 8.375 22.3125 C5.05215511 26.07256133 2.5015961 28.56165386 -2.5859375 29.453125 C-7.61980579 29.75653624 -11.09089369 29.52366712 -15.0625 26.25 C-18.58944514 22.83515826 -20.28840116 19.56113394 -20.375 14.625 C-20.23259589 8.84339323 -17.6306165 5.87767961 -13.9375 1.625 C-9.39025114 -0.89049937 -5.07641098 -0.73160041 0 0 Z " fill="#FFEEB0" transform="translate(50,45)"/>
<path d="M0 0 C4.85978996 2.29735525 7.59883576 5.19767151 10 10 C10.94838947 15.32803075 9.99731458 19.45235029 7 24 C1.90630999 28.59674464 -1.40411735 29.46232535 -8.1640625 29.41796875 C-12.63575386 28.75891782 -15.25489985 26.48939844 -18 23 C-20.54501605 18.76687566 -20.67983282 14.82597371 -20 10 C-15.40596065 0.9820709 -9.76089687 -1.40671749 0 0 Z " fill="#FFE26F" transform="translate(472,45)"/>
<path d="M0 0 C6.78217822 0 6.78217822 0 9.75 2.75 C10.32234375 3.26046875 10.8946875 3.7709375 11.484375 4.296875 C16.01535261 9.38838593 15.33261499 14.90601766 15.3125 21.375 C15.32861328 22.40367187 15.34472656 23.43234375 15.36132812 24.4921875 C15.36579025 31.41740683 14.76423547 36.15898021 9.75 41.3125 C7 43 7 43 0 44 C0 29.48 0 14.96 0 0 Z " fill="#293466" transform="translate(256,265)"/>
</svg>
