<?xml version="1.0" encoding="UTF-8"?>
<svg version="1.1" xmlns="http://www.w3.org/2000/svg" width="512" height="512">
<path d="M0 0 C2.08070557 -0.00270229 4.1614099 -0.0065908 6.24211121 -0.01159668 C10.57290844 -0.01745053 14.90337272 -0.00905837 19.23413086 0.00976562 C24.7593989 0.0326243 30.28389243 0.0193619 35.80913258 -0.00452423 C40.0944952 -0.01903302 44.37967646 -0.01435417 48.66504478 -0.00401306 C50.7018207 -0.00136352 52.7386136 -0.00455238 54.77536964 -0.01393127 C69.48861331 -0.06686856 80.84618118 0.4343159 91.9453125 11.1640625 C97.46982069 17.3984237 100.21322018 25.20311745 100.04296875 33.53125 C100.625625 33.53382812 101.20828125 33.53640625 101.80859375 33.5390625 C111.48205708 33.99535794 119.78864443 37.72589007 126.54296875 44.71875 C136.75441956 56.07227097 134.49507544 72.17600565 134.15649414 86.3059082 C133.41452117 97.94242775 133.41452117 97.94242775 137.02978516 108.57592773 C139.37177797 110.72536421 139.37177797 110.72536421 141.9074707 112.20556641 C145.88584633 114.67527941 146.55046678 118.45778733 147.59539795 122.85700989 C148.09179876 125.8230098 148.18473197 128.62414854 148.20410156 131.6315918 C148.21370911 132.84022385 148.22331665 134.0488559 148.23321533 135.29411316 C148.23959015 137.24260918 148.23959015 137.24260918 148.24609375 139.23046875 C148.24892113 139.89742075 148.2517485 140.56437275 148.25466156 141.25153542 C148.26961884 144.78382381 148.27886907 148.31607176 148.28320312 151.84838867 C148.28867064 155.47162772 148.3126717 159.09448774 148.34117508 162.71760845 C148.35993284 165.52571136 148.36501406 168.33372553 148.366539 171.14188576 C148.37098408 173.11918639 148.38956755 175.09643926 148.4085083 177.07365417 C148.38011368 188.65813467 146.59860447 197.39081052 138.66796875 206.15625 C131.637904 212.51678477 125.81903233 214.70281374 116.50488281 214.45117188 C107.65095872 214.17451325 107.65095872 214.17451325 99.984375 217.9453125 C97.7825938 221.04586 95.92211847 224.22764846 94.04296875 227.53125 C91.875 230.08203125 91.875 230.08203125 89.60546875 232.34375 C88.87585938 233.07722656 88.14625 233.81070313 87.39453125 234.56640625 C85.04296875 236.53125 85.04296875 236.53125 82.25390625 237.90234375 C78.9986548 239.52079975 77.21736035 240.58344675 75.04296875 243.53125 C72.95323245 253.1656112 73.98991855 263.61051668 78.04296875 272.53125 C80.6144664 275.10274765 82.32377004 274.77352388 85.82878113 274.79911804 C86.63809586 274.79499405 87.44741058 274.79087006 88.28125 274.78662109 C89.13354691 274.79024155 89.98584381 274.793862 90.8639679 274.79759216 C92.71970548 274.80449794 94.57546343 274.8069894 96.43121338 274.80564499 C99.37469211 274.80468121 102.31780412 274.8176074 105.26123047 274.83462524 C113.63196904 274.88092232 122.00267306 274.90547546 130.37353516 274.91210938 C135.49181707 274.91714407 140.60972113 274.94150176 145.72787476 274.97743607 C147.67334721 274.98719715 149.61887191 274.98958629 151.56436157 274.98426437 C164.53349054 274.95047711 175.29780469 275.12053988 185.28515625 284.4609375 C190.99018802 291.18019713 193.22025444 298.49687889 192.89453125 307.12890625 C192.85749065 308.66857561 192.82239869 310.20829285 192.7890625 311.74804688 C192.73386769 314.16269786 192.66874735 316.57475566 192.56982422 318.98803711 C192.14459441 329.79132314 192.67087897 336.09069867 200.04296875 344.53125 C213.36690542 365.42426434 220.03331572 390.36770266 220.25390625 415.01953125 C220.28193557 416.79493172 220.31059966 418.57032225 220.33984375 420.34570312 C220.38128172 423.10848111 220.41822687 425.87106509 220.44433594 428.6340332 C220.4718886 431.32540562 220.5177031 434.01596968 220.56640625 436.70703125 C220.57128555 437.94614006 220.57128555 437.94614006 220.57626343 439.21028137 C220.67106533 443.62508188 220.85739234 446.20517789 224.04296875 449.53125 C226.69445093 455.39242113 227.17688763 461.83724624 225.28515625 468 C222.11061096 475.49892588 218.47323216 479.88176579 211.1081897 483.45536602 C205.22280365 485.52112006 199.17255783 485.21392886 193.00621033 485.15943909 C191.49430853 485.16449094 189.98241274 485.17172469 188.47053057 485.18093723 C184.33732017 485.19979569 180.20470471 485.18766235 176.07150972 485.1702143 C171.60586443 485.15680901 167.14030438 485.17228864 162.67466736 485.18403625 C153.93522835 485.20239321 145.19601327 485.19391373 136.45658129 485.17594803 C129.35304765 485.16191019 122.2495747 485.15803178 115.14602852 485.1613903 C114.13419971 485.16186775 113.1223709 485.16234519 112.07988061 485.1628371 C110.02424552 485.16386345 107.96861044 485.16491881 105.91297538 485.16600286 C87.7455684 485.17456588 69.57826938 485.15790736 51.41088867 485.12817383 C33.78877224 485.09933316 16.1668113 485.09225543 -1.45532227 485.10766602 C-20.65386432 485.12443222 -39.85233258 485.12845842 -59.05087656 485.11095566 C-61.09855329 485.1091113 -63.14623003 485.10727657 -65.19390678 485.10545158 C-66.20135486 485.10453949 -67.20880293 485.1036274 -68.24677973 485.10268768 C-75.34100102 485.09708523 -82.43518626 485.10038671 -89.52940559 485.10699654 C-98.1759298 485.114733 -106.82230101 485.10796566 -115.46879441 485.0828215 C-119.87906055 485.07033427 -124.28908859 485.06417054 -128.69936371 485.07536316 C-132.73908617 485.08542171 -136.77833431 485.07691181 -140.81799918 485.05378198 C-142.27679297 485.04863309 -143.73562944 485.05016578 -145.19440449 485.05917663 C-154.40396625 485.11131755 -162.03715364 484.66263303 -169.296875 478.56640625 C-169.82410156 477.91542969 -170.35132813 477.26445312 -170.89453125 476.59375 C-171.43980469 475.94535156 -171.98507813 475.29695313 -172.546875 474.62890625 C-176.93318381 468.10412001 -176.68638167 461.15081675 -175.95703125 453.53125 C-174.86581439 450.17365967 -173.50370439 447.07792314 -170.95703125 444.53125 C-170.84558567 441.44587627 -170.7952743 438.37924782 -170.78125 435.29296875 C-170.75799013 433.33657851 -170.73387062 431.38019835 -170.70898438 429.42382812 C-170.67434875 426.35288373 -170.64481495 423.28229448 -170.63110352 420.21118164 C-170.48445008 392.71930215 -165.18393832 359.02306055 -145.62890625 337.94140625 C-141.19245289 332.1946499 -142.70129586 324.97186884 -143.26953125 318.15625 C-144.2017628 305.89080845 -144.13421796 295.93606466 -136.76171875 285.57421875 C-132.01153899 280.19685075 -125.25207439 276.02297959 -118.00230026 275.34972191 C-115.72241651 275.28160597 -113.45028747 275.27559912 -111.16943359 275.29174805 C-110.30691483 275.28973389 -109.44439606 275.28771973 -108.55574036 275.28564453 C-106.69132177 275.2821109 -104.82689116 275.28285141 -102.96247482 275.28742027 C-100.01192187 275.29302775 -97.06175988 275.28383279 -94.11123657 275.2702179 C-85.72550629 275.2331386 -77.3399116 275.21458064 -68.95410156 275.22583008 C-63.81821468 275.23167465 -58.68288164 275.21345798 -53.5471077 275.17994118 C-51.59108655 275.1719802 -49.63500516 275.17327358 -47.67899704 275.18396568 C-44.94732894 275.19826215 -42.21741078 275.18205691 -39.48583984 275.15893555 C-38.27322731 275.17658714 -38.27322731 275.17658714 -37.03611755 275.19459534 C-33.08941118 275.1289808 -31.36096637 274.92597677 -28.48648071 272.11701965 C-23.78584755 264.16987601 -24.4125134 252.4647152 -25.95703125 243.53125 C-28.60624397 239.34477651 -31.54633371 237.62367428 -35.95703125 235.53125 C-50.37009677 224.5773202 -60.72057546 206.01814273 -63.48046875 188.140625 C-63.72171179 185.59779296 -63.89864965 183.08411797 -63.95703125 180.53125 C-65.09140625 180.57765625 -66.22578125 180.6240625 -67.39453125 180.671875 C-83.98909195 181.15578336 -83.98909195 181.15578336 -90.65234375 174.953125 C-96.77094257 168.39114945 -98.42365865 161.97023067 -98.42578125 153.23046875 C-98.43720154 151.91584404 -98.43720154 151.91584404 -98.44885254 150.57466125 C-98.45961047 148.72826978 -98.46252425 146.88181768 -98.45800781 145.03540039 C-98.45703749 142.23673965 -98.49866515 139.44084251 -98.54296875 136.64257812 C-98.67075312 117.62172013 -98.67075312 117.62172013 -91.37231445 109.84204102 C-87.67645609 106.53125 -87.67645609 106.53125 -84.95703125 106.53125 C-84.96750488 105.45343262 -84.97797852 104.37561523 -84.98876953 103.26513672 C-85.02545491 99.19843985 -85.04810496 95.13175702 -85.06689453 91.06494141 C-85.07684312 89.31752041 -85.09040682 87.57011556 -85.10791016 85.82275391 C-85.34857991 61.14702586 -81.88348628 40.55758768 -64.32421875 21.875 C-45.91217368 3.6452524 -24.82878333 -0.11499392 0 0 Z M121.91796875 180.03125 C118.01984375 180.27875 118.01984375 180.27875 114.04296875 180.53125 C112.72296875 186.47125 111.40296875 192.41125 110.04296875 198.53125 C119.31882125 199.15488795 119.31882125 199.15488795 127.04296875 194.53125 C131.29731403 190.62185164 131.61043044 187.06053965 131.96484375 181.54296875 C131.990625 180.87910156 132.01640625 180.21523437 132.04296875 179.53125 C128.6620582 179.53125 125.29097589 179.81573939 121.91796875 180.03125 Z " fill="#020202" transform="translate(175.95703125,27.46875)"/>
<path d="M0 0 C1.47727418 -0.00761181 1.47727418 -0.00761181 2.98439229 -0.0153774 C4.07424801 -0.01587516 5.16410374 -0.01637292 6.2869854 -0.01688576 C8.01454986 -0.02345914 8.01454986 -0.02345914 9.77701461 -0.03016531 C12.98370065 -0.04124638 16.19035911 -0.04778289 19.39705992 -0.05234647 C22.85188951 -0.05829678 26.30670105 -0.06990818 29.76151848 -0.08063698 C38.11080705 -0.10517604 46.46010161 -0.11979134 54.80941516 -0.13269705 C57.167376 -0.1364082 59.52533624 -0.14038151 61.88329649 -0.14444971 C76.52290988 -0.16968798 91.16252419 -0.19174324 105.80215454 -0.20417786 C109.19430482 -0.20710761 112.58645507 -0.21006926 115.97860527 -0.21308327 C116.82171976 -0.21382932 117.66483426 -0.21457537 118.53349768 -0.21534403 C132.18856687 -0.22799505 145.84350577 -0.26121351 159.49851407 -0.3028851 C173.51529071 -0.34531024 187.53200068 -0.36887365 201.54884136 -0.37409842 C209.41977609 -0.37751214 217.29050731 -0.38926236 225.16137886 -0.42220116 C231.86551674 -0.45021102 238.5694094 -0.46119705 245.27360125 -0.4500057 C248.69345222 -0.44482108 252.11278978 -0.44769167 255.53256607 -0.47247124 C259.24353442 -0.49509558 262.95320831 -0.48689686 266.66418266 -0.47098732 C267.74065406 -0.48486941 268.81712546 -0.49875149 269.9262172 -0.51305425 C276.63097867 -0.44220704 281.20177107 0.70830492 286.35653496 5.13701439 C289.02523168 8.50867684 289.73841872 10.95258655 289.75497246 15.21123314 C289.76093437 16.24465843 289.76689629 17.27808372 289.77303886 18.34282494 C289.75934258 19.49178246 289.74564629 20.64073997 289.73153496 21.82451439 C289.72428398 23.06563988 289.717033 24.30676537 289.7095623 25.58550072 C289.53436519 41.42641982 288.37490774 57.23988664 287.3582592 73.0436306 C286.75618067 82.4160054 286.2012481 91.78574408 285.78231621 101.16826439 C285.73963615 102.12002052 285.6969561 103.07177666 285.65298271 104.05237389 C285.45574446 108.50951071 285.26835873 112.96687144 285.09139824 117.42485619 C285.02236636 119.03073792 284.95320048 120.6366139 284.88387871 122.24248314 C284.85997566 122.92496117 284.83607262 123.60743919 284.81144524 124.31059837 C284.48174536 131.70866704 283.34888609 138.69438092 282.35653496 146.13701439 C243.74653496 146.13701439 205.13653496 146.13701439 165.35653496 146.13701439 C167.68690866 135.65033272 170.76488881 130.05074338 177.35653496 121.82451439 C181.98632637 116.02621128 184.95521323 110.19089695 187.35653496 103.13701439 C187.72133965 102.19986595 188.08614433 101.26271751 188.46200371 100.29717064 C189.5363638 96.50172385 189.69995224 92.92437607 189.66903496 89.01201439 C189.66057549 87.88932152 189.66057549 87.88932152 189.65194511 86.74394798 C189.33320183 72.0154837 183.90753308 60.04506199 173.78231621 49.37529564 C168.98614507 44.94984304 163.76437286 40.91624524 157.04403496 40.51201439 C152.95223715 41.20553944 151.22167623 42.18505065 148.35653496 45.13701439 C146.67050241 48.50907948 147.13378718 52.33464495 147.07528496 56.04717064 C147.04767082 57.37113098 147.04767082 57.37113098 147.01949883 58.721838 C146.94064608 62.50829763 146.87293304 66.29493818 146.80428886 70.08159447 C146.75269263 72.84104637 146.6953994 75.60033892 146.63778496 78.35967064 C146.62420952 79.22318642 146.61063408 80.08670219 146.59664726 80.97638512 C146.46935977 87.02418958 146.46935977 87.02418958 145.35653496 88.13701439 C142.67922116 88.23682653 140.03349321 88.27581314 137.35653496 88.26201439 C136.2311834 88.26781517 136.2311834 88.26781517 135.08309746 88.27373314 C129.48314549 88.26362492 129.48314549 88.26362492 128.35653496 87.13701439 C128.23329757 84.312856 128.17038619 81.50939429 128.14559746 78.68388939 C128.11751871 76.93257812 128.08885418 75.18127617 128.05965996 73.42998314 C128.01845063 70.6606183 127.98157702 67.89142538 127.95516777 65.12187767 C127.92750864 62.4546791 127.88162457 59.78827911 127.83309746 57.12138939 C127.82821815 55.88518852 127.82821815 55.88518852 127.82324028 54.6240139 C127.72415039 49.97528259 127.32108643 46.93847519 124.35653496 43.13701439 C121.45538395 40.8805636 118.20709587 40.59978014 114.57137871 40.68779564 C110.15206062 41.58412999 106.85289275 44.42342327 103.35653496 47.13701439 C102.32528496 47.85888939 101.29403496 48.58076439 100.23153496 49.32451439 C92.44634488 56.00373039 86.01254477 68.37998614 85.14779472 78.60527611 C85.05204415 81.38940823 85.0345404 84.16381201 85.04403496 86.94951439 C85.02792168 87.88344017 85.0118084 88.81736595 84.99520683 89.77959251 C84.98577011 103.37790983 90.26800377 114.48635343 98.98153496 124.76201439 C104.89697693 131.75299127 107.05892158 137.05372073 108.35653496 146.13701439 C69.74653496 146.13701439 31.13653496 146.13701439 -8.64346504 146.13701439 C-9.63346504 134.25701439 -9.63346504 134.25701439 -10.64346504 122.13701439 C-10.97346504 121.14701439 -11.30346504 120.15701439 -11.64346504 119.13701439 C-12.88096504 118.91013939 -14.11846504 118.68326439 -15.39346504 118.44951439 C-16.08955879 118.3218972 -16.78565254 118.19428001 -17.50284004 118.06279564 C-20.47551841 118.16586295 -21.52716066 119.07497422 -23.64346504 121.13701439 C-24.28595967 123.83434328 -24.28595967 123.83434328 -24.25284004 126.89873314 C-24.2850666 128.01699486 -24.31729317 129.13525658 -24.35049629 130.28740501 C-24.37176582 132.03827415 -24.37176582 132.03827415 -24.39346504 133.82451439 C-24.42311348 135.00336205 -24.45276192 136.1822097 -24.48330879 137.39678001 C-24.55407093 140.30982122 -24.6010238 143.22342295 -24.64346504 146.13701439 C-30.58346504 146.13701439 -36.52346504 146.13701439 -42.64346504 146.13701439 C-42.95892544 119.05999704 -42.52256733 93.35161838 -28.64346504 69.13701439 C-28.31346504 69.13701439 -27.98346504 69.13701439 -27.64346504 69.13701439 C-27.59858955 69.84833519 -27.55371407 70.55965599 -27.50747871 71.29253197 C-27.29627598 74.51265041 -27.06387926 77.73089663 -26.83096504 80.94951439 C-26.76071114 82.06906517 -26.69045723 83.18861595 -26.61807442 84.34209251 C-26.53750801 85.41523705 -26.4569416 86.48838158 -26.37393379 87.59404564 C-26.30585518 88.58380394 -26.23777657 89.57356224 -26.16763496 90.59331322 C-25.5754437 93.46710959 -25.02315191 94.45737841 -22.64346504 96.13701439 C-19.14346504 96.72034772 -19.14346504 96.72034772 -15.64346504 96.13701439 C-13.54475119 94.02885008 -12.71776183 92.70105944 -12.327425 89.73770714 C-12.35630806 88.86521828 -12.38519112 87.99272942 -12.41494942 87.0938015 C-12.44226143 86.12079094 -12.46957344 85.14778038 -12.49771309 84.14528465 C-12.54581123 83.15255547 -12.59390938 82.15982628 -12.64346504 81.13701439 C-12.68576241 80.22251518 -12.72805977 79.30801598 -12.77163887 78.36580467 C-12.92408671 75.51805751 -13.10804828 72.67378667 -13.29971504 69.82842064 C-13.43658547 67.67673757 -13.5732991 65.52504453 -13.70987129 63.37334251 C-13.92478231 60.05001893 -14.14165495 56.72684603 -14.36172676 53.40386009 C-15.09559674 42.25020135 -15.78972778 31.09238482 -15.98721504 19.91435814 C-16.01505074 19.10922279 -16.04288643 18.30408745 -16.07156563 17.47455406 C-16.10683774 12.21502388 -15.09801571 9.32254735 -11.64346504 5.13701439 C-7.62065175 1.59310744 -5.3251099 0.01452266 0 0 Z " fill="#E9F1FE" transform="translate(63.64346504211426,317.8629856109619)"/>
<path d="M0 0 C1.74092171 -0.01073296 1.74092171 -0.01073296 3.51701355 -0.02168274 C4.78667465 -0.02437164 6.05633575 -0.02706055 7.36447144 -0.02983093 C8.71827874 -0.03609917 10.07208433 -0.04274629 11.42588806 -0.04974365 C15.86878266 -0.07074832 20.31167745 -0.08114453 24.75460815 -0.09111023 C26.28731173 -0.09515951 27.82001514 -0.09927648 29.35271835 -0.10346031 C36.55658611 -0.12250623 43.76044367 -0.13673699 50.96433175 -0.14507228 C59.26336655 -0.15483465 67.56213393 -0.18113034 75.86107457 -0.22157317 C82.28588902 -0.25180165 88.71062713 -0.26654762 95.13551128 -0.26985329 C98.96780266 -0.27219663 102.79980816 -0.28106263 106.63202286 -0.30631447 C110.24201754 -0.32971782 113.85154063 -0.33377984 117.46159172 -0.32355309 C119.40390458 -0.32282728 121.34619415 -0.34183312 123.28840637 -0.36161804 C133.26716162 -0.30277415 141.4203739 1.62442783 148.8444519 8.57685852 C156.3481232 16.62079414 156.67279326 24.81649494 156.68429565 35.27217102 C156.70878784 36.45166321 156.73328003 37.6311554 156.7585144 38.84638977 C156.76238159 39.97947571 156.76624878 41.11256165 156.77023315 42.27998352 C156.77845093 43.31010559 156.7866687 44.34022766 156.7951355 45.40156555 C156.18389607 48.85583622 155.07792394 50.05238215 152.30929565 52.14717102 C151.31929565 52.14717102 150.32929565 52.14717102 149.30929565 52.14717102 C149.30929565 58.41717102 149.30929565 64.68717102 149.30929565 71.14717102 C150.95929565 71.80717102 152.60929565 72.46717102 154.30929565 73.14717102 C157.97093881 76.80881417 156.72243504 82.69926017 156.74679565 87.64717102 C156.77966675 88.79443665 156.81253784 89.94170227 156.84640503 91.12373352 C156.90361988 100.25730452 155.02318026 106.74431489 149.09835815 113.76826477 C148.38421753 114.36767883 147.6700769 114.9670929 146.93429565 115.58467102 C145.87081909 116.51086243 145.87081909 116.51086243 144.78585815 117.45576477 C139.23398067 121.24750444 134.67983207 122.52091896 127.98458862 122.53193665 C127.28934082 122.53730942 126.59409302 122.54268219 125.8777771 122.54821777 C124.38118122 122.55793754 122.88452936 122.56095762 121.38790512 122.55786133 C119.01655213 122.55335464 116.6459341 122.56746097 114.2746582 122.58625793 C108.39016326 122.62911718 102.50568689 122.64029034 96.62106323 122.65248108 C91.63662119 122.66402024 86.65251738 122.68760029 81.66821671 122.72717285 C79.33658771 122.7407171 77.0054198 122.73657839 74.67376709 122.73176575 C73.24090999 122.7411074 71.80805796 122.75127649 70.37521362 122.7624054 C69.12835785 122.76445984 67.88150208 122.76651428 66.59686279 122.76863098 C63.00895657 123.18175294 61.16690009 123.97757725 58.30929565 126.14717102 C56.71968598 128.3799066 55.35632152 130.50604376 54.0163269 132.87763977 C53.4343454 133.87296471 53.4343454 133.87296471 52.84060669 134.88839722 C52.01567314 136.3022051 51.19613233 137.71917126 50.3815918 139.13899231 C49.11691645 141.34317492 47.83836262 143.53869899 46.55514526 145.73213196 C44.88293497 148.59085378 43.21467678 151.45181024 41.54953003 154.31465149 C38.88695499 158.88156353 36.16408653 163.40835442 33.37179565 167.89717102 C33.00223755 168.50198303 32.63267944 169.10679504 32.25192261 169.72993469 C29.55836097 174.03874161 27.23106557 177.50658105 22.30929565 179.14717102 C17.6197598 179.53155921 15.24486101 179.60612761 10.99679565 177.52217102 C7.52174339 174.4511946 5.635294 171.60475894 5.01281738 166.91212463 C4.86726254 164.25029824 4.81586379 161.60196902 4.7975769 158.93623352 C4.7796257 157.96809723 4.7616745 156.99996094 4.74317932 156.00248718 C4.6892177 152.92575875 4.65522576 149.84918422 4.62179565 146.77217102 C4.58861012 144.67970176 4.55411932 142.58725276 4.51828003 140.49482727 C4.4334992 135.37905313 4.36662038 130.26332351 4.30929565 125.14717102 C1.33512513 123.59437552 -1.11967309 122.79042112 -4.44070435 122.27217102 C-12.523538 120.70545436 -17.59748425 117.81594234 -23.05007935 111.63545227 C-29.19902179 102.30955623 -29.2832309 93.61874746 -29.22195435 82.77607727 C-29.2246541 81.08653541 -29.22854052 79.39699508 -29.23355103 77.7074585 C-29.23942502 74.17801523 -29.2309525 70.64897882 -29.21218872 67.11958313 C-29.18941773 62.61967032 -29.20252346 58.12071301 -29.22647858 53.6208353 C-29.24100876 50.13498886 -29.23629742 46.64936482 -29.22596741 43.16351128 C-29.22331909 41.50549643 -29.22650235 39.8474607 -29.23588562 38.18947029 C-29.28290495 27.54705837 -28.53239319 19.02269513 -22.56570435 9.89717102 C-15.92703712 3.5471415 -9.16656416 0.03884843 0 0 Z " fill="#B1E39E" transform="translate(355.6907043457031,-0.1471710205078125)"/>
<path d="M0 0 C16.29016388 4.59649361 40.81534949 6.40970807 56.50390625 -1.43457031 C64.0607764 -2.08750102 71.37063512 -2.42238419 77.50390625 2.56542969 C82.78931842 8.39395439 83.6456889 13.42368626 83.71484375 21.17871094 C83.74291637 22.91895465 83.77158086 24.6591889 83.80078125 26.39941406 C83.84199524 29.13793634 83.87889038 31.87628265 83.90527344 34.61499023 C83.93296913 37.26160006 83.97884244 39.90741133 84.02734375 42.55371094 C84.03222305 43.77275871 84.03222305 43.77275871 84.03720093 45.01643372 C84.14251132 49.9154797 84.80331174 53.32020433 87.50390625 57.56542969 C91.76583056 61.14932058 95.06415472 61.91446416 100.50390625 62.56542969 C100.55368417 67.81240487 100.58980335 73.05923979 100.61376953 78.30639648 C100.62377036 80.08799639 100.63737541 81.86958013 100.65478516 83.65112305 C100.67929582 86.22546402 100.69044873 88.79958626 100.69921875 91.37402344 C100.70954132 92.15877548 100.71986389 92.94352753 100.73049927 93.75205994 C100.73157297 99.15465604 100.2536955 104.41924413 98.50390625 109.56542969 C97.84390625 110.22542969 97.18390625 110.88542969 96.50390625 111.56542969 C95.50359375 110.91703125 94.50328125 110.26863281 93.47265625 109.60058594 C87.63173652 106.6916948 81.47532891 106.92975797 75.09521484 106.98901367 C73.00717368 107.00290795 70.92360369 106.96870642 68.8359375 106.93066406 C61.33901371 106.88725714 55.14529021 107.17409523 49.50390625 112.56542969 C44.70941808 118.71220939 43.70111173 123.9445352 44.50390625 131.56542969 C46.29370562 137.47688133 49.45887043 141.13480533 54.50390625 144.56542969 C59.86620741 147.05952325 65.67707006 147.17144432 71.50390625 147.56542969 C62.09965909 157.8342324 46.89107794 162.85547898 33.21704102 163.70800781 C12.4972869 164.51305723 -6.58623042 160.40145611 -22.59619141 146.4140625 C-24.981598 144.20662572 -27.24180825 141.90736236 -29.49609375 139.56542969 C-30.17027344 138.91058594 -30.84445313 138.25574219 -31.5390625 137.58105469 C-46.65681988 121.96270931 -48.84225591 99.92306007 -48.62109375 79.37792969 C-48.61103965 77.74186748 -48.60191811 76.10579927 -48.59375 74.46972656 C-48.57193867 70.50147652 -48.53754428 66.53352118 -48.49609375 62.56542969 C-47.87976074 62.44063232 -47.26342773 62.31583496 -46.62841797 62.18725586 C-45.81904785 62.01685791 -45.00967773 61.84645996 -44.17578125 61.67089844 C-43.37382324 61.50485107 -42.57186523 61.33880371 -41.74560547 61.16772461 C-38.50794773 60.30085879 -36.75730716 59.02616193 -34.49609375 56.56542969 C-31.72988898 51.21115969 -31.06582114 47.00748099 -31.08984375 41.03417969 C-31.07900757 40.23943237 -31.06817139 39.44468506 -31.05700684 38.62585449 C-31.02297816 36.10562897 -31.0072012 33.58585389 -30.99609375 31.06542969 C-30.98144786 27.74208527 -30.94765274 24.4197323 -30.90234375 21.09667969 C-30.90536499 20.34543823 -30.90838623 19.59419678 -30.91149902 18.82019043 C-30.82934124 12.98895187 -29.73984839 8.12534976 -25.77734375 3.60449219 C-25.18953125 3.13785156 -24.60171875 2.67121094 -23.99609375 2.19042969 C-23.40828125 1.70832031 -22.82046875 1.22621094 -22.21484375 0.72949219 C-15.91778562 -3.53533355 -6.85222605 -1.93726023 0 0 Z " fill="#FEDCCD" transform="translate(174.49609375,106.4345703125)"/>
<path d="M0 0 C1.93666696 -0.00202507 3.87333318 -0.00494009 5.80999756 -0.00869751 C9.84769019 -0.01309627 13.8851824 -0.00676639 17.92285156 0.00732422 C23.08297699 0.02446072 28.24263572 0.01453111 33.40274429 -0.00339317 C37.39373259 -0.01425818 41.38461103 -0.01077299 45.37560272 -0.0030098 C47.27809455 -0.00101769 49.18059655 -0.00343206 51.08307648 -0.01044846 C53.74347725 -0.01811304 56.40313109 -0.00639119 59.06347656 0.01025391 C59.83872681 0.00418121 60.61397705 -0.00189148 61.41271973 -0.00814819 C67.45839645 0.06151966 73.17382656 1.11037062 77.91796875 5.15234375 C78.37300781 5.74917969 78.82804688 6.34601562 79.296875 6.9609375 C79.76996094 7.56035156 80.24304688 8.15976562 80.73046875 8.77734375 C83.42620204 12.64837945 83.53677101 16.76483559 84.1640625 21.35546875 C85.24732397 26.09625912 86.9049214 28.68767418 90.796875 31.5859375 C94.09685341 33.3482664 97.23412092 33.87226911 100.921875 34.3984375 C107.48739092 35.34924879 111.10392196 37.07364834 115.171875 42.4609375 C117.40860833 46.35451034 117.98913823 49.1111388 118.03637695 53.52490234 C118.05562981 55.09200455 118.05562981 55.09200455 118.07527161 56.69076538 C118.08265854 57.81890656 118.09004547 58.94704773 118.09765625 60.109375 C118.105728 61.26966217 118.11379974 62.42994934 118.12211609 63.62539673 C118.13595248 66.0816295 118.14667662 68.53788147 118.15454102 70.99414062 C118.17177517 74.75167126 118.21566935 78.50832699 118.25976562 82.265625 C118.26989069 84.65103519 118.27840738 87.03645287 118.28515625 89.421875 C118.30266434 90.54596771 118.32017242 91.67006042 118.33821106 92.82821655 C118.31657812 100.60006481 118.31657812 100.60006481 116.05566406 104.5480957 C113.09390651 107.04333364 109.95083214 108.13624422 106.296875 109.2109375 C105.62462891 109.42685547 104.95238281 109.64277344 104.25976562 109.86523438 C101.35598545 110.7735668 98.91772425 111.3984375 95.859375 111.3984375 C95.8500293 110.36549561 95.84068359 109.33255371 95.83105469 108.26831055 C95.79076957 104.38573218 95.72491058 100.5039146 95.65185547 96.62182617 C95.62386675 94.95102818 95.60254388 93.28010322 95.58837891 91.60913086 C95.47796812 79.3130491 94.77512131 68.17056555 86.6953125 58.18359375 C79.40541219 51.09532898 70.56720248 48.01355238 60.546875 48.0859375 C59.41693115 48.08895874 59.41693115 48.08895874 58.26416016 48.09204102 C53.46881315 48.17854166 49.34653793 48.67559903 44.9140625 50.64453125 C30.58194935 55.90327238 10.71235169 53.55006539 -3.5703125 49.3046875 C-12.24902506 47.10177578 -21.69160216 47.11219402 -29.8671875 51.0234375 C-38.46986137 56.22642925 -43.9853911 62.79899746 -47.140625 72.3984375 C-48.18698252 79.08898352 -48.02791984 85.89488071 -48.015625 92.6484375 C-48.0337864 94.47268481 -48.05459976 96.29690773 -48.078125 98.12109375 C-48.12951479 102.54718744 -48.14508836 106.97206221 -48.140625 111.3984375 C-53.05420526 110.75186572 -57.3185379 109.80389588 -61.953125 108.0234375 C-63.07332031 107.60320312 -64.19351563 107.18296875 -65.34765625 106.75 C-68.140625 105.3984375 -68.140625 105.3984375 -70.140625 102.3984375 C-70.39459229 100.17553711 -70.39459229 100.17553711 -70.39941406 97.55078125 C-70.40571838 96.5654541 -70.41202271 95.58012695 -70.41851807 94.56494141 C-70.4144696 93.49937012 -70.41042114 92.43379883 -70.40625 91.3359375 C-70.40816345 90.23427246 -70.4100769 89.13260742 -70.41204834 87.99755859 C-70.41341085 85.66064222 -70.40970983 83.32371829 -70.40136719 80.98681641 C-70.39075018 77.44025212 -70.40121806 73.89420387 -70.4140625 70.34765625 C-70.41273932 68.07291556 -70.41017367 65.79817519 -70.40625 63.5234375 C-70.41029846 62.47406006 -70.41434692 61.42468262 -70.41851807 60.34350586 C-70.31075038 43.06899982 -65.66565454 29.76682903 -53.890625 16.94921875 C-38.53413265 2.07261678 -20.38774725 -0.07556208 0 0 Z " fill="#746D77" transform="translate(177.140625,42.6015625)"/>
<path d="M0 0 C1.74092171 -0.01073296 1.74092171 -0.01073296 3.51701355 -0.02168274 C4.78667465 -0.02437164 6.05633575 -0.02706055 7.36447144 -0.02983093 C8.71827874 -0.03609917 10.07208433 -0.04274629 11.42588806 -0.04974365 C15.86878266 -0.07074832 20.31167745 -0.08114453 24.75460815 -0.09111023 C26.28731173 -0.09515951 27.82001514 -0.09927648 29.35271835 -0.10346031 C36.55658611 -0.12250623 43.76044367 -0.13673699 50.96433175 -0.14507228 C59.26336655 -0.15483465 67.56213393 -0.18113034 75.86107457 -0.22157317 C82.28588902 -0.25180165 88.71062713 -0.26654762 95.13551128 -0.26985329 C98.96780266 -0.27219663 102.79980816 -0.28106263 106.63202286 -0.30631447 C110.24201754 -0.32971782 113.85154063 -0.33377984 117.46159172 -0.32355309 C119.40390458 -0.32282728 121.34619415 -0.34183312 123.28840637 -0.36161804 C133.26716162 -0.30277415 141.4203739 1.62442783 148.8444519 8.57685852 C156.3481232 16.62079414 156.67279326 24.81649494 156.68429565 35.27217102 C156.70878784 36.45166321 156.73328003 37.6311554 156.7585144 38.84638977 C156.76238159 39.97947571 156.76624878 41.11256165 156.77023315 42.27998352 C156.77845093 43.31010559 156.7866687 44.34022766 156.7951355 45.40156555 C156.18353025 48.85790358 155.06059318 50.03064469 152.30929565 52.14717102 C148.85690784 52.65064424 147.04147551 52.56273256 143.99679565 50.83467102 C141.18878047 48.02665583 141.18467011 45.24403102 141.1335144 41.47138977 C141.10966675 40.56066711 141.08581909 39.64994446 141.06124878 38.71162415 C141.01854754 36.80559628 140.98715244 34.89927897 140.96749878 32.99287415 C140.79445385 27.28239135 140.35738259 23.52073228 136.30929565 19.14717102 C130.50116101 15.1021452 124.29262371 15.72500796 117.49850464 15.75898743 C115.56340027 15.75110199 115.56340027 15.75110199 113.58920288 15.74305725 C110.06238885 15.7294182 106.53583903 15.73466766 103.00902057 15.74419451 C99.31313046 15.75180726 95.61726248 15.74474117 91.92137146 15.74003601 C85.71673534 15.73458383 79.51220649 15.74175661 73.30758667 15.75605774 C66.13884374 15.77239049 58.9703567 15.76708917 51.80161995 15.75057852 C45.64009076 15.73695686 39.47863853 15.73504708 33.31709915 15.74289453 C29.63989414 15.74756641 25.96280935 15.74820919 22.28561211 15.73828506 C18.18715166 15.72799579 14.08913133 15.74226381 9.99069214 15.75898743 C8.77444656 15.75291473 7.55820099 15.74684204 6.30509949 15.74058533 C5.18781464 15.7490448 4.07052979 15.75750427 2.91938782 15.76622009 C1.46680903 15.76791671 1.46680903 15.76791671 -0.01511478 15.7696476 C-3.16812302 16.21453439 -5.04354539 17.42901945 -7.69070435 19.14717102 C-8.35070435 19.14717102 -9.01070435 19.14717102 -9.69070435 19.14717102 C-10.00007935 19.93092102 -10.30945435 20.71467102 -10.62820435 21.52217102 C-11.69070435 24.14717102 -11.69070435 24.14717102 -12.69070435 26.14717102 C-12.8082914 28.32023476 -12.86054131 30.49692902 -12.88357544 32.67304993 C-12.89175293 33.34324158 -12.89993042 34.01343323 -12.90835571 34.70393372 C-12.93321272 36.92719127 -12.94973102 39.15038471 -12.96414185 41.37373352 C-12.96946552 42.13419353 -12.9747892 42.89465355 -12.9802742 43.67815781 C-13.0070138 47.70736941 -13.02638151 51.73655001 -13.040802 55.76582336 C-13.05411432 59.09292765 -13.08191426 62.41941468 -13.12283325 65.74629211 C-13.17230563 69.76871348 -13.19694145 73.79057705 -13.20402908 77.81328964 C-13.2107195 79.34183716 -13.22588389 80.87037332 -13.24991989 82.39874649 C-13.50890702 93.15960651 -13.50890702 93.15960651 -9.15667725 102.7651825 C-5.79002457 105.93896243 -2.29166431 106.46409968 2.18429565 107.02217102 C10.26424164 108.29846868 14.57451255 111.70260513 19.30929565 118.14717102 C21.36441437 122.27136129 21.61027435 125.83680835 21.72335815 130.41670227 C21.7427243 131.09770493 21.76209045 131.77870758 21.78204346 132.48034668 C21.84147697 134.63999695 21.88807765 136.79970159 21.93429565 138.95967102 C21.97250893 140.43039646 22.01156259 141.90110031 22.05148315 143.3717804 C22.14714748 146.96337891 22.2313114 150.55514015 22.30929565 154.14717102 C22.84820435 153.23016418 23.38711304 152.31315735 23.94235229 151.36836243 C25.97156312 147.91798723 28.00623675 144.47085905 30.04244995 141.02461243 C30.91760654 139.54174838 31.79134272 138.05804497 32.6635437 136.57344055 C48.16492983 110.19529296 48.16492983 110.19529296 57.30929565 107.14717102 C59.62309869 107.04387145 61.93975127 107.00128286 64.25582886 106.98945618 C64.95863983 106.98437546 65.66145081 106.97929474 66.38555908 106.97406006 C67.91115895 106.96336507 69.43677442 106.95474147 70.96239662 106.94794083 C73.37972285 106.93613759 75.79687157 106.91668056 78.21412659 106.89482117 C85.08685371 106.83325721 91.95956269 106.77919731 98.83248901 106.74580383 C103.03768287 106.72482276 107.24255284 106.68949151 111.44756126 106.64504623 C113.04743823 106.63091256 114.64737249 106.62216974 116.24730873 106.61899185 C118.49007521 106.61406607 120.73198699 106.59086646 122.97457886 106.56367493 C124.24904373 106.55558807 125.52350861 106.54750122 126.83659363 106.53916931 C131.4996507 106.01280385 134.94605767 104.65143362 138.12179565 101.14717102 C140.03354866 97.92737649 140.43356904 95.28429705 140.4850769 91.61982727 C140.50892456 90.74519836 140.53277222 89.87056946 140.55734253 88.96943665 C140.60021457 87.13373377 140.63151791 85.29772324 140.65109253 83.46162415 C140.8630394 76.76311715 140.8630394 76.76311715 143.16867065 73.58076477 C146.01153455 71.67687599 147.87956053 71.14717102 151.30929565 71.14717102 C153.9616394 72.35810852 153.9616394 72.35810852 156.30929565 75.14717102 C157.08685369 79.35884508 157.00540222 83.50103677 156.93429565 87.77217102 C156.95363159 88.91041321 156.97296753 90.0486554 156.9928894 91.22138977 C156.94106362 100.24944189 154.95203802 106.82865489 149.09835815 113.76826477 C148.38421753 114.36767883 147.6700769 114.9670929 146.93429565 115.58467102 C145.87081909 116.51086243 145.87081909 116.51086243 144.78585815 117.45576477 C139.23398067 121.24750444 134.67983207 122.52091896 127.98458862 122.53193665 C127.28934082 122.53730942 126.59409302 122.54268219 125.8777771 122.54821777 C124.38118122 122.55793754 122.88452936 122.56095762 121.38790512 122.55786133 C119.01655213 122.55335464 116.6459341 122.56746097 114.2746582 122.58625793 C108.39016326 122.62911718 102.50568689 122.64029034 96.62106323 122.65248108 C91.63662119 122.66402024 86.65251738 122.68760029 81.66821671 122.72717285 C79.33658771 122.7407171 77.0054198 122.73657839 74.67376709 122.73176575 C73.24090999 122.7411074 71.80805796 122.75127649 70.37521362 122.7624054 C69.12835785 122.76445984 67.88150208 122.76651428 66.59686279 122.76863098 C63.00895657 123.18175294 61.16690009 123.97757725 58.30929565 126.14717102 C56.71968598 128.3799066 55.35632152 130.50604376 54.0163269 132.87763977 C53.4343454 133.87296471 53.4343454 133.87296471 52.84060669 134.88839722 C52.01567314 136.3022051 51.19613233 137.71917126 50.3815918 139.13899231 C49.11691645 141.34317492 47.83836262 143.53869899 46.55514526 145.73213196 C44.88293497 148.59085378 43.21467678 151.45181024 41.54953003 154.31465149 C38.88695499 158.88156353 36.16408653 163.40835442 33.37179565 167.89717102 C33.00223755 168.50198303 32.63267944 169.10679504 32.25192261 169.72993469 C29.55836097 174.03874161 27.23106557 177.50658105 22.30929565 179.14717102 C17.6197598 179.53155921 15.24486101 179.60612761 10.99679565 177.52217102 C7.52174339 174.4511946 5.635294 171.60475894 5.01281738 166.91212463 C4.86726254 164.25029824 4.81586379 161.60196902 4.7975769 158.93623352 C4.7796257 157.96809723 4.7616745 156.99996094 4.74317932 156.00248718 C4.6892177 152.92575875 4.65522576 149.84918422 4.62179565 146.77217102 C4.58861012 144.67970176 4.55411932 142.58725276 4.51828003 140.49482727 C4.4334992 135.37905313 4.36662038 130.26332351 4.30929565 125.14717102 C1.33512513 123.59437552 -1.11967309 122.79042112 -4.44070435 122.27217102 C-12.523538 120.70545436 -17.59748425 117.81594234 -23.05007935 111.63545227 C-29.19902179 102.30955623 -29.2832309 93.61874746 -29.22195435 82.77607727 C-29.2246541 81.08653541 -29.22854052 79.39699508 -29.23355103 77.7074585 C-29.23942502 74.17801523 -29.2309525 70.64897882 -29.21218872 67.11958313 C-29.18941773 62.61967032 -29.20252346 58.12071301 -29.22647858 53.6208353 C-29.24100876 50.13498886 -29.23629742 46.64936482 -29.22596741 43.16351128 C-29.22331909 41.50549643 -29.22650235 39.8474607 -29.23588562 38.18947029 C-29.28290495 27.54705837 -28.53239319 19.02269513 -22.56570435 9.89717102 C-15.92703712 3.5471415 -9.16656416 0.03884843 0 0 Z " fill="#000000" transform="translate(355.6907043457031,-0.1471710205078125)"/>
<path d="M0 0 C35.91631567 -0.11445599 71.83259935 -0.20255424 107.74905986 -0.25532665 C111.98977067 -0.26158015 116.23048113 -0.26805176 120.47119141 -0.2746582 C121.3154369 -0.27596976 122.1596824 -0.27728131 123.02951109 -0.2786326 C136.69763263 -0.3003864 150.36564896 -0.33980777 164.0337081 -0.38576398 C178.05945408 -0.43252937 192.08514498 -0.46029557 206.11096573 -0.47044247 C214.76499946 -0.47730148 223.41873583 -0.49896114 232.07267803 -0.53958233 C238.00783166 -0.56602174 243.94283166 -0.57399831 249.8780399 -0.56750689 C253.30193543 -0.56430579 256.72531154 -0.56919612 260.14911461 -0.59602737 C263.86455437 -0.62089261 267.57872041 -0.61492696 271.29418945 -0.60127258 C272.37202509 -0.61583679 273.44986073 -0.630401 274.56035805 -0.64540654 C281.26976248 -0.57872811 285.84236496 0.5666579 291 5 C293.66869672 8.37166245 294.38188376 10.81557216 294.3984375 15.07421875 C294.40439941 16.10764404 294.41036133 17.14106934 294.41650391 18.20581055 C294.40280762 19.35476807 294.38911133 20.50372559 294.375 21.6875 C294.36774902 22.92862549 294.36049805 24.16975098 294.35302734 25.44848633 C294.17783023 41.28940543 293.01837278 57.10287225 292.00172424 72.90661621 C291.39964572 82.27899101 290.84471314 91.64872969 290.42578125 101.03125 C290.3831012 101.98300613 290.34042114 102.93476227 290.29644775 103.9153595 C290.0992095 108.37249632 289.91182377 112.82985705 289.73486328 117.2878418 C289.6658314 118.89372353 289.59666553 120.49959951 289.52734375 122.10546875 C289.5034407 122.78794678 289.47953766 123.4704248 289.45491028 124.17358398 C289.12521041 131.57165265 287.99235113 138.55736653 287 146 C268.19 146 249.38 146 230 146 C230 129.91442541 230 129.91442541 230.44311523 122.07983398 C230.49027679 121.19158936 230.53743835 120.30334473 230.58602905 119.38818359 C230.73992155 116.50727808 230.89913488 113.62669606 231.05859375 110.74609375 C231.1685856 108.71217875 231.27828567 106.67824795 231.38771057 104.64430237 C231.61660127 100.40409657 231.84795239 96.16403515 232.08129883 91.92407227 C232.37851301 86.5227134 232.67113967 81.1211188 232.96211147 75.71942043 C233.18820209 71.52660776 233.4159279 67.33388522 233.64421272 63.14119148 C233.75255088 61.15074393 233.86058403 59.16027974 233.96829033 57.1697979 C234.48698968 47.60985946 235.01722126 38.05729177 235.79986572 28.51472473 C236.07260841 25.08766173 236.2399244 21.68779168 236.3125 18.25 C236.34988281 17.07953125 236.38726562 15.9090625 236.42578125 14.703125 C236.06481522 9.93697643 236.06481522 9.93697643 232 2 C117.16 1.505 117.16 1.505 0 1 C0 0.67 0 0.34 0 0 Z " fill="#D9E6F6" transform="translate(59,318)"/>
<path d="M0 0 C17.20282008 -0.11693034 34.4055157 -0.20503544 51.60864258 -0.25906086 C59.59681503 -0.28481537 67.5847402 -0.3199128 75.57275391 -0.37719727 C82.53714067 -0.42711708 89.50134829 -0.45931104 96.465909 -0.47044247 C100.1518656 -0.47694687 103.83730983 -0.49217533 107.52310181 -0.52865028 C111.64323411 -0.56909077 115.76248224 -0.56994396 119.8828125 -0.56762695 C121.09769852 -0.58560333 122.31258453 -0.60357971 123.56428528 -0.62210083 C130.6757471 -0.57884781 135.53536307 0.26163507 141 5 C145.04210227 9.42859811 144.51631523 14.92681273 144.625 20.625 C144.67603036 22.51312322 144.73056399 24.4011559 144.7890625 26.2890625 C144.80662598 27.12131348 144.82418945 27.95356445 144.84228516 28.81103516 C144.92220784 31.17868066 144.92220784 31.17868066 146 34 C147.98 34.99 149.96 35.98 152 37 C152 43.6 152 50.2 152 57 C150.35 57.66 148.7 58.32 147 59 C144.58190883 61.41809117 144.74308929 62.05030928 144.69140625 65.359375 C144.66626953 66.22820312 144.64113281 67.09703125 144.61523438 67.9921875 C144.58037815 69.81503878 144.54906542 71.63796163 144.52148438 73.4609375 C144.36309371 78.69941908 143.93058008 82.47348956 141 87 C136.72709376 90.95243827 133.63243859 92.12743932 127.88598633 92.11352539 C126.84513382 92.11344986 125.80428131 92.11337433 124.73188782 92.11329651 C123.60993515 92.10813522 122.48798248 92.10297394 121.33203125 92.09765625 C120.18208176 92.0962413 119.03213226 92.09482635 117.84733582 92.09336853 C114.16903092 92.08776429 110.49078655 92.07521104 106.8125 92.0625 C104.32096442 92.05748555 101.82942789 92.05292255 99.33789062 92.04882812 C93.22523971 92.03779347 87.11262418 92.02105118 81 92 C81.639375 90.906875 82.27875 89.81375 82.9375 88.6875 C85.51331151 83.61779324 85.7937554 78.60985308 86 73 C85.0965535 73.01110306 84.19310699 73.02220612 83.26228333 73.03364563 C74.74327642 73.13387948 66.22446788 73.20998112 57.7050066 73.25906086 C53.32513564 73.28514188 48.94575238 73.3205118 44.56616211 73.37719727 C40.33861698 73.43157163 36.11154057 73.46143179 31.88367271 73.47438622 C30.27169097 73.48361648 28.65973455 73.50164159 27.04795265 73.52865028 C24.78767336 73.56501547 22.52932415 73.56994264 20.26879883 73.56762695 C18.98306473 73.57873001 17.69733063 73.58983307 16.37263489 73.60127258 C12.1080035 72.84097507 10.64356186 71.36287105 8 68 C7.375 65 7.375 65 8 62 C10.64356186 58.63712895 12.1080035 57.15902493 16.37263489 56.39872742 C17.65836899 56.40983047 18.94410309 56.42093353 20.26879883 56.43237305 C20.98153961 56.43164291 21.6942804 56.43091278 22.42861938 56.43016052 C24.7722118 56.43362954 27.11378842 56.47245293 29.45703125 56.51171875 C31.08655207 56.52104944 32.71608695 56.52816435 34.34562683 56.53315735 C38.62526479 56.55220731 42.90404824 56.60128983 47.18334961 56.65667725 C51.55375612 56.70791356 55.92430131 56.73068068 60.29492188 56.75585938 C68.86371624 56.80941171 77.43165323 56.89733021 86 57 C86 50.73 86 44.46 86 38 C83.53144531 38.04640625 81.06289063 38.0928125 78.51953125 38.140625 C76.12005671 38.17184904 73.72060508 38.19612046 71.32104492 38.21972656 C69.65752987 38.23980207 67.99408504 38.26706876 66.33081055 38.30175781 C63.9352076 38.35045766 61.54054008 38.37300856 59.14453125 38.390625 C58.03486748 38.42159271 58.03486748 38.42159271 56.90278625 38.45318604 C53.27361234 38.45475163 51.17761956 38.10937245 48.0612793 36.19042969 C46 34 46 34 44.875 30.5625 C45 27 45 27 46.98510742 24.30786133 C50.80748485 21.38188078 53.74789828 21.35533905 58.36328125 21.51171875 C59.15526413 21.51879349 59.94724701 21.52586823 60.76322937 21.53315735 C63.28063389 21.56103756 65.79577356 21.623758 68.3125 21.6875 C70.0240563 21.71259139 71.73564765 21.73540309 73.44726562 21.75585938 C77.63237654 21.81084253 81.81580496 21.89706582 86 22 C85.87383133 19.90966149 85.73783263 17.81991466 85.59765625 15.73046875 C85.52297119 14.56668701 85.44828613 13.40290527 85.37133789 12.20385742 C84.93028212 8.39848275 83.99352572 6.20697616 82 3 C82 2.34 82 1.68 82 1 C54.94 1 27.88 1 0 1 C0 0.67 0 0.34 0 0 Z " fill="#90CE9D" transform="translate(353,15)"/>
<path d="M0 0 C1.87623137 -0.00761181 1.87623137 -0.00761181 3.79036641 -0.0153774 C5.19130782 -0.01597913 6.59224928 -0.01647819 7.99319077 -0.01688576 C9.47144523 -0.02089886 10.94969859 -0.02533683 12.42795062 -0.03016531 C16.50501245 -0.04215358 20.58206243 -0.04778447 24.65913844 -0.05234647 C29.05054171 -0.05829401 33.44193075 -0.06990593 37.83332443 -0.08063698 C48.4458798 -0.10517997 59.05843988 -0.11979066 69.6710149 -0.13269705 C72.66705838 -0.13640751 75.66310139 -0.14038086 78.6591444 -0.14444971 C97.25301846 -0.1696841 115.84689323 -0.19174331 134.44078064 -0.20417786 C138.74940875 -0.20710769 143.05803683 -0.21006933 147.36666489 -0.21308327 C148.43759072 -0.21382932 149.50851656 -0.21457537 150.6118947 -0.21534403 C167.96715449 -0.22800245 185.32231195 -0.26123097 202.67752388 -0.3028851 C220.48435228 -0.34527381 238.29112824 -0.36886933 256.09800696 -0.37409842 C266.10055516 -0.37751596 276.10294342 -0.38931145 286.10544205 -0.42220116 C294.6226786 -0.45016074 303.13972245 -0.46121903 311.65700135 -0.4500057 C316.00413458 -0.44480857 320.35086399 -0.44777377 324.69793892 -0.47247124 C328.67681035 -0.49488849 332.65498614 -0.49428319 336.63386914 -0.47526737 C338.07402375 -0.47245672 339.51422479 -0.47812493 340.95430449 -0.4930803 C353.05967418 -0.61111908 353.05967418 -0.61111908 357.01029205 2.54610825 C359.98685449 6.12685978 359.98685449 6.12685978 359.91402817 9.13701439 C359.92949692 9.77638939 359.94496567 10.41576439 359.96090317 11.07451439 C358.6008801 14.59457408 356.46318049 16.50144996 353.16402817 18.13701439 C348.40581383 18.89616026 343.65250847 18.80805372 338.84711838 18.76520348 C337.36469145 18.77024975 335.88227061 18.7774792 334.39986378 18.78670162 C330.3297028 18.80563957 326.26014224 18.7933818 322.18999636 18.77597868 C317.79933977 18.76261595 313.40877167 18.77803778 309.01812363 18.78980064 C300.41851094 18.80818933 291.81912531 18.79965694 283.21951967 18.78171242 C276.23170241 18.76769336 269.24394684 18.76379212 262.25611687 18.76715469 C261.26201874 18.76763214 260.2679206 18.76810958 259.24369829 18.76860149 C257.22429313 18.7696278 255.20488799 18.77068316 253.18548287 18.77176725 C235.3251771 18.78033669 217.46498106 18.76365092 199.604702 18.73393822 C182.26741554 18.7050959 164.93028712 18.69801902 147.59298325 18.7134304 C128.71972431 18.73018412 109.84654042 18.73423558 90.97327954 18.71672004 C88.96156093 18.71487563 86.94984232 18.7130409 84.9381237 18.71121597 C83.45336055 18.70984784 83.45336055 18.70984784 81.93860219 18.70845206 C74.957263 18.70284184 67.9759604 18.70615834 60.99462318 18.71276093 C52.48952003 18.72048519 43.98457256 18.71377416 35.47950082 18.68858588 C31.13861575 18.67607023 26.7979733 18.66996927 22.45707893 18.68112755 C18.4852511 18.69114453 14.51390787 18.68276513 10.54213918 18.65954637 C9.10348548 18.65437325 7.6647886 18.65597377 6.22615355 18.66494102 C4.27383527 18.6761001 2.32141823 18.66033349 0.36914349 18.64317226 C-1.25896514 18.64138504 -1.25896514 18.64138504 -2.91996485 18.63956171 C-6.54087931 18.01552999 -8.21480397 16.66017213 -10.83597183 14.13701439 C-12.26259402 11.28377002 -12.14631051 9.3024689 -11.83597183 6.13701439 C-8.27590597 0.7969156 -6.23769455 0.01337988 0 0 Z " fill="#9AC3F8" transform="translate(26.83597183227539,478.8629856109619)"/>
<path d="M0 0 C11.33556965 -0.06961859 22.67108812 -0.12287152 34.00682831 -0.15543652 C39.27090526 -0.17106886 44.53483556 -0.19226277 49.79882812 -0.22631836 C54.88222183 -0.25899844 59.96547477 -0.2768713 65.04896545 -0.28463173 C66.98497227 -0.29015972 68.9209717 -0.30095449 70.85691833 -0.31719017 C73.5760034 -0.33907941 76.29451239 -0.34196213 79.01367188 -0.34057617 C79.80777466 -0.351362 80.60187744 -0.36214783 81.42004395 -0.3732605 C87.53055002 -0.33972544 93.2569467 0.66293941 98.05859375 4.75390625 C98.51363281 5.35074219 98.96867187 5.94757812 99.4375 6.5625 C99.91058594 7.16191406 100.38367188 7.76132812 100.87109375 8.37890625 C103.56682704 12.24994195 103.67739601 16.36639809 104.3046875 20.95703125 C105.38794897 25.69782162 107.0455464 28.28923668 110.9375 31.1875 C114.23747841 32.9498289 117.37474592 33.47383161 121.0625 34 C127.62801592 34.95081129 131.24454696 36.67521084 135.3125 42.0625 C137.54923333 45.95607284 138.12976323 48.7127013 138.17700195 53.12646484 C138.19625481 54.69356705 138.19625481 54.69356705 138.21589661 56.29232788 C138.22328354 57.42046906 138.23067047 58.54861023 138.23828125 59.7109375 C138.246353 60.87122467 138.25442474 62.03151184 138.26274109 63.22695923 C138.27657748 65.683192 138.28730162 68.13944397 138.29516602 70.59570312 C138.31240017 74.35323376 138.35629435 78.10988949 138.40039062 81.8671875 C138.41051569 84.25259769 138.41903238 86.63801537 138.42578125 89.0234375 C138.44328934 90.14753021 138.46079742 91.27162292 138.47883606 92.42977905 C138.45720312 100.20162731 138.45720312 100.20162731 136.19628906 104.1496582 C133.23453151 106.64489614 130.09145714 107.73780672 126.4375 108.8125 C125.76525391 109.02841797 125.09300781 109.24433594 124.40039062 109.46679688 C121.49661045 110.3751293 119.05834925 111 116 111 C115.9906543 109.96705811 115.98130859 108.93411621 115.97167969 107.86987305 C115.93139457 103.98729468 115.86553558 100.1054771 115.79248047 96.22338867 C115.76449175 94.55259068 115.74316888 92.88166572 115.72900391 91.21069336 C115.61859312 78.9146116 114.91574631 67.77212805 106.8359375 57.78515625 C98.95367944 50.1209181 89.60206673 47.79620264 79 47 C78.90203125 46.14019531 78.8040625 45.28039062 78.703125 44.39453125 C76.85927757 29.81859944 72.83052087 12.83052087 62 2 C59.28965362 1.66767316 59.28965362 1.66767316 56.08154297 1.68115234 C54.84040741 1.66128265 53.59927185 1.64141296 52.32052612 1.62094116 C50.96108173 1.60906389 49.60163545 1.59740108 48.2421875 1.5859375 C46.85497882 1.56723271 45.4677816 1.54765981 44.08059692 1.5272522 C40.42774196 1.47585188 36.77485006 1.43626875 33.12182617 1.39910889 C29.39492603 1.35911852 25.66818051 1.30800361 21.94140625 1.2578125 C14.62771012 1.16095981 7.3139394 1.07658525 0 1 C0 0.67 0 0.34 0 0 Z " fill="#635B63" transform="translate(157,43)"/>
<path d="M0 0 C6.15412452 -0.0720173 9.98210385 0.38122374 15 4 C20.31756695 9.77710978 21.14212755 14.89693291 21.2109375 22.61328125 C21.23901012 24.35352497 21.26767461 26.09375922 21.296875 27.83398438 C21.33808899 30.57250665 21.37498413 33.31085297 21.40136719 36.04956055 C21.42906288 38.69617038 21.47493619 41.34198164 21.5234375 43.98828125 C21.52669037 44.80097977 21.52994324 45.61367828 21.53329468 46.45100403 C21.63860507 51.35005001 22.29940549 54.75477464 25 59 C29.26192431 62.5838909 32.56024847 63.34903447 38 64 C38.04977792 69.24697519 38.0858971 74.4938101 38.10986328 79.7409668 C38.11986411 81.52256671 38.13346916 83.30415044 38.15087891 85.08569336 C38.17538957 87.66003433 38.18654248 90.23415657 38.1953125 92.80859375 C38.20563507 93.59334579 38.21595764 94.37809784 38.22659302 95.18663025 C38.22766672 100.58922636 37.74978925 105.85381444 36 111 C35.34 111.66 34.68 112.32 34 113 C32.9790625 112.35546875 31.958125 111.7109375 30.90625 111.046875 C24.75284125 107.97017062 18.24546134 108.32540658 11.5 108.25 C10.200625 108.22035156 8.90125 108.19070312 7.5625 108.16015625 C4.37493894 108.0898424 1.18809318 108.03695232 -2 108 C-1.83923477 107.05261459 -1.67846954 106.10522919 -1.51283264 105.12913513 C-0.84190781 100.40139167 -0.8245313 95.70202397 -0.79467773 90.93383789 C-0.78477814 89.94770508 -0.77487854 88.96157227 -0.76467896 87.94555664 C-0.73323583 84.70461379 -0.70837482 81.46365631 -0.68359375 78.22265625 C-0.66300937 75.96821219 -0.64201251 73.71377187 -0.62062073 71.45933533 C-0.56555336 65.53944937 -0.5160767 59.61952946 -0.46777344 53.69958496 C-0.41744615 47.65320838 -0.3618188 41.60688079 -0.30664062 35.56054688 C-0.19924673 23.70707316 -0.09776041 11.85355681 0 0 Z " fill="#FCC8BC" transform="translate(237,105)"/>
<path d="M0 0 C0.01458252 0.9379541 0.02916504 1.8759082 0.04418945 2.84228516 C0.10546717 6.34269379 0.17965932 9.84234449 0.26245117 13.34228516 C0.29557926 14.85324904 0.32364855 16.36433307 0.34643555 17.87548828 C0.38020681 20.05553082 0.43252896 22.23448439 0.48828125 24.4140625 C0.51446533 25.7232666 0.54064941 27.0324707 0.56762695 28.38134766 C1.17215534 33.44081672 2.8874978 37.60042929 6.9375 40.8125 C12.35980798 44.68557713 17.77715542 44.27651965 24.25 44.375 C25.62478516 44.43107422 25.62478516 44.43107422 27.02734375 44.48828125 C33.55223856 44.57205308 38.16125917 43.55652822 43 39 C48.68146702 32.49664688 47.67076473 23.12069393 47.75 15 C47.77820128 13.5429339 47.80813444 12.08590023 47.83984375 10.62890625 C47.91321509 7.08608939 47.96308952 3.54340619 48 0 C53.24219058 4.06502317 55.91062727 8.18523236 59 14 C59.34546875 14.62777344 59.6909375 15.25554687 60.046875 15.90234375 C63.46612548 23.27308654 63.10051556 32.36502441 61.26171875 40.109375 C58.68561757 47.04142909 54.52739726 52.59772652 50.09838867 58.42700195 C42.91603356 67.94048301 39.94087032 76.23651873 37 88 C28.09 88 19.18 88 10 88 C9.01 83.71 8.02 79.42 7 75 C4.01069374 68.00064875 0.63579249 62.32880304 -4.0625 56.4375 C-12.88759118 45.23661217 -15.30226069 36.20229649 -14.25244141 22.08740234 C-13.74011938 17.85108388 -12.33652431 14.5248597 -10 11 C-9.0409375 9.39125 -9.0409375 9.39125 -8.0625 7.75 C-2.25 0 -2.25 0 0 0 Z " fill="#7DAFF5" transform="translate(177,376)"/>
<path d="M0 0 C45.63231438 -0.11439498 91.26461361 -0.20252326 136.89704306 -0.25532665 C142.28194821 -0.26158033 147.66685308 -0.26805193 153.05175781 -0.2746582 C154.12381465 -0.27596976 155.19587149 -0.27728131 156.3004149 -0.2786326 C173.6687287 -0.30040088 191.03695992 -0.33983025 208.4052247 -0.38576398 C226.22102402 -0.43248903 244.03678004 -0.46028703 261.85263813 -0.47044247 C272.84978198 -0.47730983 283.84669244 -0.49901499 294.84376447 -0.53958233 C302.38051795 -0.56597191 309.91715043 -0.57400958 317.45394678 -0.56750689 C321.80512283 -0.56429809 326.15589046 -0.56928479 330.50699425 -0.59602737 C334.48963581 -0.62032699 338.47159364 -0.62160948 342.45426641 -0.60449447 C343.89583094 -0.60237867 345.33743781 -0.60874976 346.77891876 -0.62441591 C358.89652554 -0.74846518 358.89652554 -0.74846518 362.84710503 2.40867329 C365.82281345 5.99037738 365.82281345 5.99037738 365.75 9 C365.76546875 9.639375 365.7809375 10.27875 365.796875 10.9375 C364.4361621 14.45934515 362.30267586 16.36671408 359 18 C354.22961579 18.75183896 349.46557577 18.65361476 344.64944458 18.60127258 C343.16345825 18.60345358 341.6774738 18.60783264 340.19149959 18.61421841 C336.11164397 18.62539598 332.03244493 18.60540304 327.95267296 18.58032811 C323.55191962 18.55873802 319.15120338 18.56604251 314.75041199 18.56983948 C307.12694652 18.57246139 299.50369501 18.55677245 291.88028336 18.52865028 C280.85814385 18.48801693 269.83610781 18.47499323 258.81390153 18.46871033 C240.93121425 18.45776689 223.04864099 18.42449133 205.16601562 18.37719727 C187.79460216 18.33130297 170.42321966 18.29591041 153.05175781 18.2746582 C151.44562521 18.27268778 151.44562521 18.27268778 149.80704547 18.27067754 C144.4353879 18.26415236 139.0637301 18.25783382 133.69207215 18.25161803 C89.12796912 18.19978348 44.56399044 18.11171682 0 18 C0 17.67 0 17.34 0 17 C100.65 16.67 201.3 16.34 305 16 C306.59513148 11.21460555 306.58109795 6.0268246 307 1 C205.69 1 104.38 1 0 1 C0 0.67 0 0.34 0 0 Z " fill="#6E96CC" transform="translate(21,479)"/>
<path d="M0 0 C1.60298698 -0.00810448 1.60298698 -0.00810448 3.23835754 -0.01637268 C6.77368796 -0.02888864 10.30820867 -0.01235016 13.84350586 0.00561523 C16.29682966 0.00546033 18.75015371 0.0039727 21.20347595 0.00120544 C26.34572158 -0.0001798 31.48768871 0.0124019 36.62988281 0.03515625 C43.23008025 0.0635558 49.82981531 0.06080099 56.43004704 0.04806614 C61.49572213 0.04112074 66.56128983 0.04888502 71.62695122 0.06132317 C74.06108628 0.06584768 76.49523284 0.06616579 78.92936897 0.06225777 C82.32685223 0.0593564 85.72369171 0.07580125 89.12109375 0.09765625 C90.13260498 0.0931546 91.14411621 0.08865295 92.1862793 0.08401489 C93.1101796 0.09391953 94.0340799 0.10382416 94.98597717 0.11402893 C96.19080293 0.11767377 96.19080293 0.11767377 97.41996861 0.12139225 C100.04370911 0.60208089 100.92846516 1.36744294 102.49584961 3.50170898 C102.88778495 7.09444961 103.0602711 9.50571488 101.25427914 12.69261932 C99.49584961 14.50170898 99.49584961 14.50170898 97.41996861 15.00507355 C96.61675143 15.00658165 95.81353426 15.00808975 94.98597717 15.00964355 C94.06207687 15.02092285 93.13817657 15.03220215 92.1862793 15.04382324 C91.17476807 15.03572632 90.16325684 15.02762939 89.12109375 15.01928711 C88.05418808 15.02629639 86.98728241 15.03330566 85.88804626 15.04052734 C82.35210337 15.05816977 78.81695726 15.04646101 75.28100586 15.03295898 C72.82864732 15.03565228 70.37628981 15.03953335 67.92393494 15.04455566 C62.77991588 15.05045938 57.63617434 15.04186006 52.4921875 15.02319336 C45.89309856 15.00041579 39.29466072 15.01351453 32.69559574 15.03748322 C27.62986839 15.05192759 22.56429574 15.04734114 17.49856377 15.03697205 C15.06525025 15.0343004 12.63192277 15.03758984 10.19862556 15.04689026 C6.7987046 15.05703165 3.399842 15.04158651 0 15.01928711 C-1.5142305 15.0314325 -1.5142305 15.0314325 -3.05905151 15.04382324 C-9.85033432 14.96116517 -9.85033432 14.96116517 -13.12940979 12.65686035 C-15.02081897 9.69173872 -15.07936961 7.95302429 -14.50415039 4.50170898 C-11.02023836 -0.96245872 -5.82472643 -0.05578405 0 0 Z " fill="#000000" transform="translate(375.504150390625,72.498291015625)"/>
<path d="M0 0 C1.4274587 0.30947154 2.85445239 0.62108846 4.28125 0.93359375 C5.47331055 1.19354126 5.47331055 1.19354126 6.68945312 1.45874023 C8.64576301 1.91701781 10.57736838 2.47884397 12.5 3.0625 C28.66654886 7.39282559 46.84235247 6.29024026 62.578125 1.09375 C66 0 66 0 69 0 C69.06058594 1.22976563 69.12117188 2.45953125 69.18359375 3.7265625 C69.26805005 5.35938427 69.35269547 6.99219627 69.4375 8.625 C69.47681641 9.43324219 69.51613281 10.24148438 69.55664062 11.07421875 C69.59853516 11.86699219 69.64042969 12.65976562 69.68359375 13.4765625 C69.72025146 14.19924316 69.75690918 14.92192383 69.79467773 15.66650391 C70.04068957 18.4624387 70.53857526 21.23145157 71 24 C46.91 24 22.82 24 -2 24 C-1.67 22.35 -1.34 20.7 -1 19 C-0.86271858 17.454319 -0.7574037 15.90547779 -0.68359375 14.35546875 C-0.62075195 13.09379883 -0.62075195 13.09379883 -0.55664062 11.80664062 C-0.49766602 10.51016602 -0.49766602 10.51016602 -0.4375 9.1875 C-0.37272461 7.86202148 -0.37272461 7.86202148 -0.30664062 6.50976562 C-0.20108464 4.34000377 -0.10008929 2.1700209 0 0 Z " fill="#FBD9CB" transform="translate(166,279)"/>
<path d="M0 0 C0.33 0 0.66 0 1 0 C1.04487549 0.7113208 1.08975098 1.4226416 1.13598633 2.15551758 C1.34718907 5.37563602 1.57958578 8.59388224 1.8125 11.8125 C1.88275391 12.93205078 1.95300781 14.05160156 2.02539062 15.20507812 C2.10595703 16.27822266 2.18652344 17.35136719 2.26953125 18.45703125 C2.33760986 19.44678955 2.40568848 20.43654785 2.47583008 21.45629883 C3.07213582 24.35006202 3.6151199 25.29836875 6 27 C8.10332891 27.71447643 8.10332891 27.71447643 10 28 C10.34256166 31.24673324 10.61501431 34.4956963 10.875 37.75 C11.02195312 39.13058594 11.02195312 39.13058594 11.171875 40.5390625 C11.36080793 43.14633698 11.47513837 45.42667392 11 48 C10.030625 48.6084375 9.06125 49.216875 8.0625 49.84375 C4.76851272 51.64978664 4.76851272 51.64978664 4.41064453 54.63378906 C4.1848363 58.01630419 4.11745831 61.3600097 4.125 64.75 C4.104375 65.92433594 4.08375 67.09867187 4.0625 68.30859375 C4.01539712 71.20542115 4.0042481 74.10279279 4 77 C-1.94 77 -7.88 77 -14 77 C-14.3154604 49.92298265 -13.87910229 24.214604 0 0 Z " fill="#FBCC63" transform="translate(35,387)"/>
<path d="M0 0 C0.67530258 -0.00686325 1.35060516 -0.0137265 2.04637146 -0.02079773 C4.27339852 -0.03906345 6.49972091 -0.03522878 8.72680664 -0.02954102 C10.27853118 -0.03410311 11.83025369 -0.03940877 13.38197327 -0.04542542 C16.63266208 -0.05435615 19.88310521 -0.05193415 23.13378906 -0.04199219 C27.29466444 -0.03050508 31.45469083 -0.05070934 35.61545467 -0.07990932 C38.81972113 -0.09827745 42.02378438 -0.09797767 45.22809029 -0.0922718 C46.76185865 -0.09211865 48.29564085 -0.09815835 49.82935905 -0.11056328 C51.9766208 -0.12548336 54.12231765 -0.11479129 56.26953125 -0.09765625 C57.48990585 -0.09749008 58.71028046 -0.09732391 59.96763611 -0.09715271 C63.83473526 0.50257348 65.50553316 1.60073021 68.19946289 4.40405273 C68.76196289 7.90405273 68.76196289 7.90405273 68.19946289 11.40405273 C65.97135972 14.45184098 64.77540466 15.31105938 61.01196289 15.91871643 C59.75383789 15.92491501 58.49571289 15.93111359 57.19946289 15.9375 C56.50304687 15.94611557 55.80663086 15.95473114 55.08911133 15.96360779 C52.79218141 15.98626987 50.49647124 15.97952985 48.19946289 15.97045898 C46.60050087 15.97569425 45.00154195 15.98197038 43.40258789 15.98924255 C40.05348159 15.99964692 36.70480018 15.99508472 33.35571289 15.98046875 C29.06452699 15.96327389 24.77467917 15.98678306 20.48364258 16.02195835 C17.18244562 16.04392136 13.88156945 16.0424938 10.58032227 16.03419304 C8.99827608 16.03337303 7.41620645 16.04024605 5.83422852 16.05496407 C3.6218036 16.07239316 1.41179084 16.05788674 -0.80053711 16.03515625 C-2.05866211 16.03419449 -3.31678711 16.03323273 -4.61303711 16.03224182 C-7.80053711 15.40405273 -7.80053711 15.40405273 -10.23803711 13.09117126 C-11.80053711 10.40405273 -11.80053711 10.40405273 -11.80053711 6.77905273 C-9.90610097 0.38533076 -6.2210705 0.02756062 0 0 Z " fill="#030403" transform="translate(409.800537109375,36.595947265625)"/>
<path d="M0 0 C13.44982805 16.40320276 14.1769546 40.03281898 14.0625 60.125 C14.0574735 61.66926938 14.05291264 63.21354034 14.04882812 64.7578125 C14.0387759 68.5052806 14.01918503 72.25252359 14 76 C8.06 76 2.12 76 -4 76 C-4.15264167 61.75786809 -3.67340979 47.67078113 -2.77319336 33.45849609 C-2.55970672 30.08080599 -2.35635841 26.70260984 -2.15429688 23.32421875 C-2.02141608 21.1562142 -1.88797382 18.98824398 -1.75390625 16.8203125 C-1.6934462 15.82033234 -1.63298615 14.82035217 -1.57069397 13.79006958 C-1.27227374 9.13353165 -0.89443178 4.58932707 0 0 Z " fill="#FACC62" transform="translate(366,388)"/>
<path d="M0 0 C0.474375 0.70125 0.94875 1.4025 1.4375 2.125 C5.73840429 6.95040481 10.71350684 10.42837671 17 12 C17 21.57 17 31.14 17 41 C5 41 5 41 1.8125 38.625 C-1.06432056 34.45857022 -1.14692802 31.56078847 -1.1328125 26.62109375 C-1.13424759 25.53019188 -1.13424759 25.53019188 -1.13571167 24.41725159 C-1.13639235 22.87981072 -1.13454585 21.34236699 -1.13037109 19.80493164 C-1.12501351 17.443457 -1.13032377 15.08217189 -1.13671875 12.72070312 C-1.1360581 11.22916624 -1.13477721 9.73762948 -1.1328125 8.24609375 C-1.13483673 7.53569443 -1.13686096 6.8252951 -1.13894653 6.09336853 C-1.11495714 1.11495714 -1.11495714 1.11495714 0 0 Z " fill="#97BFF2" transform="translate(94,152)"/>
<path d="M0 0 C0.33 0 0.66 0 1 0 C1.09911652 4.89292532 1.17158399 9.78526221 1.21972656 14.67895508 C1.23980207 16.34247013 1.26706876 18.00591496 1.30175781 19.66918945 C1.35045766 22.0647924 1.37300856 24.45945992 1.390625 26.85546875 C1.41127014 27.5952446 1.43191528 28.33502045 1.45318604 29.09721375 C1.45476041 32.74674183 1.11089199 34.82212183 -0.83691406 37.9465332 C-5.80236918 42.66035296 -9.41172042 41 -17 41 C-17 31.43 -17 21.86 -17 12 C-13.7 10.68 -10.4 9.36 -7 8 C-4.52258936 6.00652578 -4.52258936 6.00652578 -2.9375 3.75 C-1.96439905 2.49527218 -0.98712878 1.24372189 0 0 Z " fill="#98C1F5" transform="translate(307,152)"/>
<path d="M0 0 C0.63615234 0.59748047 0.63615234 0.59748047 1.28515625 1.20703125 C8.61880145 7.83148878 15.28285692 9.49042107 25 10 C16.02927137 19.79542976 1.9724025 24.55717768 -11 26 C-14.64715943 26.1126862 -18.28907155 26.09491939 -21.9375 26.0625 C-22.90751953 26.05798828 -23.87753906 26.05347656 -24.87695312 26.04882812 C-27.2513676 26.0371315 -29.62565021 26.02074086 -32 26 C-31.38970947 25.69908447 -30.77941895 25.39816895 -30.15063477 25.08813477 C-18.48607694 19.18633726 -7.15079255 11.07316821 0 0 Z " fill="#FBC7BB" transform="translate(221,244)"/>
<path d="M0 0 C9.9 0.33 19.8 0.66 30 1 C24.83084677 10.17788431 19.51340226 19.26150224 14.125 28.3125 C13.45847412 29.44034912 12.79194824 30.56819824 12.10522461 31.73022461 C11.47495361 32.7847583 10.84468262 33.83929199 10.1953125 34.92578125 C9.62828613 35.87880127 9.06125977 36.83182129 8.47705078 37.8137207 C7 40 7 40 5 41 C4.98598145 39.61663452 4.98598145 39.61663452 4.97167969 38.20532227 C4.92734873 34.74381346 4.86559702 31.28348541 4.79248047 27.82250977 C4.76446516 26.33206297 4.74315506 24.84147297 4.72900391 23.35083008 C4.70730049 21.19278661 4.66052249 19.0364301 4.609375 16.87890625 C4.58842773 15.5854126 4.56748047 14.29191895 4.54589844 12.95922852 C4.04632901 7.98261057 4.04632901 7.98261057 0 0 Z " fill="#93D3A1" transform="translate(372,114)"/>
<path d="M0 0 C1.16273438 -0.020625 2.32546875 -0.04125 3.5234375 -0.0625 C5.1940625 -0.07023438 5.1940625 -0.07023438 6.8984375 -0.078125 C7.92372559 -0.0874707 8.94901367 -0.09681641 10.00537109 -0.10644531 C12.625 0.25 12.625 0.25 14.49072266 1.57910156 C15.625 3.25 15.625 3.25 15.5 6.3125 C14.625 9.25 14.625 9.25 11.625 11.25 C7.99445819 11.70926914 4.34401658 11.62031516 0.6875 11.625 C-0.31474609 11.64949219 -1.31699219 11.67398438 -2.34960938 11.69921875 C-9.6659539 11.72850365 -9.6659539 11.72850365 -13.078125 9.42578125 C-14.375 7.25 -14.375 7.25 -14.1875 4.0625 C-12.39212654 -2.1522543 -5.55872228 0.02448776 0 0 Z " fill="#D15E69" transform="translate(247.375,227.75)"/>
<path d="M0 0 C3.33365393 1.24069903 3.94147905 1.91221858 6 5 C5.77910207 11.18514204 5.77910207 11.18514204 3.3828125 13.69140625 C0.15804772 15.46238363 -2.33681244 15.4336195 -6 15.4375 C-7.216875 15.45683594 -8.43375 15.47617187 -9.6875 15.49609375 C-13 15 -13 15 -15.40234375 13.19140625 C-17 11 -17 11 -17.5625 7.5 C-17 4 -17 4 -15.25 1.5625 C-10.31767718 -0.80880905 -5.38405895 -0.63690381 0 0 Z " fill="#050604" transform="translate(378,37)"/>
</svg>
